<svg xmlns="http://www.w3.org/2000/svg" xmlns:xlink="http://www.w3.org/1999/xlink" viewBox="0 0 566.93 481.89"><defs><style>.cls-1{fill:url(#Degradado_sin_nombre_38);}.cls-2{fill:#60321b;}.cls-3{fill:#a48f3e;}.cls-4{fill:#e9e204;}.cls-5{fill:#d878ae;}.cls-6{fill:#704310;}.cls-7,.cls-9{fill:none;stroke-miterlimit:10;}.cls-7{stroke:#704310;}.cls-8{font-size:90px;fill:#d2d700;stroke:#1d1d1b;stroke-width:2px;font-family:Impact;}.cls-9{stroke:#e31013;}.cls-10{fill:#e31013;}.cls-11{fill:#010101;}</style><linearGradient id="Degradado_sin_nombre_38" x1="283.46" y1="481.89" x2="283.46" gradientUnits="userSpaceOnUse"><stop offset="0" stop-color="#0d0805"/><stop offset="0.37" stop-color="#faf4b4"/><stop offset="0.43" stop-color="#eee8ab"/><stop offset="0.53" stop-color="#cdc893"/><stop offset="0.67" stop-color="#97936d"/><stop offset="0.84" stop-color="#4e4c38"/><stop offset="1"/></linearGradient></defs><g id="Capa_3" data-name="Capa 3"><rect class="cls-1" width="566.93" height="481.89"/></g><g id="Capa_8" data-name="Capa 8"><path class="cls-2" d="M161.86,225.94c-1.27,1.85-1.5,6.91-1.65,10a52.36,52.36,0,0,0,1.1,12.26c2,8.88,40,35.75,109.05,39.57,60.25,3.33,80-5.1,128.22-27.31,1.82-.84,7.05-1.67,8.77-5.57,1.09-2.47,0-4.16-.55-12.26-.39-5.8.07-6.43-.55-7.24-3.88-5.16-29.77,11.36-38.9,13.93C321.7,262.18,267,259.9,250.63,256,206.56,245.62,167.23,218.08,161.86,225.94Z"/><path class="cls-3" d="M163.23,281.13c4.94-5.21,26.07,6.48,43.84,13.49,44.49,17.54,100.16,18.47,141.38,6.49,25.48-7.41,49.4-20.9,53.7-15.48,2.06,2.59-1,8.74-3.84,14.48a50,50,0,0,1-9.86,13.49c-12,11.76-29,16.9-34.52,18.48-33.11,9.52-64.93,9.42-78.91,9-17.71-.54-43.07-2.75-68.37-11.35-5.61-1.9-20.66-7.34-31.91-19.12a45,45,0,0,1-8.77-13C164.11,293.38,160.16,284.37,163.23,281.13Z"/><path class="cls-2" d="M160.49,259.65c-1.26,1.66-1.49,6.19-1.64,9a42.2,42.2,0,0,0,1.1,11c2,8,40,32.05,109,35.47,60.25,3,80-4.58,128.23-24.48,1.82-.75,7-1.5,8.77-5,1.09-2.22,0-3.73-.55-11-.4-5.21.06-5.77-.55-6.5-3.89-4.62-29.77,10.19-38.91,12.49-45.64,11.5-100.35,9.46-116.71,6C205.2,277.29,165.87,252.61,160.49,259.65Z"/><path class="cls-4" d="M160.63,255.4c.05,9.36,4.59,30.7,9.25,31.66,4.15.87.59-19.35,8.32-16.32,17.57,6.89,51.54,14.72,77.17,16.72,68.44,5.33,139.36-3,148.79-23.31.51-1.11,2.25-4.84.55-6.5-4.31-4.21-24.4,11.64-44.4,14.32-35,4.7-59.95,7.86-99.64,3.66-53.9-5.69-74.84-17.23-83.51-17.23C174.27,258.4,160.18,253.36,160.63,255.4Z"/><path class="cls-5" d="M406.19,227.46c0,5.26-20.25,19.5-56.1,29.54-17.88,5-43.57,8-67.22,8-5.89,0-29.74-3.46-51.74-8.88-35.8-8.82-75.94-24.78-75.94-28.66,0-7.19,20.39.42,52.34,6.83,24,4.83,51.81,13.2,73.16,13.26,33.23.08,63.78-6.76,69.4-7.6C388.2,234.29,406.19,219.68,406.19,227.46Z"/><path class="cls-3" d="M181.64,150.79c-10.18,7.37-15.31,14.29-16.44,15.85s-19.81,28-10.41,49.08c8.83,19.82,37.82,24.65,67.94,29.66,14.45,2.4,33.38,2.28,71.24,2.05,41.29-.27,53.81-1.73,66.85-4.61,20.56-4.53,41.1-9.35,49.87-25.56,5.81-10.74,3.92-21.82,3.29-25.57-3.12-18.34-17-29.94-24.11-35.79-46.81-38.18-124.38-28.31-154-24.54C221.21,133.23,200.56,137.09,181.64,150.79Z"/><polyline class="cls-3" points="215.93 140.23 240.89 79.32 258.13 132.07"/><polyline class="cls-3" points="344.19 139.58 319.24 78.67 302 131.42"/><path class="cls-6" d="M294.82,147.15a84.39,84.39,0,0,1,1.56,12.66c.15,3.2.09,6.24,2.23,9.5a12,12,0,0,0,3.12,3.36c5,3.52,14.42,2.76,20.28-1.78,3.63-2.81,6.73-7.7,5.8-12.46-1.05-5.32-6.51-7.42-5.8-8.51,1.19-1.82,17,3.37,31.87,12.07,13.22,7.72,15.68,12.33,16.49,14,4,8.39.9,16.53.22,18.2-6.75,16.72-31.85,22.6-32.76,21.36-.22-.31,1.16-1,2.9-3.56,1.18-1.75,4.22-6.26,2.68-9.49-1.64-3.43-8.23-5-13.38-4-7.59,1.58-13.76,8.44-14.07,8.47s-4.23-6.87-8-8.07c-4.17-1.34-9.46,3.7-14.7,8.45-3.15,2.86-4.73,4.29-6.1,6.48s-1.93,4-3,4.06-1.78-1.81-3.35-4.35a52,52,0,0,0-5.34-6.73c-3.79-4.2-6.9-7.66-11.59-7.91-3.59-.2-8.06,1.48-9.81,4.35-1,1.68-.91,3.45-1.78,3.56s-1.48-1.8-3.12-3.56c-2.63-2.84-6.45-3.61-9.14-4.15-3.57-.73-7.66-1.56-11.14.59-2.1,1.29-4.06,3.72-4,6.33,0,2.22,1.54,4.18,3.34,6.53,1.54,2,2.76,3,2.45,3.36s-2-.25-5.12-1.39c-6.28-2.26-5.6-1.82-7.36-2.57a44,44,0,0,1-11.36-7.12c-3.66-3.09-7-5.89-9.14-10.68a20.42,20.42,0,0,1-1.56-13.06c1.58-6.69,6.56-10.69,10.48-13.84,4.21-3.38,9.79-5.75,20.94-10.49,1.74-.73,5.69-2.13,13.6-4.94,1.37-.49,5.57-2,5.79-1.58s-2.18,1.16-4.23,3.36a10.8,10.8,0,0,0-2.9,5.54c-.54,3.88,2.19,7,3.57,8.5,4.69,5.29,11.56,6.2,12.7,6.33,2,.25,9,1.07,12.7-2.57.7-.68.75-1,2.68-10.09,1.66-7.86,1.93-9.09,1.78-11.47-.1-1.57-.39-3.68,0-3.76s.77,1.8,2.67,4.16a16.83,16.83,0,0,0,3.12,3,8,8,0,0,0,2.68,1.59c2.32.6,4.63-.73,5.79-1.39s1.48-1.08,4.46-3.76C293.16,148.61,294.18,147.72,294.82,147.15Z"/><ellipse class="cls-7" cx="284" cy="185.33" rx="96.42" ry="45.1"/></g><g id="Capa_5" data-name="Capa 5"><text class="cls-8" transform="translate(98.39 426.85)">Bat-Burger</text><text class="cls-8" transform="translate(380.42 127.38)">$ 40</text></g><g id="Capa_2" data-name="Capa 2"><g id="Capa_2-2" data-name="Capa 2"><path class="cls-9" d="M13.58,271.62s6.13-5.78,7.21-8.31,5.95-13.25,5.59-14.7,22.89-4.1,22.89-4.1v11.57"/><path class="cls-10" d="M12,254l2.52,2.5S62.78,250,65,249,13,255.39,12,254Z"/><path class="cls-10" d="M75.86,241.09c2.67-1.45-64,8.68-65.32,6.75l3.11,3.37"/></g><g id="Capa_3-2" data-name="Capa 3"><path class="cls-10" d="M39.13,264.58q4.13.18,8.23.46l2.09.16c.67,0,1.33.09,2,.17.48.09,1,.44.78.89-.15.26-.58.34-.9.38-.7.08-1.44.06-2.16.09l-2.32.09c-.51,0-.51.66,0,.64l2.32-.09c.73,0,1.47,0,2.2-.1a2.45,2.45,0,0,0,1.32-.44,1,1,0,0,0,.29-1.22,1.79,1.79,0,0,0-1.48-.87c-.74-.1-1.51-.14-2.26-.2l-4.71-.33c-1.78-.11-3.57-.2-5.36-.27-.51,0-.51.62,0,.64Z"/><path class="cls-10" d="M51.31,265.43a4,4,0,0,0,3.63-2.3,4.48,4.48,0,0,0-.27-4.47,7.54,7.54,0,0,0-4-3,20.57,20.57,0,0,0-6.88-.75c-2.54,0-5.07,0-7.6.19a44.61,44.61,0,0,0-6.95.87,14.18,14.18,0,0,0-5.43,2.32c-1.53,1.14-2.6,2.72-2.24,4.44a2.63,2.63,0,0,0,1.48,1.86,7.18,7.18,0,0,0,3.07.34l7.72-.08,1.9,0a.33.33,0,1,0,0-.64l-7.13.08c-1.15,0-2.29,0-3.45,0a3,3,0,0,1-2.38-.75c-1.08-1.31-.33-3.06.8-4.16a11.26,11.26,0,0,1,4.72-2.52,34,34,0,0,1,6.09-1c2.32-.21,4.67-.27,7-.3a47.83,47.83,0,0,1,6.67.15,8.83,8.83,0,0,1,4.8,2,4.66,4.66,0,0,1,1.7,3.88,3.71,3.71,0,0,1-2.34,3.09,2.62,2.62,0,0,1-1,.12c-.51,0-.51.62,0,.64Z"/><path class="cls-10" d="M24.28,264.87a.48.48,0,0,0-.41-.6.7.7,0,0,0-.67.19,1.52,1.52,0,0,0-.34,1.31,2.72,2.72,0,0,0,2.21,2.06,10.4,10.4,0,0,0,1.93.24c.81.05,1.61.09,2.42.12,1.59.06,3.19.07,4.78.05,1.84,0,3.68-.1,5.51-.19.51,0,.51-.67,0-.64q-3.93.21-7.86.2c-1.31,0-2.63-.05-3.94-.12a8.27,8.27,0,0,1-3.3-.53,1.82,1.82,0,0,1-.89-1,1.39,1.39,0,0,1-.09-.57,1.13,1.13,0,0,1,.06-.31.24.24,0,0,1,0-.1.41.41,0,0,1,.05-.09c.08-.1,0-.16-.27-.21-.09.4.67.57.77.17Z"/><path class="cls-10" d="M23.34,269.2a1.23,1.23,0,0,0,0,1.44,2,2,0,0,0,1.63.8,13,13,0,0,0,2.42-.2l2.68-.29,5.5-.61,2.61-.29,1.31-.14a5.83,5.83,0,0,1,1.32-.1c.42.05.59.39.73.67s.36.7.53,1.06l1.19,2.35a.43.43,0,0,0,.5.22A.4.4,0,0,0,44,274a17.24,17.24,0,0,1,4.62-2.61c1.4-.52,3.07-.85,3.73-2.09.2-.37-.49-.7-.69-.32-.63,1.19-2.42,1.45-3.74,2a17.5,17.5,0,0,0-4.48,2.59l.66.14-1-2a16.14,16.14,0,0,0-.93-1.8,1.71,1.71,0,0,0-1.7-.72c-.85.06-1.7.18-2.54.27l-10.46,1.16-1.55.17a3.23,3.23,0,0,1-1.16,0c-.59-.15-1-.77-.68-1.23a.3.3,0,0,0-.16-.44.47.47,0,0,0-.53.12Z"/><path class="cls-10" d="M23.4,273.32a4,4,0,0,0,0,2,.39.39,0,0,0,.38.23q6.45.23,12.9.16c4.28,0,8.57-.15,12.83-.42a3.7,3.7,0,0,0,2.44-.81,1.57,1.57,0,0,0,.35-1.95c-.22-.37-.91-.05-.69.32a1.12,1.12,0,0,1-.53,1.43,5.49,5.49,0,0,1-2.44.43c-2,.1-4,.19-6.05.25q-6,.19-12,.13-3.42,0-6.84-.16l.39.23a3.33,3.33,0,0,1,0-1.63c.1-.4-.66-.57-.77-.17Z"/><path class="cls-10" d="M23.63,277.48a10.39,10.39,0,0,1-.14,2.42,1.83,1.83,0,0,0,1.5,1.76,10.87,10.87,0,0,0,1.62.21c.67.07,1.32.13,2,.18,1.31.1,2.63.17,3.95.21a105.52,105.52,0,0,0,15.7-.75,5.26,5.26,0,0,0,3.15-1.15,2.22,2.22,0,0,0,.63-2.52c-.18-.38-.94-.22-.76.17a1.72,1.72,0,0,1-.52,2,4.76,4.76,0,0,1-2.66.89c-2.42.29-4.86.5-7.29.62a91.8,91.8,0,0,1-14.55-.32,3.54,3.54,0,0,1-1.53-.34,1.06,1.06,0,0,1-.46-1,9.92,9.92,0,0,0,.1-2.55c-.1-.4-.87-.23-.76.17Z"/><path class="cls-11" d="M64.18,261.22l-5.87,13-1.65,3.68c-.18.38.59.55.76.16l5.87-13L65,261.39c.18-.38-.59-.55-.77-.17Z"/><path class="cls-11" d="M59.71,265.76l.12,0s0,0,0,0,0-.2,0-.21a1,1,0,0,1,.12-.49,6.72,6.72,0,0,1,.95-1.26,13.29,13.29,0,0,1,2.35-2.12A14.1,14.1,0,0,1,69,259.26a13.15,13.15,0,0,1,3.6-.13l-.29-.31A8.56,8.56,0,0,1,70,263.48a25,25,0,0,1-4.8,3.68l.56.45a10.34,10.34,0,0,1,6.38-1.74c.89.07,1.77.47,1.8,1.26a2.55,2.55,0,0,1-.53,1.39q-.41.62-.87,1.2a24.22,24.22,0,0,1-15.51,9c-.5.07-.29.68.21.61a24.87,24.87,0,0,0,11.65-5,24.18,24.18,0,0,0,4.45-4.48c.63-.83,1.46-1.8,1.37-2.82a2.12,2.12,0,0,0-1.91-1.71,9.2,9.2,0,0,0-3.84.18,11.57,11.57,0,0,0-3.77,1.65c-.4.27.16.71.56.45a25.7,25.7,0,0,0,5-3.88,9,9,0,0,0,2.44-4.9.35.35,0,0,0-.29-.31A14.87,14.87,0,0,0,59.76,264a2.72,2.72,0,0,0-.76,1.52.78.78,0,0,0,.93.85c.5-.08.29-.7-.21-.62Z"/><path class="cls-11" d="M76.72,266.38a30,30,0,0,0-.91,4.66c-.08.79-.15,1.58-.16,2.37a3.19,3.19,0,0,0,.53,2.06,1.88,1.88,0,0,0,1.88.72,3.38,3.38,0,0,0,1.83-1.14,6.36,6.36,0,0,0,1.44-3.84,53.05,53.05,0,0,0-.07-5.35c0-.41-.79-.41-.79,0,0,1.4.1,2.81.1,4.22a7.47,7.47,0,0,1-.8,3.86c-.4.71-1.87,2.4-2.86,1.28a2.73,2.73,0,0,1-.46-1.91c0-.69.07-1.38.14-2.06a29.29,29.29,0,0,1,.9-4.7c.12-.4-.65-.57-.76-.17Z"/><path class="cls-11" d="M83,266.78l.38,8a.4.4,0,0,0,.79,0,26.31,26.31,0,0,1,.8-4.72,8.69,8.69,0,0,1,2.25-4c.33-.31-.23-.76-.56-.45-2.62,2.5-3,6.05-3.29,9.17h.8l-.38-8c0-.41-.81-.41-.79,0Z"/><path class="cls-11" d="M92.05,265.19c-.58-.6-1.49-.05-1.88.41a8.12,8.12,0,0,0-1.2,2,9.5,9.5,0,0,0-.85,4.55c0,.9.52,2.84,2.17,2.49a2.21,2.21,0,0,0,1.43-1.41,9.87,9.87,0,0,0,.71-2.28,25.68,25.68,0,0,0,.27-5.47h-.8a55.33,55.33,0,0,1-.75,12.45c-.16,1-.34,2.09-.52,3.13a20.64,20.64,0,0,1-.57,2.9c-.22.69-.71,1.7-1.73,1.84s-1.59-.77-1.85-1.37A3.75,3.75,0,0,1,88,279.83c.4-.26-.16-.71-.56-.45a4.35,4.35,0,0,0-1.91,4.48A3.22,3.22,0,0,0,87,286.07a2.42,2.42,0,0,0,2.71-.18A4.19,4.19,0,0,0,91,283.28c.21-1.1.38-2.2.56-3.29.38-2.27.73-4.55,1-6.83a46,46,0,0,0,.15-7.7c0-.4-.8-.41-.8,0a31.18,31.18,0,0,1-.07,4.1,11.48,11.48,0,0,1-.35,2,6.77,6.77,0,0,1-.7,1.82c-.19.3-.62.84-1.12.54a1.91,1.91,0,0,1-.69-1.26,6.3,6.3,0,0,1,0-1.84,9.11,9.11,0,0,1,1.24-3.9,6.92,6.92,0,0,1,.63-.93,1.46,1.46,0,0,1,.39-.35c.14-.07.2-.11.3,0,.31.33.87-.13.56-.45Z"/><path class="cls-11" d="M96.52,270.05a5.61,5.61,0,0,0,2.65-.89,3.51,3.51,0,0,0,1.65-2.08,1.72,1.72,0,0,0-1.13-1.84,2.61,2.61,0,0,0-2.47.28,5.23,5.23,0,0,0-1.74,2,6.82,6.82,0,0,0-.72,2.42,6.47,6.47,0,0,0,.22,2.51,3.4,3.4,0,0,0,1.45,2.11c1.54.91,4.65.4,4.95-1.3a.34.34,0,0,0-.27-.4.43.43,0,0,0-.49.23c-.21,1.15-2.22,1.55-3.39,1.11a2.38,2.38,0,0,1-1.38-1.59,5.78,5.78,0,0,1-.33-2,6,6,0,0,1,1.32-3.83,2.77,2.77,0,0,1,1.83-1.15,1.35,1.35,0,0,1,1.36.88c.2.73-.49,1.46-1.1,1.93a4.49,4.49,0,0,1-2.41.92C96,269.45,96,270.08,96.52,270.05Z"/><path class="cls-11" d="M102.86,265.47a2.87,2.87,0,0,1,1,1.66c.26.79.49,1.6.67,2.41a26.09,26.09,0,0,1,.62,5H106a15.83,15.83,0,0,1,.29-5.53c.33-1.39,1-3.48,3-3.82.5-.08.29-.7-.21-.62-2.21.38-3.11,2.45-3.51,4a16,16,0,0,0-.39,6c0,.4.79.42.79,0a26.86,26.86,0,0,0-.7-5.34,22.06,22.06,0,0,0-.72-2.49,3.22,3.22,0,0,0-1.3-1.76.47.47,0,0,0-.55.11.3.3,0,0,0,.15.43Z"/><path class="cls-11" d="M118.68,258.64a2.14,2.14,0,0,0-.45-2.7,2.94,2.94,0,0,0-3.18-.47,4.58,4.58,0,0,0-2.45,2.66,17.79,17.79,0,0,0-1,3.9,37.07,37.07,0,0,0-.63,8.27,6.09,6.09,0,0,0,1,3.52,4.42,4.42,0,0,0,3,1.65,3.61,3.61,0,0,0,2.06-.36,2.44,2.44,0,0,0,1.15-1.66,14.3,14.3,0,0,0,.41-3.79.41.41,0,0,0-.8,0,15.12,15.12,0,0,1-.19,2.85,4.33,4.33,0,0,1-.5,1.6,1.84,1.84,0,0,1-1.42.73,3.56,3.56,0,0,1-2.78-1,4.55,4.55,0,0,1-1.17-2.91,23.51,23.51,0,0,1,0-3.56q.09-1.85.36-3.69c.17-1.19.38-2.38.64-3.56a7.19,7.19,0,0,1,1.27-3.06c.61-.74,1.93-1.6,3.07-1a1.72,1.72,0,0,1,.83,2.31c-.23.37.46.69.69.32Z"/><path class="cls-11" d="M118.73,270.76c.07-1.18.07-2.36,0-3.54a.35.35,0,0,0-.29-.31,19.25,19.25,0,0,0-3.64-.13c-.51,0-.51.67,0,.64a17.12,17.12,0,0,1,3.43.11l-.3-.31c.05,1.18,0,2.36,0,3.54C117.92,271.17,118.71,271.17,118.73,270.76Z"/><path class="cls-11" d="M122.66,269.71c1.14-.19,2.34.2,3.47-.1A2.63,2.63,0,0,0,128,268.2a1.62,1.62,0,0,0-.67-1.93,3.45,3.45,0,0,0-2.35-.52,4.87,4.87,0,0,0-4.1,3.19,4.68,4.68,0,0,0-.15,2.57,2.87,2.87,0,0,0,1.53,2.12,6.89,6.89,0,0,0,3.25.49,5.28,5.28,0,0,0,3-1.08.27.27,0,0,0,0-.45.45.45,0,0,0-.54,0,5.5,5.5,0,0,1-4.56.73,2.2,2.2,0,0,1-1.72-1.42,4.19,4.19,0,0,1-.17-2.19,4.13,4.13,0,0,1,2.83-3.17,3.3,3.3,0,0,1,2-.05,1.27,1.27,0,0,1,1,1.31,1.81,1.81,0,0,1-1.5,1.23,6.2,6.2,0,0,1-1.61,0,7.53,7.53,0,0,0-1.71,0c-.5.08-.28.7.22.61Z"/><path class="cls-11" d="M144.1,255.69c-.53,2.68-1.14,5.34-1.85,8a54.79,54.79,0,0,1-2.38,7.39,16,16,0,0,1-2.16,3.68c-.27.35.41.67.69.32a20.52,20.52,0,0,0,3.32-6.81c.84-2.6,1.55-5.24,2.18-7.88.35-1.5.68-3,1-4.52.08-.4-.68-.58-.76-.17Z"/><path class="cls-11" d="M141.69,265.74a3.18,3.18,0,0,0,2.7-.62,10.86,10.86,0,0,0,2-1.61,17.17,17.17,0,0,0,3-4.45c.47-1,.89-1.95,1.31-2.93.16-.39-.61-.56-.77-.17a28.4,28.4,0,0,1-3,5.74,11.63,11.63,0,0,1-2,2.17,8.58,8.58,0,0,1-1.24.87c-.42.24-1.06.64-1.61.46a.47.47,0,0,0-.55.11.29.29,0,0,0,.15.44Z"/><path class="cls-11" d="M142.91,265.84a1.8,1.8,0,0,1,1.78-.15,2.71,2.71,0,0,1,1.1,1.13,12.66,12.66,0,0,1,1.12,3.62,7.1,7.1,0,0,0,1.26,3.47,2.87,2.87,0,0,0,1.54,1,4,4,0,0,0,2.15-.2c1.41-.47,3.13-1.24,2.95-2.68-.05-.4-.84-.4-.79,0a1.47,1.47,0,0,1-.84,1.4,7.61,7.61,0,0,1-2,.8,2.29,2.29,0,0,1-1.92-.21,3.11,3.11,0,0,1-1-1.39,30.71,30.71,0,0,1-.91-3.73,6.87,6.87,0,0,0-1.39-3.08,2.75,2.75,0,0,0-1.58-.88,2.8,2.8,0,0,0-2,.48c-.38.27.18.72.56.45Z"/><path class="cls-11" d="M131.78,269.89c1.15-.19,2.35.2,3.48-.1a2.64,2.64,0,0,0,1.82-1.4,1.63,1.63,0,0,0-.67-1.94,3.51,3.51,0,0,0-2.35-.51,4.75,4.75,0,0,0-4.26,5.75,2.9,2.9,0,0,0,1.54,2.13,6.87,6.87,0,0,0,3.25.49,5.31,5.31,0,0,0,3-1.08.27.27,0,0,0,0-.45.48.48,0,0,0-.56,0,5.43,5.43,0,0,1-4.56.73,2.18,2.18,0,0,1-1.72-1.42,4,4,0,0,1-.17-2.19,4.11,4.11,0,0,1,2.83-3.17,3.3,3.3,0,0,1,2-.05,1.26,1.26,0,0,1,1,1.31,1.78,1.78,0,0,1-1.49,1.23,6.2,6.2,0,0,1-1.61,0,7.51,7.51,0,0,0-1.71,0c-.5.08-.29.7.21.62Z"/></g></g></svg>