<svg id="Layer_1" data-name="Layer 1" xmlns="http://www.w3.org/2000/svg" viewBox="0 0 1999.7 800.14"><defs><style>.cls-1{fill:#d2a470;}.cls-2{fill:#ff1056;}.cls-3{opacity:0.39;}.cls-4{fill:#454545;}.cls-5{fill:#ffb8e1;}.cls-6{fill:#b80005;}.cls-7{fill:#9500bb;}.cls-8{fill:#ffe500;}.cls-10,.cls-11,.cls-12,.cls-13,.cls-14,.cls-15,.cls-16,.cls-17,.cls-19,.cls-20,.cls-9{isolation:isolate;}.cls-10,.cls-11,.cls-12,.cls-13,.cls-14,.cls-15,.cls-16,.cls-17,.cls-19,.cls-20{font-size:72px;font-family:FranklinGothic-Book, Franklin Gothic Book;}.cls-10,.cls-12,.cls-14,.cls-16,.cls-19{fill:#fff;}.cls-11,.cls-13,.cls-15,.cls-17,.cls-20{fill:none;stroke:#4900cb;stroke-miterlimit:10;stroke-width:1.5px;}.cls-12,.cls-13{letter-spacing:0.02em;}.cls-14,.cls-15{letter-spacing:-0.01em;}.cls-16,.cls-17{letter-spacing:-0.02em;}.cls-18{letter-spacing:-0.01em;}.cls-19,.cls-20{letter-spacing:-0.04em;}.cls-21{letter-spacing:-0.01em;}.cls-22{fill:#0cb500;}.cls-23{fill:#290036;}.cls-24{fill:#000202;}.cls-25{fill:#ffa400;}.cls-26{fill:#0d7300;}.cls-27{fill:#ff7fa8;}</style></defs><g id="Capa_1" data-name="Capa 1"><rect class="cls-1" width="1999.7" height="800.14"/><circle class="cls-2" cx="325.2" cy="644.5" r="30.5"/><circle class="cls-2" cx="228.74" cy="648.08" r="30.5" transform="translate(-448.15 770.48) rotate(-80.78)"/><g class="cls-3"><ellipse class="cls-4" cx="554.75" cy="601.67" rx="485.95" ry="164.31"/></g><ellipse class="cls-5" cx="270.2" cy="558.5" rx="95.5" ry="88.5"/><ellipse class="cls-5" cx="165.24" cy="543.55" rx="27" ry="42" transform="translate(-399.03 473.55) rotate(-65.97)"/><ellipse class="cls-5" cx="372.83" cy="543.22" rx="42" ry="27" transform="translate(-189.43 199.32) rotate(-24.03)"/><path d="M228.88,582.37c3.86,0,3.87-6,0-6S225,582.37,228.88,582.37Z" transform="translate(-0.54 0.42)"/><path d="M315.67,580.44c3.86,0,3.87-6,0-6S311.8,580.44,315.67,580.44Z" transform="translate(-0.54 0.42)"/></g><g id="Capa_2" data-name="Capa 2"><path class="cls-6" d="M332.24,377,453.63,607.16s5.36,9,9.15,8,7.86-12.41,7.18-16.68S487.29,337.2,487.29,337.2" transform="translate(-0.54 0.42)"/><rect x="775.7" y="58" width="160" height="137"/><rect x="814.7" y="196" width="84" height="267"/><rect x="814.7" y="463" width="21" height="228"/><rect x="873.7" y="463" width="25" height="223"/><rect x="794.7" y="196" width="20" height="310"/><rect x="899.7" y="196" width="20" height="310"/><rect class="cls-7" x="804.7" y="103" width="26" height="37"/><rect class="cls-7" x="873.7" y="103" width="26" height="37"/><polygon class="cls-8" points="690.34 449.71 630.54 413.53 566.83 442.28 582.76 374.23 535.73 322.52 605.38 316.64 640.02 255.93 667.13 320.36 735.57 334.54 682.68 380.24 690.34 449.71"/><polygon class="cls-8" points="271.84 228.78 251.9 204.35 220.47 206.92 237.54 180.41 225.38 151.31 255.88 159.36 279.79 138.8 281.56 170.29 308.51 186.68 279.11 198.09 271.84 228.78"/><polygon class="cls-8" points="249.13 415.43 227.57 403.16 205.25 413.96 210.26 389.67 193.09 371.78 217.73 369.03 229.45 347.18 239.67 369.77 264.08 374.15 245.75 390.86 249.13 415.43"/><polygon class="cls-8" points="472.27 301.21 440.72 265.9 393.74 271.87 417.58 230.95 397.38 188.12 443.66 198.14 478.16 165.7 482.93 212.81 524.44 235.59 481.11 254.69 472.27 301.21"/><g class="cls-9"><text class="cls-10" transform="translate(1150.61 113.84)">BurgerGee</text><text class="cls-11" transform="translate(1150.61 113.84)">BurgerGee</text><text class="cls-12" transform="translate(1477.74 113.84)">k</text><text class="cls-13" transform="translate(1477.74 113.84)">k</text><text class="cls-10" transform="translate(1517.36 113.84)">, combie</text><text class="cls-11" transform="translate(1517.36 113.84)">, combie</text><text class="cls-12" transform="translate(1781.1 113.84)">r</text><text class="cls-13" transform="translate(1781.1 113.84)">r</text><text class="cls-14" transform="translate(1806.41 113.84)">t</text><text class="cls-15" transform="translate(1806.41 113.84)">t</text><text class="cls-10" transform="translate(1828.6 113.84)">e </text><text class="cls-11" transform="translate(1828.6 113.84)">e </text><text class="cls-16" transform="translate(1129.18 200.24)">t</text><text class="cls-17" transform="translate(1129.18 200.24)">t</text><text class="cls-10" transform="translate(1151.08 200.24)">odo eso <tspan class="cls-18" x="257.87" y="0">q</tspan><tspan x="295.73" y="0">ue </tspan></text><text class="cls-11" transform="translate(1151.08 200.24)">odo eso <tspan class="cls-18" x="257.87" y="0">q</tspan><tspan x="295.73" y="0">ue </tspan></text><text class="cls-14" transform="translate(1544.13 200.24)">t</text><text class="cls-15" transform="translate(1544.13 200.24)">t</text><text class="cls-10" transform="translate(1566.32 200.24)">e gusta en </text><text class="cls-11" transform="translate(1566.32 200.24)">e gusta en </text><text class="cls-10" transform="translate(1101.78 286.64)">una deliciosa comida para </text><text class="cls-11" transform="translate(1101.78 286.64)">una deliciosa comida para </text><text class="cls-10" transform="translate(1190.23 373.04)">disfruita</text><text class="cls-11" transform="translate(1190.23 373.04)">disfruita</text><text class="cls-19" transform="translate(1444.52 373.04)">r</text><text class="cls-20" transform="translate(1444.52 373.04)">r</text><text class="cls-10" transform="translate(1465.72 373.04)">, </text><text class="cls-11" transform="translate(1465.72 373.04)">, </text><text class="cls-14" transform="translate(1501.05 373.04)">y</text><text class="cls-15" transform="translate(1501.05 373.04)">y</text><text class="cls-10" transform="translate(1531.84 373.04)">a sea con </text><text class="cls-11" transform="translate(1531.84 373.04)">a sea con </text><text class="cls-10" transform="translate(1176.82 459.44)">amigos o con <tspan class="cls-21" x="420.75" y="0">f</tspan><tspan x="441.7" y="0">amilia, </tspan></text><text class="cls-11" transform="translate(1176.82 459.44)">amigos o con <tspan class="cls-21" x="420.75" y="0">f</tspan><tspan x="441.7" y="0">amilia, </tspan></text><text class="cls-10" transform="translate(1107.1 545.84)">puedes disfrutar desde un </text><text class="cls-11" transform="translate(1107.1 545.84)">puedes disfrutar desde un </text><text class="cls-10" transform="translate(1183.31 632.24)">combo a una comida </text><text class="cls-11" transform="translate(1183.31 632.24)">combo a una comida </text><text class="cls-10" transform="translate(1351.44 718.64)">individual.</text><text class="cls-11" transform="translate(1351.44 718.64)">individual.</text></g><rect class="cls-22" x="470.7" y="575" width="187" height="100"/><rect class="cls-22" x="503.7" y="284" width="123" height="291"/><rect class="cls-22" x="466.7" y="106" width="193" height="181"/><rect x="492.7" y="166" width="32" height="32"/><rect x="601.7" y="164" width="32" height="32"/><polygon points="546.96 201 578.23 201 578.23 230.4 610.7 230.4 610.7 271 575.83 271 575.83 245.8 546.96 245.8 546.96 268.2 515.7 268.2 515.7 233.2 545.76 233.2 546.96 201"/><path class="cls-23" d="M468.42,544.87c-1.77,2.79-2.08,10.36-2.29,15.09a84.48,84.48,0,0,0,1.56,18.44c2.81,13.4,55.7,53.63,152,59.4,84,5,111.5-7.66,178.7-41,2.52-1.26,9.81-2.5,12.21-8.38,1.56-3.71,0-6.24-.76-18.44-.56-8.71,0-9.65-.77-10.88-5.42-7.74-41.49,17.07-54.22,20.92-63.61,19.26-139.89,15.84-162.7,10.06C530.72,574.41,475.9,533.07,468.42,544.87Z" transform="translate(-0.54 0.42)"/><path class="cls-24" d="M474.7,630.29c6.89-7.81,36.34,9.72,61.1,20.25,62,26.33,139.57,27.74,197,9.75,35.53-11.13,68.84-31.38,74.79-23.25,2.88,3.89-1.37,13.13-5.34,21.79a74.66,74.66,0,0,1-13.75,20.25c-16.76,17.67-40.43,25.38-48.09,27.74-46.15,14.3-90.5,14.15-110,13.51-24.68-.82-60-4.12-95.28-17-7.79-2.85-28.8-11-44.45-28.69a68.43,68.43,0,0,1-12.24-19.51C475.93,648.68,470.42,635.15,474.7,630.29Z" transform="translate(-0.54 0.42)"/><path class="cls-23" d="M470.89,598c-1.76,2.5-2.09,9.3-2.29,13.51A68.17,68.17,0,0,0,470.15,628c2.82,11.94,55.72,48.11,152,53.24,84,4.49,111.48-6.86,178.68-36.74,2.54-1.13,9.83-2.25,12.21-7.5,1.56-3.35,0-5.6-.76-16.51-.55-7.81.09-8.65-.76-9.73-5.41-6.94-41.5,15.28-54.21,18.73-63.62,17.27-139.84,14.22-162.65,9C533.24,624.52,478.38,587.46,470.89,598Z" transform="translate(-0.54 0.42)"/><path class="cls-25" d="M471.09,591.67c0,14,6.39,46.08,12.88,47.54,5.79,1.29.83-29.07,11.6-24.53C520,625,567.38,636.79,603.08,639.83c95.37,8,194.18-4.55,207.33-35,.72-1.68,3.12-7.26.78-9.76-6-6.32-34,17.47-61.89,21.51-48.72,7-83.53,11.73-138.84,5.5-75.11-8.57-104.3-25.87-116.37-25.87C490.1,596.18,470.45,588.58,471.09,591.67Z" transform="translate(-0.54 0.42)"/><path class="cls-26" d="M813.24,549.72c0,7.89-28.22,29.26-78.19,44.35-24.93,7.51-60.76,12-93.67,12-8.21,0-41.43-5.18-72.09-13.33-49.86-13.24-105.83-37.19-105.83-43,0-10.8,28.42.63,73,10.26,33.47,7.24,72.19,19.81,101.93,19.89,46.31.12,88.81-10.14,96.71-11.4C788.24,560,813.24,538,813.24,549.72Z" transform="translate(-0.54 0.42)"/><path class="cls-24" d="M500.35,434.67a106.22,106.22,0,0,0-22.9,23.8c-1.64,2.43-27.6,42-14.51,73.75,12.29,29.75,52.71,37,94.69,44.52,20.13,3.6,46.5,3.43,99.26,3.06,57.54-.38,75-2.58,93.16-6.9,28.64-6.81,57.28-14,69.49-38.39,8.09-16.12,5.47-32.75,4.58-38.36-4.34-27.54-23.6-45-33.59-53.74-65.22-57.3-173.29-42.5-214.58-36.83C555.51,408.25,526.73,414.05,500.35,434.67Z" transform="translate(-0.54 0.42)"/><path class="cls-27" d="M373.67,155.58c-4.33,5.42-1.3,7.69-4.83,19.06-2.94,9.41-5.59,9.68-5.52,14.77.14,8.28,7.19,10.91,4.4,15.21-2.15,3.28-6.57,2.18-12.78,6.26-8.05,5.62-12.66,14.84-11.93,23.84.51,4.54,2.49,5.2,1.37,8.55-1.77,5.3-7.74,6.79-13.76,12.45-7.33,6.86-11,16.3-10,23.35,1.24,9.24,9.9,9.91,8.63,17.09-1,5.88-7.39,8.42-15.21,15.7-12.74,12-20.49,28.49-18.88,42,.32,2.58,1.95,16.19,15.23,21.34a36.85,36.85,0,0,0,16,1.82c34.44-2.54,81.29-19.37,123.34-28.67,34-7.53,49.39-6.73,65.69-19.83,4-3.14,17-12.57,17.84-23.88.88-11.79-11.51-23.55-25.57-24.61-3.8-.28-9.88,0-10.13-1.85s4.6-3,6.87-6.22c4.27-6.11-2.24-16.94-13.31-21.82-10-4.37-18.76-1.79-20.74-6.56-1.59-3.83,3.8-6.17,3.86-12.87s-5.62-12.55-12.19-14.69a29.44,29.44,0,0,0-9-1.2c-4.26.21-5.33,1.3-6.77.82-4.68-1.54,4.24-13.3-1.06-19-4.45-4.77-14.18-.39-18.62-5.61-3.5-4.14,1.49-8.17-2.05-12.85-2.58-3.27-5.93-2.49-16.72-6.1-10.11-3.37-15.16-5.06-17.17-9-3.57-7,4.73-14.85,1.28-16.66C388.8,144.86,378.67,149.23,373.67,155.58Z" transform="translate(-0.54 0.42)"/></g></svg>