<svg id="Capa_1" data-name="Capa 1" xmlns="http://www.w3.org/2000/svg" viewBox="0 0 1999.7 800.14"><defs><style>.cls-1{fill:#d2a470;}.cls-2{opacity:0.39;}.cls-3{fill:#454545;}.cls-4{fill:#0075f6;}.cls-5{fill:#bad3ff;}.cls-6{fill:#442cff;}.cls-10,.cls-11,.cls-12,.cls-13,.cls-14,.cls-15,.cls-16,.cls-20,.cls-21,.cls-22,.cls-23,.cls-24,.cls-29,.cls-39,.cls-42,.cls-44,.cls-47,.cls-7,.cls-8,.cls-9{fill:none;}.cls-7{stroke:#0000b4;}.cls-10,.cls-11,.cls-12,.cls-13,.cls-14,.cls-15,.cls-16,.cls-20,.cls-21,.cls-22,.cls-23,.cls-24,.cls-25,.cls-29,.cls-39,.cls-42,.cls-44,.cls-47,.cls-7,.cls-8,.cls-9{stroke-miterlimit:10;}.cls-8{stroke:#0000a6;}.cls-9{stroke:#100094;}.cls-10{stroke:#1700a9;}.cls-11{stroke:#0004a9;}.cls-12{stroke:#06006a;}.cls-13{stroke:#08009d;}.cls-14{stroke:#0600de;}.cls-15{stroke:#00089d;}.cls-16{stroke:#040097;}.cls-17{fill:#0e8d38;}.cls-18{fill:#bbd68b;}.cls-19{fill:#5cb130;}.cls-20{stroke:#19381d;}.cls-21{stroke:#17371d;}.cls-22{stroke:#005304;}.cls-23{stroke:#002f09;}.cls-24{stroke:#002602;}.cls-25{fill:#eed088;stroke:#eeb34f;}.cls-25,.cls-29,.cls-39{stroke-width:2px;}.cls-26{fill:#f77900;}.cls-27{fill:#ff134a;}.cls-28{fill:#29255b;}.cls-29{stroke:#fff;}.cls-30{fill:#c71439;opacity:0.57;}.cls-30,.cls-38,.cls-39,.cls-40,.cls-41,.cls-42,.cls-43,.cls-44,.cls-45,.cls-46,.cls-47{isolation:isolate;}.cls-31{fill:#60321b;}.cls-32{fill:#812e0f;}.cls-33{fill:#ffa400;}.cls-34{fill:#0d7300;}.cls-35{fill:#d88000;}.cls-36{fill:#f7a800;}.cls-37{fill:#4d4900;}.cls-38,.cls-39{font-size:114.31px;font-family:FranklinGothic-Medium, Franklin Gothic Medium;font-weight:500;}.cls-38{fill:#ffd300;}.cls-39,.cls-42,.cls-44,.cls-47{stroke:#000;}.cls-40{font-size:25.72px;font-family:ComicSansMS, Comic Sans MS;}.cls-41,.cls-42,.cls-43,.cls-44{font-size:51.44px;}.cls-41,.cls-43,.cls-46{fill:#fc0;}.cls-41,.cls-42,.cls-43,.cls-44,.cls-46,.cls-47{font-family:Impact;}.cls-42,.cls-44,.cls-47{stroke-width:1.5px;}.cls-43,.cls-44{letter-spacing:-0.02em;}.cls-46,.cls-47{font-size:142.88px;}</style></defs><g id="Capa_1-2" data-name="Capa 1"><g id="Capa_3" data-name="Capa 3"><rect class="cls-1" width="1999.7" height="800.14"/><g class="cls-2"><ellipse class="cls-3" cx="1002.97" cy="568.67" rx="757.18" ry="164.31"/></g></g><g id="Capa_5" data-name="Capa 5"><path class="cls-4" d="M1222.2,285.51l65.68,245.83s3.33,9.83,8.33,10.23,14-8.43,14.58-12.48,114.3-227.18,114.3-227.18" transform="translate(-0.3)"/><path class="cls-5" d="M1351.56,101.9c-7.21,3.39-4.32,6.42-12.69,15.38-6.92,7.41-10.23,6.77-12,11.33-2.81,7.43,4.88,12.13,0,15-3.77,2.21-8.77-.26-17.79,1.29-11.76,2.34-20.62,9-22.91,17.27-1,4.29,1.17,5.47-1.39,8.09-4,4.13-11.86,3.47-21.19,6.48-11.29,3.66-19.2,10.86-20.56,17.48-1.77,8.66,8.52,12.14,4.42,18.13-3.36,4.9-12,5-24.12,9-19.79,6.45-35.1,18.58-37.94,31.11-.54,2.4-3.41,15.09,10.9,24.12a59.32,59.32,0,0,0,18.87,7c42.85,9.32,105.86,9.92,160.39,15.72,44,4.64,62.49,10.56,87,4.29,5.94-1.52,25.19-5.52,30.23-15.32,5.27-10.23-5.63-24.86-22.35-30.5-4.52-1.53-12-3.28-11.69-5.05s6.69-1.11,10.58-3.24c7.38-4,3.34-15.86-8.33-23.92-10.56-7.23-22.18-7.87-22.91-12.77-.57-4,6.83-4.29,9.29-10.19s-2.27-13.09-9.61-17.15a46.94,46.94,0,0,0-10.56-4.1c-5.27-1.24-6.93-.63-8.54-1.54-5.14-2.86,9.92-10.45,5.48-17.32-3.68-5.71-17.12-5.1-20.64-11.24-2.79-4.85,4.73-6.76,2.08-12.13-1.87-3.8-6.25-4.2-18.18-11-11.1-6.41-16.67-9.62-17.71-13.74-1.85-7.41,11.06-11.65,7.5-14.43C1373.82,97.39,1360,98,1351.56,101.9Z" transform="translate(-0.3)"/><path class="cls-6" d="M1290.59,194c-2.44,1.1,8.12,16.44,33.18,25.9,19.58,7.4,59.8,15.72,80,16,2.33,0,8.66,0,12.14,2.34,4.17,2.78-.1,6,3.56,8.49s10.57.53,24.75,2c13.73,1.43,16.66,4.39,22,3.15,7.43-1.72,9.14-9.16,7.5-14.42-3.19-10.15-20.08-16.1-22.19-16.83-15.49-5.3-24.58-2.15-62.09-3.65-23.87-1-39.29-1.58-56.68-5.94C1305.42,204.21,1292.84,193,1290.59,194Z" transform="translate(-0.3)"/><path class="cls-6" d="M1333.1,151c-3,1.13,1.31,9.64,12.5,14.67,7.54,3.39,21.14,6.56,27.08,3.56,7-3.63-1.52-14-2.65-13.89s2.9,6.7-1.37,8.09C1361.1,165.86,1337.89,149.18,1333.1,151Z" transform="translate(-0.3)"/><path class="cls-6" d="M1318.27,193.51c-.21.34,13.54,3.24,26.52,6.24,26,6,33.66,8.92,48.55,9.39,7.48.24,17.42.55,20.5-2.45,4.31-4.21-6.06-13.9-17.48-15.07-8.64-.9-11.58,3.71-23.66,6.29C1348.18,203.12,1318.58,193,1318.27,193.51Z" transform="translate(-0.3)"/><path class="cls-6" d="M1343.85,248.87c-19.21-2.3-26.21-5.71-60-15.71-22.37-6.65-46.39-13.19-44.93-15.94.45-.82,2.91-.62,5.41-2.3,4.17-2.68,1.75-5.91,3.65-6.53,3.89-1.28,20.83,10.39,27.6,14.52,37.1,23,96.65,24.29,95.82,26.86C1370.93,251,1356.64,250.4,1343.85,248.87Z" transform="translate(-0.3)"/><path class="cls-7" d="M1233.66,291.91c15.09,13.53,33.45,25.18,54.28,34.45,41.33,18.66,83.7,25.13,105.63,27.66" transform="translate(-0.3)"/><path class="cls-8" d="M1236.66,325.63c3.75,6.37,17.79,27.6,57.84,42.86a241.86,241.86,0,0,0,80.26,14.68" transform="translate(-0.3)"/><path class="cls-9" d="M1255.07,379a168,168,0,0,0,36.58,20.72,266.35,266.35,0,0,0,69.68,17.93" transform="translate(-0.3)"/><path class="cls-10" d="M1256.36,416c11.09,9.55,25.21,17.24,41.29,22.48a197.69,197.69,0,0,0,46.07,9.18" transform="translate(-0.3)"/><path class="cls-11" d="M1345,478.66c7.9,7.12,18.81,12.4,31.25,15.11a122.1,122.1,0,0,0,35.16,2.75" transform="translate(-0.3)"/><path class="cls-12" d="M1311.48,298.87a276.93,276.93,0,0,1-31.62,23.42,355.44,355.44,0,0,1-41.49,22.6" transform="translate(-0.3)"/><path class="cls-13" d="M1361.89,297.47a228,228,0,0,1-28.06,31.9c-11.54,11-19.79,18.79-34.77,27.26A213.75,213.75,0,0,1,1250.59,376" transform="translate(-0.3)"/><path class="cls-14" d="M1412,312.45a376.59,376.59,0,0,1-37.49,31.78c-34.81,25.55-74.65,47.64-118.36,65.64" transform="translate(-0.3)"/><path class="cls-15" d="M1385.34,380.07a214.13,214.13,0,0,1-37.32,27A338.35,338.35,0,0,1,1269.78,439" transform="translate(-0.3)"/><path class="cls-16" d="M1354.68,441.75c-9.83,8.84-22.19,16.22-36.33,21.66a200.6,200.6,0,0,1-44.59,11.43" transform="translate(-0.3)"/><path class="cls-12" d="M1418.84,496.24c-3.4,5.59-10,13.34-23.56,17.15-14.25,4.09-28.73,1.73-29.62,3.86s15.12,6.7,30.62,8.34a142,142,0,0,0,15,.79" transform="translate(-0.3)"/><path class="cls-17" d="M1386.51,288l-58.33,246.7s-1.66,10,2.8,11.55,17.31-4.73,19.93-8.38,218.72-187.76,218.72-187.76" transform="translate(-0.3)"/><path class="cls-18" d="M1598.12,144.73c-8.43,1.52-7.2,5.05-19.45,11.57-10.17,5.39-13,4-16.83,7.91-6.25,6.36-1.36,12.55-7.42,14.15-4.64,1.21-8.14-2.26-17.39-2.86-12.26-.52-23.91,3.72-30.14,11-3,3.74-1.57,5.43-5.25,7.3-5.83,2.95-12.85.54-23.14,1.24-12.5.84-23.4,5.82-27.9,11.73-5.91,7.74,2.09,13.4-4.7,18.09-5.57,3.84-13.77,2-27.08,2.86-21.79,1.51-42.14,9.4-51,20.57-1.69,2.15-10.59,13.43-1.5,25.24a42.78,42.78,0,0,0,14.35,10.91c35.83,18.58,94.88,33.69,143.41,51.67,39.21,14.5,53.77,24.29,79.91,24.06,6.35,0,26.43.6,36-7.49,10-8.41,6.86-24.7-6.14-33.88-3.52-2.47-9.75-5.84-8.54-7.43s6.83.48,11.56-.62c8.91-2.09,10.87-14.18,3.75-24.47-6.42-9.24-17.06-12.51-15.33-17.31,1.39-3.85,8.5-2.42,13.72-7.46s4.17-12.86-.64-18.39a33.08,33.08,0,0,0-8-6.29c-4.35-2.38-6.25-2.18-7.29-3.41-3.42-4,14.44-7.56,13.64-15.06-.68-6.26-13.64-8.73-14-15.33-.25-5.22,7.77-5.3,7.89-11,0-4-3.89-5.42-11.73-14.58-7.33-8.57-11-12.86-10-17,1.87-7.41,16.12-8.44,14.12-11.87C1621.29,145.6,1608,142.88,1598.12,144.73Z" transform="translate(-0.3)"/><path class="cls-19" d="M1495.66,217.48c-2.83.46-.4,17.36,18.6,32,14.81,11.43,48.68,28.57,67.55,33.5,2.09.59,8.13,2,10.29,5,2.61,3.57-3,5.62-.79,8.82s9.69,2.93,22.33,7.57c12.23,4.52,13.58,8,19.23,8,7.83.1,13.08-6.53,14.1-11.86,2-10.29-11-19.79-12.69-21-12-8.57-22.1-7.66-56.7-17.72-22-6.38-36.24-10.51-50.49-18.57C1504.64,230.5,1498.26,217.05,1495.66,217.48Z" transform="translate(-0.3)"/><path class="cls-19" d="M1556.73,186.7c-3.39.38-3.48,9.39,4.63,16.72,5.43,4.92,16.66,11,23.7,9.55,8.33-1.79,5.38-13.49,4.29-13.68s-.54,7-5.25,7.3C1575.83,207.18,1562.13,186.13,1556.73,186.7Z" transform="translate(-0.3)"/><path class="cls-19" d="M1522,223.37c-.36.28,11.18,6.17,22,12,21.58,11.65,27.35,16.13,41.14,20,6.92,1.94,16.15,4.53,20.5,2.41,6.12-3,1.08-14.48-9.08-18.23-7.71-2.86-12.73.85-25.37.49C1545.46,239.31,1522.53,222.9,1522,223.37Z" transform="translate(-0.3)"/><path class="cls-19" d="M1519.05,281.48c-17-6.57-21.89-11.43-48.82-28.66-17.83-11.43-37.27-23.09-34.54-25.34.83-.68,3,0,6.25-.93,5.12-1.6,4.54-5.17,6.6-5.31,4.31-.32,14.58,14.6,18.92,20,23.74,30.15,79.15,45.15,77.07,47.32C1543.46,289.61,1530.32,285.76,1519.05,281.48Z" transform="translate(-0.3)"/><path class="cls-20" d="M1394.15,296.61c7.63,16.19,19.23,31.37,34.31,44.88,29.89,27.15,66.66,43,86,50.36" transform="translate(-0.3)"/><path class="cls-20" d="M1380.49,329.07c.44,6.86,3.29,30.09,33.52,53.75,18.74,14.35,42.21,25.42,68.44,32.3" transform="translate(-0.3)"/><path class="cls-21" d="M1371.74,383.64a116.08,116.08,0,0,0,24.33,27.93c15.85,13.26,35.14,24.4,56.89,32.87" transform="translate(-0.3)"/><path class="cls-22" d="M1354.76,418.76c5.8,11.54,15.35,22,27.94,30.66a154.88,154.88,0,0,0,38.91,19.23" transform="translate(-0.3)"/><path class="cls-23" d="M1423.27,472.28c4,8.52,11.63,16,22,21.44A104.86,104.86,0,0,0,1477,504.37" transform="translate(-0.3)"/><path class="cls-20" d="M1464.08,321.07a378.47,378.47,0,0,1-41.24,14.79,460.72,460.72,0,0,1-50.16,11.76" transform="translate(-0.3)"/><path class="cls-20" d="M1512.24,331.36a332.43,332.43,0,0,1-42,23.59c-16.25,7.67-27.83,13.14-46.1,17.69a257.68,257.68,0,0,1-55.1,7" transform="translate(-0.3)"/><path class="cls-20" d="M1552.15,357a535.07,535.07,0,0,1-51,21.29,726.18,726.18,0,0,1-143.58,34.65" transform="translate(-0.3)"/><path class="cls-21" d="M1494,414.5a292.09,292.09,0,0,1-48.32,16.92,408.65,408.65,0,0,1-89.34,12.1" transform="translate(-0.3)"/><path class="cls-23" d="M1434.94,465.62a154,154,0,0,1-44.83,12.05,220.73,220.73,0,0,1-47.59.51" transform="translate(-0.3)"/><path class="cls-24" d="M1484.2,505.8a53,53,0,0,1-30.6,10.8c-15.43.56-27.91-5-29.8-3.18s11,9.79,24.76,14.9a124.65,124.65,0,0,0,13.79,4.2" transform="translate(-0.3)"/><rect class="cls-25" x="774.42" y="236.9" width="19.73" height="93.54"/><rect class="cls-25" x="860.7" y="200.61" width="14.79" height="113.71"/><rect class="cls-25" x="812.63" y="181.25" width="16.02" height="153.21"/><rect class="cls-25" x="725.14" y="195.76" width="19.73" height="138.7"/><rect class="cls-25" x="753.47" y="217.54" width="14.79" height="112.89"/><rect class="cls-25" x="688.17" y="213.51" width="23.41" height="106.45"/><rect class="cls-25" x="739.93" y="220.77" width="19.73" height="93.54"/><rect class="cls-25" x="826.19" y="184.48" width="14.79" height="113.71"/><rect class="cls-25" x="778.13" y="165.11" width="16.02" height="153.21"/><rect class="cls-25" x="690.62" y="179.63" width="19.73" height="138.7"/><rect class="cls-25" x="718.97" y="201.41" width="14.79" height="112.89"/><rect class="cls-25" x="653.65" y="197.38" width="23.41" height="106.45"/><rect class="cls-25" x="723.89" y="241.73" width="19.73" height="93.54"/><rect class="cls-25" x="810.17" y="205.44" width="14.79" height="113.71"/><rect class="cls-25" x="762.11" y="186.09" width="16.02" height="153.21"/><rect class="cls-25" x="674.61" y="200.61" width="19.73" height="138.7"/><rect class="cls-25" x="702.96" y="222.38" width="14.79" height="112.89"/><rect class="cls-25" x="637.63" y="218.34" width="23.41" height="106.45"/><rect class="cls-25" x="873.03" y="220.77" width="19.73" height="93.54"/><rect class="cls-25" x="889.05" y="215.92" width="14.79" height="113.71"/><rect class="cls-25" x="840.98" y="196.58" width="16.02" height="153.21"/><rect class="cls-25" x="821.27" y="211.08" width="19.73" height="138.7"/><rect class="cls-25" x="792.92" y="211.08" width="14.79" height="112.89"/><rect class="cls-25" x="716.5" y="228.83" width="23.41" height="106.45"/><path class="cls-26" d="M621.52,263.76l33.33,215.31s23.41-8.87,30.81-8.87,71.49.81,83.8,4.84,48.07,8.06,57.93,16.13,54.15,1.6,54.15,1.6l35.77-217.72s-28.35-6.46-37,0-25.88,20.16-41.89,25-69,15.32-74,15.32c-7.5,0-62.87-7.26-75.2-10.49-13-3.41-34.49-17.73-41.89-26.6s-6.25-14.52-6.25-14.52S624,260.53,621.52,263.76Z" transform="translate(-0.3)"/><rect class="cls-27" x="1159.97" y="55.72" width="17.68" height="425.53"/><path class="cls-28" d="M1038,211.15l38.6,289.21s56.24,14,85.26,14,99.73-7.65,101.34-11.43,38.59-291.77,38.59-291.77L1157,218.82C1132.92,220,1038,211.15,1038,211.15Z" transform="translate(-0.3)"/><path class="cls-29" d="M1046,272.3a487.78,487.78,0,0,0,109.38,14c59.53.87,107.58-4.13,138.33-12.74" transform="translate(-0.3)"/><path class="cls-29" d="M1049.27,295.24c21.06,8.48,65.7,19.86,120.65,20.39,58.51.55,99.38-11.82,120.65-20.39" transform="translate(-0.3)"/><path class="cls-29" d="M1067,427.75a368.5,368.5,0,0,0,90.2,12.73c49.1.78,88.71-3.75,114.09-11.58" transform="translate(-0.3)"/><path class="cls-29" d="M1069.62,448.65c17.35,7.72,54.16,18.05,99.48,18.57,48.27.52,82-10.73,99.51-18.57" transform="translate(-0.3)"/><path class="cls-30" d="M1025.15,204.78a811.89,811.89,0,0,0,133.5,14,819,819,0,0,0,156-11.44V185.75s-91.66,12.74-104.55,14-175.35-14-180.16-14S1025.15,204.78,1025.15,204.78Z" transform="translate(-0.3)"/><path class="cls-30" d="M1031.58,185.75c-8.83-1.43,8.88-15.16,16.08-25.48,10.68-15.2,26.72-28.34,46.66-38.22A165.85,165.85,0,0,1,1141,108a147.34,147.34,0,0,1,37-2.55c10.16.68,17.29,2.34,29,5.1,18.27,4.28,29.16,6.88,41.83,12.74a121.29,121.29,0,0,1,40.2,29.31c7.9,8.41,24.64,26.27,17.71,34.39-4.48,5.23-16.94,3.27-22.52,3.83-38.62,3.81-32.18,10.19-101.34,8.91-66-1.21-82-6.37-120.65-10.2C1054.16,188.7,1039.73,187,1031.58,185.75Z" transform="translate(-0.3)"/><rect class="cls-27" x="954.61" y="50.49" width="17.68" height="425.53"/><path class="cls-28" d="M832.66,205.92l38.61,289.21s56.25,14,85.24,14,99.74-7.65,101.34-11.43S1096.47,206,1096.47,206L951.7,213.61C927.56,214.84,832.66,205.92,832.66,205.92Z" transform="translate(-0.3)"/><path class="cls-29" d="M840.7,267.08a488,488,0,0,0,109.46,14c59.53.87,107.59-4.13,138.35-12.74" transform="translate(-0.3)"/><path class="cls-29" d="M843.92,290.05c21,8.49,65.7,19.86,120.63,20.39,58.53.56,99.38-11.82,120.65-20.39" transform="translate(-0.3)"/><path class="cls-29" d="M861.61,422.52a368.58,368.58,0,0,0,90.21,12.73c49.1.78,88.72-3.76,114.07-11.58" transform="translate(-0.3)"/><path class="cls-30" d="M819.78,205.26a812.24,812.24,0,0,0,133.52,14,818.7,818.7,0,0,0,156-11.43V186.16s-91.65,12.75-104.54,14-175.33-14-180.17-14S819.78,205.26,819.78,205.26Z" transform="translate(-0.3)"/><path class="cls-30" d="M826.22,186.16c-8.83-1.43,8.87-15.16,16.1-25.47C853,145.48,869,132.34,889,122.46a166.27,166.27,0,0,1,46.62-14,147.42,147.42,0,0,1,37-2.56c10.15.69,17.27,2.34,29,5.1,18.24,4.29,29,6.89,41.8,12.75a122.55,122.55,0,0,1,40.23,29.3c7.87,8.42,24.62,26.28,17.68,34.39-4.46,5.23-16.93,3.27-22.52,3.83-38.6,3.82-32.16,10.19-101.34,8.92-66-1.22-82-6.37-120.62-10.2C848.8,189.19,834.26,187.43,826.22,186.16Z" transform="translate(-0.3)"/><path class="cls-31" d="M1056.52,540.09c-2.46,2.36-2.92,8.82-3.21,12.86a44.53,44.53,0,0,0,2.08,15.64c3.92,11.31,77.68,45.59,211.89,50.46,117.08,4.29,155.47-6.5,249.17-34.83,3.54-1.06,13.68-2.13,17-7.15,2.08-3.14,0-5.3-1.07-15.63-.77-7.41.13-8.21-1.06-9.24-7.56-6.58-57.86,14.49-75.61,17.77-88.7,16.36-195,13.46-226.8,8.57C1143.38,565.18,1067,530.09,1056.52,540.09Z" transform="translate(-0.3)"/><path class="cls-32" d="M1059.18,610.48c9.61-6.65,50.66,8.26,85.2,17.14,86.44,22.38,194.62,23.57,274.71,8.28,49.51-9.45,96-26.65,104.36-19.75,4,3.32-1.94,11.16-7.46,18.48a74.33,74.33,0,0,1-19.16,17.14c-23.4,15-56.39,21.56-67.1,23.58-64.34,12.14-126.17,12-153.33,11.43-34.41-.7-83.67-3.5-132.85-14.48-10.9-2.43-40.14-9.36-62-24.39a63.74,63.74,0,0,1-17-16.37C1060.89,626.1,1053.21,614.61,1059.18,610.48Z" transform="translate(-0.3)"/><path class="cls-31" d="M1053.87,583.07c-2.48,2.12-2.91,7.91-3.21,11.43a36.54,36.54,0,0,0,2.09,14c3.91,10.15,77.69,40.88,211.9,45.24,117.09,3.8,155.46-5.83,249.17-31.22,3.54-1,13.69-1.92,17-6.37,2.09-2.86,0-4.75-1.06-14-.77-6.63.1-7.36-1.08-8.29-7.54-5.89-57.85,13-75.6,15.93-88.69,14.68-195,12.08-226.8,7.65C1140.73,605.58,1064.31,574.09,1053.87,583.07Z" transform="translate(-0.3)"/><path class="cls-33" d="M1054.14,577.66c0,11.94,8.9,39.15,18,40.39,8.06,1.1,1.14-24.69,16.16-20.83,34.14,8.8,100.15,18.77,150,21.33,133,6.8,270.79-3.86,289.12-29.73,1-1.43,4.38-6.17,1.09-8.29-8.34-5.37-47.43,14.85-86.28,18.26-68,6-116.48,10-193.72,4.67-104.57-7.27-145.36-21.93-162.21-21.93C1080.64,581.53,1053.25,575.06,1054.14,577.66Z" transform="translate(-0.3)"/><path class="cls-34" d="M1531.32,534.69c0,9-39.35,33.24-109,50.36-34.73,8.53-84.72,13.63-130.55,13.63-11.45,0-57.8-5.9-100.54-15.15-69.58-15-147.56-42.22-147.56-48.84,0-12.24,39.57.72,101.71,11.65,46.68,8.21,100.67,22.5,142.14,22.59,64.58.13,123.94-11.52,134.88-12.95C1496.33,546.34,1531.32,521.43,1531.32,534.69Z" transform="translate(-0.3)"/><path class="cls-32" d="M1086.62,448.51a134.07,134.07,0,0,0-32,20.22c-2.29,2.07-38.47,35.72-20.22,62.61,17.16,25.27,73.51,31.43,132,37.82,28.06,3.07,64.84,2.85,138.42,2.61,80.23-.33,104.54-2.2,129.91-5.87,39.94-5.72,79.87-11.93,96.89-32.61,11.29-13.7,7.62-27.83,6.39-32.6-6.06-23.41-32.93-38.21-46.85-45.65-90.94-48.71-241.63-36.12-299.2-31.31C1163.52,426.1,1123.38,431,1086.62,448.51Z" transform="translate(-0.3)"/><path class="cls-31" d="M593.71,535.45c-2.37,2.37-2.79,8.83-3.06,12.86A46.93,46.93,0,0,0,592.73,564c3.75,11.43,74.47,45.72,203.14,50.63,112.25,4.29,149.06-6.52,238.9-34.94,3.38-1.08,13.12-2.13,16.33-7.15,2.08-3.16,0-5.31-1-15.72-.75-7.43,0-8.23-1-9.27-7.25-6.6-55.47,14.55-72.49,17.83-85.05,16.42-187,13.51-217.45,8.58C677,560.63,603.71,525.39,593.71,535.45Z" transform="translate(-0.3)"/><path class="cls-35" d="M602.11,608.26c9.2-6.65,48.57,8.29,81.67,17.26,82.89,22.45,186.6,23.65,263.38,8.32,47.49-9.49,92-26.75,100-19.82,3.86,3.32-1.83,11.19-7.14,18.58a72.07,72.07,0,0,1-18.37,17.26c-22.42,15.06-54.06,21.63-64.31,23.64-61.7,12.19-121,12.06-147,11.52-33-.7-80.21-3.51-127.37-14.53-10.42-2.43-38.5-9.39-59.43-24.46a62.52,62.52,0,0,1-16.35-16.63C603.75,623.94,596.38,612.41,602.11,608.26Z" transform="translate(-0.3)"/><path class="cls-31" d="M597,580.77c-2.35,2.13-2.79,7.93-3.06,11.52A38.16,38.16,0,0,0,596,606.35c3.77,10.17,74.49,41,203.16,45.38,112.26,3.83,149-5.85,238.88-31.32,3.4-1,13.15-1.92,16.33-6.39,2.09-2.86,0-4.77-1-14.07-.73-6.66.13-7.37-1-8.3-7.23-5.92-55.47,13-72.47,16-85,14.72-187,12.12-217.44,7.67C680.3,603.35,607,571.76,597,580.77Z" transform="translate(-0.3)"/><path class="cls-33" d="M597.27,575.34c0,12,8.54,39.28,17.23,40.53,7.73,1.1,1.1-24.78,15.5-20.91,32.72,8.83,96,18.85,143.73,21.43,127.5,6.83,259.6-3.87,277.18-29.83,1-1.43,4.17-6.19,1-8.32-8-5.38-45.48,14.89-82.74,18.34-65.14,6-111.67,10-185.62,4.68-100.42-7.3-139.44-22-155.58-22C622.69,579.19,596.42,572.73,597.27,575.34Z" transform="translate(-0.3)"/><path class="cls-34" d="M1054.75,539.58c0,6.73-37.73,24.95-104.53,37.81C916.89,583.79,869,587.62,825,587.62c-11,0-55.39-4.42-96.38-11.36C662,565,587.13,544.55,587.13,539.58c0-9.2,38,.54,97.53,8.74,44.74,6.18,96.5,16.89,136.27,17,61.91.1,118.73-8.64,129.29-9.71C1021.21,548.32,1054.75,529.62,1054.75,539.58Z" transform="translate(-0.3)"/><path class="cls-29" d="M865,440.65c17.35,7.7,54.15,18,99.48,18.57,48.26.52,82-10.73,99.51-18.57" transform="translate(-0.3)"/><rect class="cls-25" x="607.08" y="278.31" width="19.73" height="93.54"/><rect class="cls-25" x="693.35" y="242.01" width="14.79" height="113.71"/><rect class="cls-25" x="645.28" y="222.65" width="16.02" height="153.21"/><rect class="cls-25" x="557.79" y="237.17" width="19.73" height="138.7"/><rect class="cls-25" x="586.12" y="258.95" width="14.79" height="112.89"/><rect class="cls-25" x="520.82" y="254.92" width="23.41" height="106.45"/><rect class="cls-25" x="572.58" y="262.17" width="19.73" height="93.54"/><rect class="cls-25" x="658.84" y="225.88" width="14.79" height="113.71"/><rect class="cls-25" x="610.78" y="206.54" width="16.02" height="153.21"/><rect class="cls-25" x="523.28" y="221.05" width="19.73" height="138.7"/><rect class="cls-25" x="551.63" y="242.81" width="14.79" height="112.89"/><rect class="cls-25" x="486.3" y="238.78" width="23.41" height="106.45"/><rect class="cls-25" x="556.54" y="283.14" width="19.73" height="93.54"/><rect class="cls-25" x="642.82" y="246.86" width="14.79" height="113.71"/><rect class="cls-25" x="594.76" y="227.5" width="16.02" height="153.21"/><rect class="cls-25" x="507.26" y="242.01" width="19.73" height="138.7"/><rect class="cls-25" x="535.61" y="263.79" width="14.79" height="112.89"/><rect class="cls-25" x="470.28" y="259.76" width="23.41" height="106.45"/><rect class="cls-25" x="705.69" y="262.17" width="19.73" height="93.54"/><rect class="cls-25" x="721.7" y="257.33" width="14.79" height="113.71"/><rect class="cls-25" x="673.63" y="237.98" width="16.02" height="153.21"/><rect class="cls-25" x="653.92" y="252.5" width="19.73" height="138.7"/><rect class="cls-25" x="625.57" y="252.5" width="14.79" height="112.89"/><rect class="cls-25" x="549.15" y="270.23" width="23.41" height="106.45"/><path class="cls-36" d="M454.17,305.17,487.5,520.48s23.41-8.88,30.81-8.88,71.49.82,83.8,4.85,48.07,8.06,57.93,16.13,54.15,1.61,54.15,1.61l35.75-217.73s-28.35-6.45-37,0-25.86,20.16-41.94,25-69,15.32-73.94,15.32c-7.5,0-62.87-7.26-75.2-10.49-13-3.42-34.5-17.73-41.89-26.61s-6.25-14.51-6.25-14.51S456.65,301.94,454.17,305.17Z" transform="translate(-0.3)"/><path class="cls-35" d="M636.39,441.51a128,128,0,0,0-30.62,20.29c-2.18,2.07-36.89,35.83-19.39,62.86,16.43,25.37,70.47,31.54,126.58,38,26.92,3.07,62.18,2.93,132.71,2.62,76.93-.33,100.24-2.2,124.55-5.89,38.28-5.8,76.57-12,92.9-32.72,10.81-13.74,7.31-27.92,6.12-32.7-5.81-23.48-31.55-38.34-44.91-45.81-87.19-48.85-231.71-36.24-286.87-31.44C710.13,419,671.66,423.93,636.39,441.51Z" transform="translate(-0.3)"/><path class="cls-37" d="M775.56,445.08c1.73,0,3.12-1,3.12-2.15s-1.39-2.14-3.12-2.14-3.12,1-3.12,2.14S773.83,445.08,775.56,445.08Z" transform="translate(-0.3)"/><path class="cls-37" d="M882,454.72c1.73,0,3.13-1,3.13-2.14s-1.4-2.14-3.13-2.14-3.12,1-3.12,2.14S880.3,454.72,882,454.72Z" transform="translate(-0.3)"/><path class="cls-37" d="M821.76,508.46c1.73,0,3.13-1,3.13-2.14s-1.4-2.15-3.13-2.15-3.12,1-3.12,2.15S820,508.46,821.76,508.46Z" transform="translate(-0.3)"/><path class="cls-37" d="M689.18,490.54c1.72,0,3.12-1,3.12-2.14s-1.4-2.14-3.12-2.14-3.13,1-3.13,2.14S687.45,490.54,689.18,490.54Z" transform="translate(-0.3)"/><path class="cls-37" d="M699.24,442.32c1.72,0,3.12-1,3.12-2.14S701,438,699.24,438s-3.13,1-3.13,2.15S697.51,442.32,699.24,442.32Z" transform="translate(-0.3)"/><path class="cls-37" d="M624.92,483.66c1.72,0,3.12-1,3.12-2.15s-1.4-2.14-3.12-2.14-3.13,1-3.13,2.14S623.19,483.66,624.92,483.66Z" transform="translate(-0.3)"/><path class="cls-37" d="M769.54,479.53c1.73,0,3.12-1,3.12-2.15s-1.39-2.14-3.12-2.14-3.12,1-3.12,2.14S767.81,479.53,769.54,479.53Z" transform="translate(-0.3)"/><path class="cls-37" d="M844.74,426.4v1.43a1.31,1.31,0,0,0,.27.83,2.58,2.58,0,0,0,1.64,1.13,3.24,3.24,0,0,0,1.21.19l.83-.08a3.48,3.48,0,0,0,1.38-.55l.5-.43a1.73,1.73,0,0,0,.42-1.09V426.4a1.22,1.22,0,0,0-.27-.83,2.69,2.69,0,0,0-1.65-1.12,3,3,0,0,0-1.21-.19l-.83.07a3.49,3.49,0,0,0-1.38.56l-.48.43A1.6,1.6,0,0,0,844.74,426.4Z" transform="translate(-0.3)"/><path class="cls-37" d="M914.14,523.61c1.73,0,3.13-1,3.13-2.15s-1.4-2.14-3.13-2.14h0c-1.72,0-3.12,1-3.12,2.14S912.42,523.61,914.14,523.61Z" transform="translate(-0.3)"/><path class="cls-37" d="M982.45,476.77c1.72,0,3.12-1,3.12-2.14s-1.4-2.15-3.12-2.15-3.13,1-3.13,2.15S980.72,476.77,982.45,476.77Z" transform="translate(-0.3)"/><path class="cls-37" d="M954.32,436.81c1.73,0,3.13-1,3.13-2.15s-1.4-2.14-3.13-2.14-3.12,1-3.12,2.14S952.6,436.81,954.32,436.81Z" transform="translate(-0.3)"/><path class="cls-37" d="M920.18,486.41c1.73,0,3.13-1,3.13-2.14s-1.4-2.14-3.13-2.14-3.12,1-3.12,2.14S918.46,486.41,920.18,486.41Z" transform="translate(-0.3)"/><path class="cls-37" d="M821.76,460.24c1.73,0,3.13-1,3.13-2.15s-1.4-2.14-3.13-2.14-3.12,1-3.12,2.14S820,460.24,821.76,460.24Z" transform="translate(-0.3)"/><path class="cls-37" d="M739.4,511.22c1.72,0,3.12-1,3.12-2.14s-1.4-2.15-3.12-2.15-3.13,1-3.13,2.15S737.67,511.22,739.4,511.22Z" transform="translate(-0.3)"/><path d="M1133.09,469.88c1.72,0,3.12-1,3.12-2.14s-1.4-2.14-3.12-2.14-3.13,1-3.13,2.14S1131.36,469.88,1133.09,469.88Z" transform="translate(-0.3)"/><path d="M1237.62,454.72c1.72,0,3.12-1,3.12-2.14s-1.4-2.14-3.12-2.14-3.13,1-3.13,2.14S1235.89,454.72,1237.62,454.72Z" transform="translate(-0.3)"/><path d="M1187.33,507.07c1.73,0,3.13-.95,3.13-2.14s-1.4-2.14-3.13-2.14-3.12,1-3.12,2.14S1185.61,507.07,1187.33,507.07Z" transform="translate(-0.3)"/><path d="M1350.1,456.09c1.72,0,3.12-1,3.12-2.14s-1.4-2.14-3.12-2.14-3.13,1-3.13,2.14S1348.37,456.09,1350.1,456.09Z" transform="translate(-0.3)"/><path d="M1315.87,497.43c1.73,0,3.13-1,3.13-2.14s-1.4-2.15-3.13-2.15-3.12,1-3.12,2.15S1314.15,497.43,1315.87,497.43Z" transform="translate(-0.3)"/><path d="M1259.63,479.53c1.73,0,3.13-1,3.13-2.15s-1.4-2.14-3.13-2.14-3.12,1-3.12,2.14S1257.91,479.53,1259.63,479.53Z" transform="translate(-0.3)"/><path d="M1265.65,526.36c1.73,0,3.13-1,3.13-2.14s-1.4-2.14-3.13-2.14-3.12,1-3.12,2.14S1263.93,526.36,1265.65,526.36Z" transform="translate(-0.3)"/><path d="M1414.3,511.22c1.72,0,3.12-1,3.12-2.14s-1.4-2.15-3.12-2.15-3.13,1-3.13,2.15S1412.57,511.22,1414.3,511.22Z" transform="translate(-0.3)"/><path d="M1442.42,467.12c1.72,0,3.12-.95,3.12-2.14s-1.4-2.14-3.12-2.14-3.13,1-3.13,2.14S1440.69,467.12,1442.42,467.12Z" transform="translate(-0.3)"/><path d="M1402.17,479.53c1.73,0,3.13-1,3.13-2.15s-1.4-2.14-3.13-2.14-3.12,1-3.12,2.14S1400.45,479.53,1402.17,479.53Z" transform="translate(-0.3)"/><path d="M1289.69,434.06c1.73,0,3.13-1,3.13-2.14s-1.4-2.14-3.13-2.14-3.12,1-3.12,2.14S1288,434.06,1289.69,434.06Z" transform="translate(-0.3)"/><path d="M1171.25,441c1.73,0,3.12-1,3.12-2.14s-1.39-2.15-3.12-2.15-3.12,1-3.12,2.15S1169.52,441,1171.25,441Z" transform="translate(-0.3)"/><path d="M1094.93,509.83c1.72,0,3.12-1,3.12-2.14s-1.4-2.14-3.12-2.14-3.13,1-3.13,2.14S1093.2,509.83,1094.93,509.83Z" transform="translate(-0.3)"/><path d="M1398.24,540.09c1.72,0,3.12-1,3.12-2.14s-1.4-2.14-3.12-2.14-3.13,1-3.13,2.14S1396.51,540.09,1398.24,540.09Z" transform="translate(-0.3)"/><path d="M1500.68,511.22c1.73,0,3.12-1,3.12-2.14s-1.39-2.15-3.12-2.15-3.13,1-3.13,2.15S1499,511.22,1500.68,511.22Z" transform="translate(-0.3)"/><path d="M1135.11,531.88c1.73,0,3.12-1,3.12-2.14s-1.39-2.15-3.12-2.15-3.12,1-3.12,2.15S1133.38,531.88,1135.11,531.88Z" transform="translate(-0.3)"/><path d="M1195.35,469.88c1.73,0,3.13-1,3.13-2.14s-1.4-2.14-3.13-2.14-3.12,1-3.12,2.14S1193.62,469.88,1195.35,469.88Z" transform="translate(-0.3)"/><path d="M1207.41,541.52c1.73,0,3.13-1,3.13-2.14s-1.4-2.14-3.13-2.14-3.12,1-3.12,2.14S1205.69,541.52,1207.41,541.52Z" transform="translate(-0.3)"/><path d="M1344,545.65c1.73,0,3.13-1,3.13-2.14s-1.4-2.14-3.13-2.14-3.12,1-3.12,2.14S1342.27,545.65,1344,545.65Z" transform="translate(-0.3)"/><path d="M1410.28,442.32c1.72,0,3.12-1,3.12-2.14s-1.4-2.15-3.12-2.15-3.13,1-3.13,2.15S1408.55,442.32,1410.28,442.32Z" transform="translate(-0.3)"/><path d="M1368.1,493.3c1.72,0,3.12-1,3.12-2.14s-1.4-2.15-3.12-2.15-3.13,1-3.13,2.15S1366.37,493.3,1368.1,493.3Z" transform="translate(-0.3)"/><path d="M1291.77,467.12c1.73,0,3.13-.95,3.13-2.14s-1.4-2.14-3.13-2.14-3.12,1-3.12,2.14S1290.05,467.12,1291.77,467.12Z" transform="translate(-0.3)"/></g><g id="Capa_4" data-name="Capa 4"><text class="cls-38" transform="translate(66.66 128.59) scale(1.46 1)">Combo KND</text><text class="cls-39" transform="translate(66.66 128.59) scale(1.46 1)">Combo KND</text><text class="cls-40" transform="translate(261.34 772.69) scale(1.46 1)">Combo KND, incluye 2 hamburguesas, 2 bebidad grandes, 2 helado y papas incluidas.</text><text class="cls-41" transform="translate(67.47 220.24) scale(1.46 1)">Solo ho</text><text class="cls-42" transform="translate(67.47 220.24) scale(1.46 1)">Solo ho</text><text class="cls-43" transform="translate(294.31 220.24) scale(1.46 1)">y</text><text class="cls-44" transform="translate(294.31 220.24) scale(1.46 1)">y</text><text class="cls-41" transform="translate(326.56 220.24) scale(1.46 1)">, no te pierdad</text><text class="cls-42" transform="translate(326.56 220.24) scale(1.46 1)">, no te pierdad</text><g class="cls-45"><text class="cls-41" transform="translate(67.47 281.96) scale(1.46 1)"><tspan xml:space="preserve">esta promocion  !!!</tspan></text></g><g class="cls-45"><text class="cls-42" transform="translate(67.47 281.96) scale(1.46 1)"><tspan xml:space="preserve">esta promocion  !!!</tspan></text></g><text class="cls-46" transform="translate(1409.6 637.46) scale(1.46 1)">$ 235</text><text class="cls-47" transform="translate(1409.6 637.46) scale(1.46 1)">$ 235</text></g></g></svg>