<svg xmlns="http://www.w3.org/2000/svg" xmlns:xlink="http://www.w3.org/1999/xlink" viewBox="0 0 567 480"><defs><style>.cls-1{fill:url(#Degradado_sin_nombre_36);}.cls-2{fill:none;stroke:#e80006;}.cls-14,.cls-15,.cls-2{stroke-miterlimit:10;}.cls-3{fill:#e80006;}.cls-4{font-size:93.18px;fill:#ff937d;}.cls-14,.cls-15,.cls-4{font-family:Impact;}.cls-5{fill:#710402;}.cls-6{fill:#6b9f20;}.cls-7{fill:#250102;}.cls-8{fill:#ffb811;}.cls-9{fill:#6d301d;}.cls-10{fill:#ffd500;}.cls-11{fill:#ff5959;}.cls-12{fill:#268800;}.cls-13{fill:#b00;}.cls-14{font-size:60px;}.cls-14,.cls-15{fill:#fff;stroke:#000;}.cls-15{font-size:100px;}</style><linearGradient id="Degradado_sin_nombre_36" x1="283.5" y1="480" x2="283.5" gradientUnits="userSpaceOnUse"><stop offset="0" stop-color="#121212"/><stop offset="0.03" stop-color="#1d1b1b"/><stop offset="0.09" stop-color="#393332"/><stop offset="0.16" stop-color="#675a57"/><stop offset="0.24" stop-color="#a7918b"/><stop offset="0.34" stop-color="#f7d5cd"/><stop offset="0.34" stop-color="#ffdcd3"/><stop offset="0.35" stop-color="#f2d1c8"/><stop offset="0.4" stop-color="#c1a6a0"/><stop offset="0.45" stop-color="#94807b"/><stop offset="0.5" stop-color="#6d5f5b"/><stop offset="0.56" stop-color="#4d4340"/><stop offset="0.62" stop-color="#332c2b"/><stop offset="0.69" stop-color="#1e1b1a"/><stop offset="0.76" stop-color="#100e0e"/><stop offset="0.85" stop-color="#080707"/><stop offset="1" stop-color="#050505"/></linearGradient></defs><g id="Capa_3" data-name="Capa 3"><rect class="cls-1" width="567" height="480"/></g><g id="Capa_1" data-name="Capa 1"><g id="Capa_2" data-name="Capa 2"><path class="cls-2" d="M44.78,416.39s9.62-9.87,11.32-14.2,9.34-22.62,8.78-25.09,36-7,36-7v19.76"/><path class="cls-3" d="M42.23,386.24l4,4.26s75.88-11,79.28-12.79S43.92,388.67,42.23,386.24Z"/><path class="cls-3" d="M142.62,364.24C146.81,361.77,42.1,379.07,40,375.77l4.89,5.77"/></g><g id="Capa_3-2" data-name="Capa 3"><path class="cls-3" d="M84.91,404.37q6.48.28,12.94.79l3.28.27c1,.05,2.08.14,3.1.29.76.15,1.64.75,1.23,1.51-.24.45-.91.59-1.41.65-1.11.14-2.27.11-3.39.16l-3.65.15a.55.55,0,1,0,0,1.09l3.65-.16c1.15,0,2.31,0,3.45-.16a3.63,3.63,0,0,0,2.08-.75,1.8,1.8,0,0,0,.45-2.09,2.84,2.84,0,0,0-2.32-1.49c-1.18-.17-2.38-.23-3.56-.34-2.46-.21-4.93-.39-7.39-.55q-4.22-.28-8.43-.46a.54.54,0,1,0,0,1.08Z"/><path class="cls-3" d="M104.05,405.81c2.73.14,4.74-1.9,5.7-3.93a8.2,8.2,0,0,0-.42-7.62,12,12,0,0,0-6.24-5.15c-3.41-1.29-7.16-1.29-10.81-1.27-4,0-8,.05-11.94.31a64.48,64.48,0,0,0-10.92,1.5,21.3,21.3,0,0,0-8.53,4c-2.39,2-4.07,4.65-3.52,7.59a4.39,4.39,0,0,0,2.33,3.17c1.46.73,3.21.61,4.82.59l12.13-.14,3,0a.55.55,0,1,0,0-1.08l-11.21.13c-1.8,0-3.59.07-5.41.06-1.4,0-2.91-.19-3.74-1.29-1.7-2.24-.53-5.22,1.25-7.1a17.16,17.16,0,0,1,7.41-4.31,49.2,49.2,0,0,1,9.57-1.72c3.66-.36,7.34-.46,11-.51A67.91,67.91,0,0,1,99,389.2a13.31,13.31,0,0,1,7.54,3.42,8.24,8.24,0,0,1,2.66,6.62c-.21,2-1.41,4.46-3.68,5.28a4,4,0,0,1-1.5.21.54.54,0,1,0,0,1.08Z"/><path class="cls-3" d="M61.58,404.86a.82.82,0,0,0-.64-1,1,1,0,0,0-1,.33,2.76,2.76,0,0,0-.53,2.24,4.48,4.48,0,0,0,3.47,3.52,14.64,14.64,0,0,0,3,.41c1.27.09,2.53.16,3.8.2,2.5.1,5,.12,7.52.08,2.88,0,5.77-.16,8.65-.33a.54.54,0,1,0,0-1.08c-4.11.23-8.24.36-12.36.33-2.06,0-4.12-.08-6.18-.2-1.69-.09-3.71-.05-5.19-.89a3.1,3.1,0,0,1-1.39-1.69,2.75,2.75,0,0,1-.15-1,2.36,2.36,0,0,1,.1-.53c0-.06.05-.12.07-.17a1.09,1.09,0,0,1,.08-.15c.14-.17,0-.29-.41-.36-.16.68,1.05,1,1.2.29Z"/><path class="cls-3" d="M60.11,412.25a2.24,2.24,0,0,0,.06,2.46,3.15,3.15,0,0,0,2.57,1.38,21.06,21.06,0,0,0,3.8-.34l4.21-.51,8.63-1,4.1-.49,2.06-.25a9,9,0,0,1,2.08-.18c.65.09.92.67,1.15,1.14s.56,1.21.83,1.82l1.86,4a.65.65,0,0,0,.8.37.64.64,0,0,0,.25-.12,26.12,26.12,0,0,1,7.25-4.46c2.19-.89,4.82-1.45,5.86-3.57.31-.64-.77-1.19-1.08-.55-1,2-3.81,2.48-5.88,3.38a27.41,27.41,0,0,0-7,4.43l1,.24-1.59-3.43a29.85,29.85,0,0,0-1.46-3.08,2.65,2.65,0,0,0-2.67-1.24c-1.33.12-2.66.32-4,.48l-16.43,2c-.81.1-1.62.21-2.43.29a4.9,4.9,0,0,1-1.83,0,1.51,1.51,0,0,1-1.07-2.12.5.5,0,0,0-.25-.73.66.66,0,0,0-.82.19Z"/><path class="cls-3" d="M60.2,419.3a7.48,7.48,0,0,0-.06,3.36.62.62,0,0,0,.6.4q10.12.38,20.26.27c6.72-.08,13.46-.26,20.16-.73a5.52,5.52,0,0,0,3.83-1.37,2.86,2.86,0,0,0,.54-3.34c-.34-.64-1.42-.08-1.07.54a2,2,0,0,1-.84,2.46c-1,.7-2.58.64-3.82.72q-4.76.27-9.51.44-9.39.31-18.82.21-5.37-.06-10.74-.27l.6.4a6.41,6.41,0,0,1,.06-2.79c.17-.68-1-1-1.2-.29Z"/><path class="cls-3" d="M60.56,426.4c.32,1.36-.23,2.75-.21,4.12a3,3,0,0,0,2.35,3,16.88,16.88,0,0,0,2.54.36c1.05.11,2.08.21,3.16.3q3.09.26,6.21.36a154.93,154.93,0,0,0,24.65-1.27c1.82-.24,3.75-.66,5-2a4.06,4.06,0,0,0,1-4.31c-.29-.65-1.49-.37-1.21.29a3.1,3.1,0,0,1-.81,3.4A7.18,7.18,0,0,1,99,432.23c-3.79.49-7.62.84-11.45,1.06a134,134,0,0,1-22.84-.55,5.3,5.3,0,0,1-2.41-.59,1.86,1.86,0,0,1-.73-1.7c0-1.45.52-2.9.17-4.35-.17-.69-1.37-.4-1.21.29Z"/><path d="M124.27,398.62l-9.22,22.22-2.6,6.29c-.27.66.93.94,1.2.28l9.22-22.21,2.61-6.28c.27-.66-.93-.94-1.21-.29Z"/><path d="M117.25,406.38s.21,0,.19.06,0,0,0,0,0-.35,0-.37a1.86,1.86,0,0,1,.18-.83,12.57,12.57,0,0,1,1.5-2.15,21.85,21.85,0,0,1,12.83-7.78,18.84,18.84,0,0,1,5.66-.2l-.47-.54a15,15,0,0,1-3.74,8,39.54,39.54,0,0,1-7.55,6.3l.88.76a15.27,15.27,0,0,1,10-3c1.4.13,2.78.79,2.82,2.15a4.56,4.56,0,0,1-.83,2.38c-.42.69-.89,1.37-1.36,2A38.24,38.24,0,0,1,123,425.31a35.08,35.08,0,0,1-10,3.13c-.79.13-.45,1.17.33,1.05A37.5,37.5,0,0,0,131.6,421a39.8,39.8,0,0,0,7-7.65c1-1.41,2.29-3.08,2.15-4.8a3.49,3.49,0,0,0-3-2.94,13.51,13.51,0,0,0-6,.32,17.2,17.2,0,0,0-5.93,2.82c-.62.45.27,1.2.88.77a40.3,40.3,0,0,0,7.84-6.63,15.85,15.85,0,0,0,3.84-8.37.56.56,0,0,0-.46-.53,22.54,22.54,0,0,0-20.56,9.39,4.78,4.78,0,0,0-1.19,2.59c0,.79.42,1.63,1.46,1.45.79-.13.45-1.18-.33-1.05Z"/><path d="M144,407.44a54.21,54.21,0,0,0-1.42,8c-.14,1.34-.24,2.7-.26,4a5.85,5.85,0,0,0,.83,3.52,2.84,2.84,0,0,0,3,1.23,5.2,5.2,0,0,0,2.87-1.95,11.28,11.28,0,0,0,2.26-6.55c.21-3,0-6.11-.1-9.14,0-.7-1.25-.7-1.25,0,.06,2.4.16,4.8.16,7.2a13.75,13.75,0,0,1-1.25,6.61c-.64,1.2-2.94,4.1-4.49,2.18a4.9,4.9,0,0,1-.72-3.27c0-1.17.1-2.35.22-3.52a52.42,52.42,0,0,1,1.41-8c.18-.68-1-1-1.21-.29Z"/><path d="M153.82,408.12l.59,13.72a.63.63,0,0,0,1.24,0,50.2,50.2,0,0,1,1.25-8.06,15.29,15.29,0,0,1,3.55-6.83c.52-.53-.36-1.31-.88-.77-4.13,4.27-4.66,10.32-5.17,15.66h1.25l-.59-13.72c0-.69-1.28-.7-1.25,0Z"/><path d="M168.05,405.4c-.92-1-2.35-.07-3,.71a14.31,14.31,0,0,0-1.89,3.39,17.88,17.88,0,0,0-1.34,7.76c.09,1.53.84,4.84,3.42,4.25a3.65,3.65,0,0,0,2.25-2.4,17.33,17.33,0,0,0,1.11-3.9,46.32,46.32,0,0,0,.42-9.34h-1.25a103,103,0,0,1-1.18,21.26c-.26,1.78-.53,3.57-.81,5.35a39.51,39.51,0,0,1-.9,4.95c-.34,1.18-1.12,2.9-2.72,3.14s-2.49-1.32-2.91-2.33a6.77,6.77,0,0,1,2.35-7.84c.63-.43-.26-1.2-.88-.76a7.74,7.74,0,0,0-3,7.65,5.58,5.58,0,0,0,2.28,3.78,3.57,3.57,0,0,0,4.26-.31,7.34,7.34,0,0,0,2.15-4.46c.34-1.87.6-3.75.89-5.62.59-3.88,1.14-7.76,1.48-11.66a83.56,83.56,0,0,0,.23-13.14c0-.7-1.24-.71-1.24,0a62.5,62.5,0,0,1-.11,7,23.42,23.42,0,0,1-.55,3.42,12.14,12.14,0,0,1-1.1,3.11c-.31.52-1,1.45-1.76.93a3.26,3.26,0,0,1-1.08-2.15,11.79,11.79,0,0,1-.08-3.14,17,17,0,0,1,.6-3.3,15.76,15.76,0,0,1,1.36-3.37,12,12,0,0,1,1-1.59,2.29,2.29,0,0,1,.61-.59c.21-.13.31-.19.47,0,.49.55,1.37-.22.88-.77Z"/><path d="M175.07,413.7a8.25,8.25,0,0,0,4.16-1.51,6,6,0,0,0,2.6-3.55,3,3,0,0,0-1.78-3.15,3.87,3.87,0,0,0-3.89.48,8.88,8.88,0,0,0-2.72,3.45,12.31,12.31,0,0,0-.79,8.42,5.83,5.83,0,0,0,2.28,3.61c2.41,1.54,7.31.68,7.78-2.23a.56.56,0,0,0-.44-.67.63.63,0,0,0-.76.38c-.32,2-3.49,2.65-5.32,1.91a4,4,0,0,1-2.17-2.72,11.19,11.19,0,0,1,1.55-9.9,4.25,4.25,0,0,1,2.88-2,2.12,2.12,0,0,1,2.13,1.5c.32,1.25-.76,2.49-1.73,3.3a6.72,6.72,0,0,1-3.78,1.56C174.28,412.68,174.27,413.77,175.07,413.7Z"/><path d="M185,405.88a4.92,4.92,0,0,1,1.62,2.83c.42,1.36.77,2.74,1.06,4.13a48.53,48.53,0,0,1,1,8.48h1.25a29.3,29.3,0,0,1,.45-9.43c.52-2.39,1.55-6,4.75-6.53.79-.15.46-1.2-.33-1.05-3.46.64-4.87,4.16-5.51,6.82a29.64,29.64,0,0,0-.61,10.19c.08.68,1.25.73,1.25,0a50.17,50.17,0,0,0-1.11-9.12,38.24,38.24,0,0,0-1.13-4.26,5.54,5.54,0,0,0-2-3,.69.69,0,0,0-.86.2.51.51,0,0,0,.23.72Z"/><path d="M209.89,394.23a3.93,3.93,0,0,0-.72-4.62,4.33,4.33,0,0,0-5-.81,7.75,7.75,0,0,0-3.86,4.54,32.66,32.66,0,0,0-1.5,6.67,69.72,69.72,0,0,0-1,14.13,11.17,11.17,0,0,0,1.64,6,6.8,6.8,0,0,0,4.78,2.82,5.38,5.38,0,0,0,3.24-.6,4.19,4.19,0,0,0,1.8-2.84,26.16,26.16,0,0,0,.64-6.48.63.63,0,0,0-1.25,0,26.62,26.62,0,0,1-.31,4.88,7.91,7.91,0,0,1-.77,2.73,2.88,2.88,0,0,1-2.24,1.24,5.38,5.38,0,0,1-4.36-1.74,8.19,8.19,0,0,1-1.85-5,45.54,45.54,0,0,1,0-6.07q.15-3.17.56-6.3c.27-2,.6-4.07,1-6.09a12.73,12.73,0,0,1,2-5.22c1-1.27,3-2.74,4.82-1.76a3,3,0,0,1,1.31,3.95c-.37.62.71,1.17,1.07.55Z"/><path d="M210,414.92c.1-2,.11-4,0-6a.57.57,0,0,0-.46-.53,26.57,26.57,0,0,0-5.71-.22c-.8.05-.8,1.15,0,1.09a25.46,25.46,0,0,1,5.38.18l-.46-.52c.07,2,.06,4,0,6C208.68,415.62,209.93,415.61,210,414.92Z"/><path d="M216.12,413.12c1.81-.32,3.69.34,5.47-.17a4.19,4.19,0,0,0,2.85-2.4,2.88,2.88,0,0,0-1.05-3.3,5.1,5.1,0,0,0-3.7-.88,7.83,7.83,0,0,0-6.44,5.44,8.84,8.84,0,0,0-.24,4.39,5,5,0,0,0,2.42,3.63,10,10,0,0,0,5.1.83,8,8,0,0,0,4.69-1.85.5.5,0,0,0,0-.77.7.7,0,0,0-.85,0c-1.88,1.65-4.7,1.85-7.17,1.25a3.51,3.51,0,0,1-2.7-2.43,7.54,7.54,0,0,1-.27-3.74,6.84,6.84,0,0,1,4.45-5.41,4.7,4.7,0,0,1,3.12-.08,2.13,2.13,0,0,1,1.58,2.23A2.88,2.88,0,0,1,221,412a9.32,9.32,0,0,1-2.53,0,10.94,10.94,0,0,0-2.68.08c-.78.14-.45,1.19.33,1.05Z"/><path d="M249.82,389.18q-1.26,6.85-2.92,13.65a99.09,99.09,0,0,1-3.74,12.62,27.76,27.76,0,0,1-3.39,6.29c-.42.59.64,1.13,1.08.55a36.58,36.58,0,0,0,5.23-11.64c1.31-4.45,2.43-8.94,3.42-13.46.55-2.56,1.07-5.14,1.54-7.72.12-.68-1.08-1-1.2-.29Z"/><path d="M246,406.35c1.56.58,3-.24,4.24-1.06a16.92,16.92,0,0,0,3.13-2.76,29.25,29.25,0,0,0,4.68-7.6c.74-1.64,1.4-3.32,2.05-5,.27-.67-.94-1-1.2-.29a50.07,50.07,0,0,1-4.65,9.79,19.31,19.31,0,0,1-3.14,3.71,13.81,13.81,0,0,1-1.95,1.5c-.65.41-1.66,1.09-2.53.77a.7.7,0,0,0-.86.2.51.51,0,0,0,.23.74Z"/><path d="M248,406.52a2.61,2.61,0,0,1,2.79-.26,4.39,4.39,0,0,1,1.72,1.94,22.32,22.32,0,0,1,1.76,6.17c.4,2.05.61,4.22,2,5.93a4.52,4.52,0,0,0,2.42,1.66,5.74,5.74,0,0,0,3.38-.34c2.21-.8,4.91-2.12,4.64-4.57-.08-.69-1.33-.7-1.25,0a2.52,2.52,0,0,1-1.32,2.38,11.76,11.76,0,0,1-3.09,1.36,3.31,3.31,0,0,1-3-.36,5.11,5.11,0,0,1-1.61-2.37,53.93,53.93,0,0,1-1.44-6.38,12,12,0,0,0-2.18-5.24,4.25,4.25,0,0,0-2.47-1.5,4,4,0,0,0-3.19.81c-.61.46.28,1.22.88.77Z"/><path d="M230.46,413.44c1.8-.32,3.69.34,5.46-.17a4.18,4.18,0,0,0,2.86-2.4,2.9,2.9,0,0,0-1.06-3.31,5.15,5.15,0,0,0-3.69-.88,7.81,7.81,0,0,0-6.44,5.44,8.89,8.89,0,0,0-.24,4.4,5,5,0,0,0,2.42,3.63,10,10,0,0,0,5.1.83,8,8,0,0,0,4.68-1.84.5.5,0,0,0,0-.77.71.71,0,0,0-.89,0c-1.87,1.65-4.69,1.86-7.16,1.25a3.54,3.54,0,0,1-2.7-2.42,7.48,7.48,0,0,1-.27-3.75A6.87,6.87,0,0,1,233,408a4.7,4.7,0,0,1,3.12-.08,2.15,2.15,0,0,1,1.58,2.23,2.88,2.88,0,0,1-2.34,2.1,9,9,0,0,1-2.54,0,10.92,10.92,0,0,0-2.68.08c-.79.14-.45,1.19.33,1.05Z"/></g></g><g id="Capa_2-2" data-name="Capa 2"><text class="cls-4" transform="translate(49.22 96.2) scale(0.64 1)">DEAD-NOTE BURGER</text><path class="cls-5" d="M463.29,210.64c5.68,1.85,8.25,6.2,10.13,9.67,6.72,12.39,10.08,18.59,11.4,28,2.72,19.42-3.87,34.36-7.6,42.53,0,0-6.35,13.89-21.53,27.06-3.68,3.19-8.18,6.37-12.67,5.8-2.27-.29-4.11-1.49-8.87-1.94a15.32,15.32,0,0,0-5.06,0c-3.87.91-4.1,3.58-7.6,4.84-2,.72-3.92.49-7.6,0-10.61-1.42-12.37-4.64-20.27-4.84-3.91-.09-4.68.66-7.6,0a16,16,0,0,1-8.87-5.79c-13-15.56-17.73-27.07-17.73-27.07-5.53-13.45-8.29-20.18-8.87-28A57.55,57.55,0,0,1,356.89,230c4.11-7.63,11.63-21.58,25.33-23.2,6-.7,12.26,1,19,2.9,5.52,1.53,11.37,3.81,16.47,5.8,8.87,3.47,8.37,3.76,10.13,3.87,8.1.51,10.43-6.24,22.8-8.7C453.68,210,458.48,209.08,463.29,210.64Z"/><path class="cls-5" d="M462.89,221.37c5.68,1.85,8.26,6.2,10.13,9.66,6.72,12.4,10.08,18.6,11.4,28,2.72,19.42-3.87,34.36-7.6,42.53,0,0-6.35,13.89-21.53,27.06-3.68,3.18-8.18,6.37-12.67,5.8-2.27-.29-4.11-1.49-8.86-1.94a15.1,15.1,0,0,0-5.07,0c-3.87.91-4.1,3.58-7.6,4.84-2,.72-3.91.49-7.6,0-10.61-1.43-12.37-4.64-20.27-4.84-3.91-.1-4.67.66-7.6,0a15.88,15.88,0,0,1-8.86-5.8c-13-15.55-17.74-27.06-17.74-27.06-5.52-13.45-8.29-20.18-8.86-28a57.49,57.49,0,0,1,6.33-30.93c4.11-7.64,11.63-21.58,25.33-23.2,6-.7,12.26,1,19,2.9,5.52,1.53,11.37,3.81,16.47,5.8,8.87,3.46,8.37,3.76,10.13,3.87,8.11.51,10.43-6.24,22.8-8.7C453.28,220.76,458.08,219.81,462.89,221.37Z"/><path class="cls-6" d="M500.89,210.74c1.49-1.62-4.33-7.07-10.14-10.63-3.86-2.37-10.62-6.52-20.26-6.77-8.82-.23-15.13,2.93-22.8,6.77-11.66,5.83-16.46,11-17.73,12.56-3,3.71-5.14,6.43-3.8,8.7,3.55,6,28.21,2.46,31.66,1.93,6.11-.93,9.93-1.55,13.93-3.86,6.64-3.84,5.94-7.78,11.4-9.67C490.86,207.11,499.23,212.54,500.89,210.74Z"/><path class="cls-7" d="M426.16,208.8s2.53,5.8,2.53,8.7-6.33,14.5-6.33,14.5h-5.07s8.87-11.6,6.33-14.5-6.33-6.76-6.33-6.76S419.82,206.87,426.16,208.8Z"/><path class="cls-5" d="M77.5,210.64c-5.68,1.85-8.26,6.2-10.13,9.67-6.72,12.39-10.08,18.59-11.4,28-2.72,19.42,3.87,34.36,7.6,42.53,0,0,6.34,13.89,21.53,27.06,3.68,3.19,8.18,6.37,12.67,5.8,2.27-.29,4.11-1.49,8.86-1.94a15.37,15.37,0,0,1,5.07,0c3.87.91,4.1,3.58,7.6,4.84,2,.72,3.91.49,7.6,0,10.61-1.42,12.37-4.64,20.27-4.84,3.91-.09,4.67.66,7.6,0a15.93,15.93,0,0,0,8.86-5.79c13-15.56,17.74-27.07,17.74-27.07,5.52-13.45,8.29-20.18,8.86-28A57.49,57.49,0,0,0,183.9,230c-4.11-7.63-11.63-21.58-25.33-23.2-6-.7-12.26,1-19,2.9-5.52,1.53-11.37,3.81-16.47,5.8-8.87,3.47-8.38,3.76-10.13,3.87-8.11.51-10.43-6.24-22.8-8.7C87.11,210,82.31,209.08,77.5,210.64Z"/><path class="cls-5" d="M77.9,221.37c-5.69,1.85-8.26,6.2-10.13,9.66-6.72,12.4-10.08,18.6-11.4,28-2.72,19.42,3.86,34.36,7.6,42.53,0,0,6.34,13.89,21.53,27.06,3.67,3.18,8.17,6.37,12.67,5.8,2.26-.29,4.11-1.49,8.86-1.94a15.11,15.11,0,0,1,5.07,0c3.87.91,4.1,3.58,7.6,4.84,2,.72,3.91.49,7.6,0,10.61-1.43,12.37-4.64,20.26-4.84,3.92-.1,4.68.66,7.6,0a15.92,15.92,0,0,0,8.87-5.8c13-15.55,17.73-27.06,17.73-27.06,5.53-13.45,8.29-20.18,8.87-28a57.49,57.49,0,0,0-6.33-30.93c-4.12-7.64-11.63-21.58-25.34-23.2-6-.7-12.25,1-19,2.9-5.51,1.53-11.36,3.81-16.46,5.8-8.87,3.46-8.38,3.76-10.13,3.87-8.11.51-10.43-6.24-22.8-8.7C87.51,220.76,82.71,219.81,77.9,221.37Z"/><path class="cls-6" d="M39.9,210.74c-1.49-1.62,4.33-7.07,10.13-10.63,3.86-2.37,10.63-6.52,20.27-6.77,8.82-.23,15.13,2.93,22.8,6.77,11.65,5.83,16.46,11,17.73,12.56,3,3.71,5.14,6.43,3.8,8.7-3.55,6-28.21,2.46-31.66,1.93-6.12-.93-9.93-1.55-13.94-3.86-6.63-3.84-5.93-7.78-11.4-9.67C49.93,207.11,41.55,212.54,39.9,210.74Z"/><path class="cls-7" d="M114.63,208.8s-2.53,5.8-2.53,8.7,6.33,14.5,6.33,14.5h5.07s-8.87-11.6-6.33-14.5,6.33-6.76,6.33-6.76S121,206.87,114.63,208.8Z"/><path d="M383.13,301.88a35.53,35.53,0,0,1-4.54,12.65A37.66,37.66,0,0,1,365,327.74c-12.1,7.14-25.37,6.32-30.63,6.05-35.7-1.84-71.48,1.78-107.22,1.65,0,0-31-.12-52.76-10.46-5.14-2.44-9.52-5.56-12.48-10.45a25.44,25.44,0,0,1-3.4-14.85Z"/><path class="cls-8" d="M156.21,288.13c-7.94,5.39-7.05,21.36-3.4,22.55,3.4,1.12,6.65-11.51,16.45-12.65,4.39-.51,5.09,1.87,16.45,5,5.18,1.41,9.54,2.59,15.32,2.75,6.42.18,7.89-1.09,17-1.65,6.39-.39,9.58-.58,13.05,0,10.94,1.85,19.21,10.51,34,26.41,4.95,5.3,5.43,6.25,7.37,6.6,10.18,1.83,15.15-20.75,34.61-26.41,2.49-.72.33.25,24.39,0,23.64-.24,27.48-1.2,31.2-2.75,7.48-3.11,11.37-7.29,14.75-5.5,4.45,2.36,2.07,11.92,5.11,12.65,2.11.51,5.81-3.49,6.24-7.7.5-4.92-3.53-9.46-7.38-11.55-7.38-4-14.19-5.34-26.66-2.75-10,2.08-9-.57-30.63-1.1-27.59-.68-32.86,2.79-50.49,2.2-24.71-.82-63.26-.81-106.65-7.7C165.28,286.21,160.22,285.4,156.21,288.13Z"/><path class="cls-9" d="M166.42,267.19a21,21,0,0,0-11.91-1.07c-1,.22-7.3,1.75-9.65,6.46-2.78,5.58,1.57,12.51,2.84,14.53,9.89,15.76,57.36,10.36,139.55,10.77,23.83.12,48.2-5.33,71.48-.54,9.33,1.92,25.36,6.16,37.44-1.61,1.8-1.15,9.74-6.26,9.65-14a14.19,14.19,0,0,0-7.38-11.84c-7.44-4-15.28,1.37-28.36,4.3-9.52,2.14-14.7,1.41-33.47.54-42.63-2-43.61.55-95.87-2.15C194.35,270.18,171.16,269,166.42,267.19Z"/><path class="cls-9" d="M166.35,239.21a17.18,17.18,0,0,0-11.91-1.34c-1,.27-7.3,2.18-9.65,8.06-2.79,7,1.56,15.6,2.84,18.13C157.52,283.72,205,277,287.18,277.5c23.83.15,48.19-6.66,71.48-.67,9.32,2.39,25.36,7.67,37.44-2,1.79-1.44,9.74-7.81,9.64-17.46-.05-5.8-3-11.87-7.37-14.78-7.44-4.95-15.28,1.71-28.36,5.37-9.53,2.67-14.7,1.75-33.47.67-42.64-2.44-43.61.69-95.88-2.68C194.28,242.93,171.09,241.44,166.35,239.21Z"/><path class="cls-10" d="M185.14,227.83c-1.39,2.26-.76,7.13.57,16.78,1.76,12.82,2.92,14.21,4,14.77,2.83,1.5,6.33-2.29,10.21-5.37,7.54-6,15.05-7.57,30.07-10.74a96,96,0,0,1,30.06-2c12.86,1.24,21.63,4.89,35.74,10.74,18,7.49,27,11.23,35.17,19.47,9.19,9.3,11.36,16.86,16.46,16.11,5.82-.86,9.59-11.7,15.31-28.19,4.85-13.95,5-19.69,10.78-26.18S385,226,384.83,223.8c-.37-4.52-25.66-5-40.28-5.37-77.88-1.73-86.46-3-104.38,0-21.78,3.67-23.7,2.19-38,.67C196.78,218.54,188.06,223.09,185.14,227.83Z"/><path class="cls-11" d="M181.17,222.67a153.1,153.1,0,0,1-19.29-2.2c-6.91-1.24-10.08-2.32-11.91-.55-2.62,2.53-1.31,9.69,2.84,12.65,5.49,3.93,15.31,0,15.31,0s-25.63,1-32.33,13.75c-2,3.91-2.7,9.6,0,12.11,4,3.71,14.11-.72,27.23-6.61,18.57-8.33,17.7-11.13,28.93-14.3,13.16-3.71,23.57-2.48,30.63-1.65,1.23.15,13,1.59,13,3.85s-11.71,2-12.48,5.5c-1.38,6.29,33.31,18.2,53.32,18.16a23.63,23.63,0,0,0,7.95-1.1c8.88-3,8.71-9.72,17.58-14.86,6.92-4,14.62-4.3,17-4.4,7.54-.29,10,1.78,15.32,0,6.74-2.26,6.42-6.85,10.78-7.7,8.31-1.61,12.38,14.56,29.5,22,7.94,3.45,19.67,5.45,24.39.55,3.52-3.67,4.53-12.62,4.54-12.66h0c3.33,1.39,6.72,1.21,8.51-.55,2.27-2.23,1.37-6.48,0-8.8-3.75-6.34-15.06-5.07-29.5-6.05-12.26-.83-7.71-2-35.74-6.6-13.36-2.19-31.6-4.76-53.89-6.6"/><path class="cls-12" d="M161.88,196.82s-13.48-6.37-15.88-3.3c-1.92,2.45,5.15,8.56,2.83,13.2s-11.76,2.7-13,6.6c-1.11,3.35,5.6,5.61,7.37,13.2,1.48,6.31-1.91,10.11,0,11.55,3.06,2.32,10.89-8.12,23.26-8.25,5.16,0,5.26,1.75,12.48,3.3,15,3.24,19.77-3.45,34.61-1.65,12.81,1.56,12.1,6.88,22.12,6.6,12.61-.35,14.12-8.81,27.23-9.9,8.32-.69,7.94,2.7,26.1,5,17,2.11,20.92-.41,22.69-2.2,4.12-4.17,2.71-10.61,5.1-11,2.82-.46,3.64,8.66,10.21,11.55,7.13,3.14,12.31-4.86,22.7-2.75,5.27,1.07,4.54,3.26,13.61,7.7,7.8,3.82,16.34,8,22.69,5,5.43-2.6,4.53-8.2,10.78-10.45,5.11-1.83,9.1.69,10.21-1.1,1.38-2.2-5-5.49-7.94-13.75-2.58-7.35-.19-12.4-3.4-14.3-2.58-1.53-6.32.4-7.95,1.1-13,5.54-33.39-6.66-38.57-9.35C308.14,172.25,202.31,215.91,161.88,196.82Z"/><path d="M400.14,204.52c-4.23-9.06-6.38-25.51-20.3-37.41-28.54-24.38-69.19-23.49-92.08-24.75-59.18-3.27-137.45,15.86-143.64,50.06-1.28,7.1.79,13.52,3,18.15h253Z"/><circle class="cls-13" cx="203" cy="163" r="2"/><circle class="cls-13" cx="211" cy="178" r="2"/><circle class="cls-13" cx="182" cy="174" r="2"/><circle class="cls-13" cx="193" cy="187" r="2"/><circle class="cls-13" cx="201" cy="202" r="2"/><circle class="cls-13" cx="172" cy="198" r="2"/><circle class="cls-13" cx="244" cy="153" r="2"/><circle class="cls-13" cx="252" cy="168" r="2"/><circle class="cls-13" cx="223" cy="164" r="2"/><circle class="cls-13" cx="236" cy="181" r="2"/><circle class="cls-13" cx="244" cy="196" r="2"/><circle class="cls-13" cx="215" cy="192" r="2"/><circle class="cls-13" cx="282" cy="174" r="2"/><circle class="cls-13" cx="290" cy="189" r="2"/><circle class="cls-13" cx="261" cy="185" r="2"/><circle class="cls-13" cx="276" cy="191" r="2"/><circle class="cls-13" cx="284" cy="206" r="2"/><circle class="cls-13" cx="261" cy="202" r="2"/><circle class="cls-13" cx="289" cy="151" r="2"/><circle class="cls-13" cx="297" cy="166" r="2"/><circle class="cls-13" cx="268" cy="162" r="2"/><circle class="cls-13" cx="320" cy="189" r="2"/><circle class="cls-13" cx="328" cy="204" r="2"/><circle class="cls-13" cx="299" cy="200" r="2"/><circle class="cls-13" cx="327" cy="169" r="2"/><circle class="cls-13" cx="335" cy="184" r="2"/><circle class="cls-13" cx="306" cy="180" r="2"/><circle class="cls-13" cx="332" cy="150" r="2"/><circle class="cls-13" cx="340" cy="165" r="2"/><circle class="cls-13" cx="311" cy="161" r="2"/><circle class="cls-13" cx="369" cy="191" r="2"/><circle class="cls-13" cx="377" cy="206" r="2"/><circle class="cls-13" cx="348" cy="202" r="2"/><circle class="cls-13" cx="371" cy="174" r="2"/><circle class="cls-13" cx="379" cy="189" r="2"/><circle class="cls-13" cx="350" cy="185" r="2"/><circle class="cls-13" cx="359" cy="165" r="2"/><circle class="cls-13" cx="361" cy="204" r="2"/><circle class="cls-13" cx="228" cy="203" r="2"/><text class="cls-14" transform="translate(49.68 97.07)">DEAD-NOTE BURGER</text><text class="cls-15" transform="translate(361.07 426.75)">$ 30</text></g></svg>