<svg xmlns="http://www.w3.org/2000/svg" viewBox="0 0 544.92 214.03"><defs><style>.cls-1{fill:none;stroke:#e80006;stroke-miterlimit:10;}.cls-2{fill:#e80006;}</style></defs><g id="Capa_2" data-name="Capa 2"><path class="cls-1" d="M66.05,255.42s23.14-27.23,27.22-39.14,22.47-62.37,21.11-69.18,86.45-19.31,86.45-19.31v54.46" transform="translate(-54.57 -111)"/><path class="cls-2" d="M59.92,172.29l9.53,11.76s182.43-30.23,190.6-35.27S64,179,59.92,172.29Z" transform="translate(-54.57 -111)"/><path class="cls-2" d="M301.28,111.67c10.07-6.81-241.67,40.86-246.71,31.78l11.75,15.89" transform="translate(-54.57 -111)"/></g><g id="Capa_3" data-name="Capa 3"><path class="cls-2" d="M162.54,222.29q15.57.78,31.11,2.16l7.89.75A68,68,0,0,1,209,226c1.81.4,3.94,2.07,2.94,4.17-.57,1.22-2.18,1.62-3.39,1.79-2.66.37-5.45.29-8.14.42l-8.77.43c-1.92.09-1.93,3.09,0,3l8.77-.43c2.75-.13,5.55-.11,8.29-.44a8.2,8.2,0,0,0,5-2.08,5.43,5.43,0,0,0,1.08-5.76,6.82,6.82,0,0,0-5.58-4.1c-2.82-.47-5.72-.65-8.56-.93q-8.88-.87-17.77-1.54-10.11-.76-20.25-1.27c-1.93-.09-1.93,2.91,0,3Z" transform="translate(-54.57 -111)"/><path class="cls-2" d="M208.55,226.26c6.58.36,11.41-5.25,13.7-10.84a25.52,25.52,0,0,0-1-21,30.24,30.24,0,0,0-15-14.2c-8.21-3.56-17.21-3.57-26-3.51-9.57.07-19.15.15-28.7.87a135.18,135.18,0,0,0-26.24,4.13c-7.53,2.1-14.77,5.48-20.52,10.88S95,205.42,96.34,213.5c.6,3.51,2.42,7,5.6,8.76,3.5,2,7.71,1.68,11.58,1.62l29.17-.39,7.17-.1a1.5,1.5,0,0,0,0-3l-26.94.37c-4.32.06-8.64.19-13,.16-3.37,0-7-.52-9-3.56-4.08-6.17-1.27-14.38,3-19.57a40.54,40.54,0,0,1,17.83-11.86c7.36-2.61,15.21-3.88,23-4.74,8.79-1,17.64-1.29,26.48-1.41,8.33-.12,17-.7,25.21.68,7,1.17,13.36,4.1,18.12,9.43a24.55,24.55,0,0,1,6.4,18.26c-.5,5.49-3.4,12.28-8.84,14.53a8.17,8.17,0,0,1-3.62.58c-1.93-.1-1.92,2.9,0,3Z" transform="translate(-54.57 -111)"/><path class="cls-2" d="M106.46,223.62a2.27,2.27,0,0,0-4.06-1.91,8.37,8.37,0,0,0-1.29,6.15,11.74,11.74,0,0,0,8.35,9.72,32.48,32.48,0,0,0,7.27,1.13q4.58.36,9.15.56c6,.26,12.05.31,18.07.21,6.94-.12,13.87-.45,20.8-.9,1.91-.13,1.93-3.13,0-3-9.89.65-19.8,1-29.71.93-4.95,0-9.91-.23-14.85-.55-4.07-.27-8.94-.14-12.48-2.47a8.37,8.37,0,0,1-3.35-4.66,8.22,8.22,0,0,1-.35-2.7,5.94,5.94,0,0,1,.24-1.45c0-.16.1-.33.16-.48a3.11,3.11,0,0,1,.2-.41c.32-.47,0-.79-1-1-.37,1.89,2.52,2.69,2.9.8Z" transform="translate(-54.57 -111)"/><path class="cls-2" d="M102.92,244a7,7,0,0,0,.13,6.78,7.42,7.42,0,0,0,6.19,3.8c3,.24,6.17-.54,9.13-.94l10.13-1.39,20.74-2.85,9.87-1.36,4.94-.68a19.06,19.06,0,0,1,5-.49c1.57.23,2.22,1.85,2.77,3.15.7,1.64,1.34,3.31,2,5l4.47,11.07a1.53,1.53,0,0,0,2.51.67,62.82,62.82,0,0,1,17.44-12.29c5.27-2.46,11.58-4,14.08-9.85.75-1.75-1.83-3.28-2.59-1.51-2.4,5.63-9.15,6.85-14.13,9.31a65.58,65.58,0,0,0-16.92,12.22l2.5.66-3.82-9.46c-1.13-2.81-2.1-5.8-3.51-8.49a6.09,6.09,0,0,0-6.42-3.4c-3.21.31-6.41.87-9.6,1.31l-39.5,5.42c-1.95.27-3.89.56-5.84.8a10.4,10.4,0,0,1-4.41-.1c-2.23-.72-3.82-3.66-2.56-5.83a1.5,1.5,0,0,0-2.59-1.51Z" transform="translate(-54.57 -111)"/><path class="cls-2" d="M103.14,263.42a23.71,23.71,0,0,0-.16,9.27,1.52,1.52,0,0,0,1.45,1.1q24.34,1.06,48.71.75c16.16-.21,32.37-.73,48.47-2,3.4-.27,7-1,9.21-3.79a8.81,8.81,0,0,0,1.3-9.22c-.83-1.74-3.42-.22-2.59,1.51,1.07,2.25-.08,5.3-2,6.76-2.52,1.94-6.2,1.77-9.2,2q-11.42.75-22.85,1.2-22.6.9-45.24.58-12.92-.16-25.84-.74l1.45,1.1a20,20,0,0,1,.15-7.67c.41-1.88-2.48-2.69-2.89-.8Z" transform="translate(-54.57 -111)"/><path class="cls-2" d="M104,283c.78,3.76-.55,7.59-.5,11.37s1.86,7.09,5.65,8.3a34,34,0,0,0,6.11,1c2.52.32,5,.59,7.58.83q7.44.71,14.93,1a324.86,324.86,0,0,0,59.28-3.52c4.37-.64,9-1.82,11.93-5.41,2.64-3.25,3.92-7.88,2.38-11.9-.68-1.79-3.58-1-2.89.8a9.42,9.42,0,0,1-1.95,9.38c-2.53,2.87-6.46,3.67-10.07,4.21-9.13,1.37-18.33,2.32-27.53,2.93A281.17,281.17,0,0,1,114,300.48c-1.91-.25-4.23-.36-5.79-1.62s-1.74-3-1.75-4.7c0-4,1.23-8,.39-12-.39-1.89-3.28-1.09-2.89.8Z" transform="translate(-54.57 -111)"/><path d="M257.17,206.44,235,267.68,228.74,285c-.65,1.82,2.24,2.6,2.9.79l22.17-61.23,6.26-17.3c.66-1.82-2.24-2.6-2.9-.8Z" transform="translate(-54.57 -111)"/><path d="M240.29,227.83s.5.11.45.15-.1,0,0-.12-.12-.94-.12-1a5.88,5.88,0,0,1,.44-2.3,35.75,35.75,0,0,1,3.6-5.91,56.47,56.47,0,0,1,8.86-10,48.53,48.53,0,0,1,22-11.45,39.54,39.54,0,0,1,13.59-.57L288,195.15a44.27,44.27,0,0,1-9,21.92c-5,6.74-11.65,12.09-18.15,17.35l2.12,2.12c6.56-5.49,15.44-9.09,24.1-8.2,3.37.35,6.69,2.19,6.79,5.94a13.65,13.65,0,0,1-2,6.54c-1,1.92-2.13,3.79-3.28,5.64C280,260.21,268.23,272.12,254,280a76.79,76.79,0,0,1-24,8.63c-1.89.34-1.09,3.23.8,2.89,16.69-2.95,31.93-11.68,44-23.37a106.19,106.19,0,0,0,16.81-21.08c2.37-3.89,5.52-8.49,5.18-13.25-.3-4.18-3.31-7.07-7.23-8.09-4.63-1.2-10-.44-14.5.88a39.48,39.48,0,0,0-14.26,7.77c-1.49,1.24.64,3.31,2.12,2.12,6.83-5.52,13.62-11.16,18.85-18.28A46.84,46.84,0,0,0,291,195.15a1.49,1.49,0,0,0-1.1-1.45c-20.14-2.74-39,9.15-49.45,25.88-1.39,2.22-2.8,4.43-2.85,7.14,0,2.16,1,4.49,3.5,4,1.9-.37,1.1-3.26-.79-2.9Z" transform="translate(-54.57 -111)"/><path d="M304.51,230.75a169.45,169.45,0,0,0-3.42,21.93c-.33,3.7-.58,7.43-.62,11.14,0,3.29.19,6.83,2,9.7,1.54,2.5,4.12,4.14,7.12,3.4s5.22-3.07,6.9-5.38c3.79-5.17,5-11.81,5.42-18.07.51-8.36-.06-16.82-.24-25.18,0-1.93-3-1.94-3,0,.14,6.61.38,13.23.38,19.85,0,6.13-.36,12.56-3,18.21-1.54,3.3-7.08,11.3-10.8,6-1.79-2.56-1.81-6-1.74-9,.06-3.23.25-6.47.53-9.7a161.85,161.85,0,0,1,3.4-22.1c.42-1.88-2.48-2.68-2.9-.8Z" transform="translate(-54.57 -111)"/><path d="M328.2,232.62l1.42,37.8a1.5,1.5,0,0,0,3,0,155.06,155.06,0,0,1,3-22.2c1.57-6.74,4-13.48,8.53-18.83,1.24-1.47-.87-3.6-2.12-2.12-9.92,11.77-11.2,28.45-12.43,43.15h3l-1.42-37.8c-.07-1.92-3.07-1.93-3,0Z" transform="translate(-54.57 -111)"/><path d="M362.42,225.12c-2.2-2.82-5.64-.21-7.12,1.94a41.85,41.85,0,0,0-4.53,9.35,55.43,55.43,0,0,0-3.22,21.39c.2,4.23,2,13.36,8.21,11.71,2.93-.79,4.45-4,5.41-6.6a54.65,54.65,0,0,0,2.68-10.76c1.31-8.51,1.18-17.14,1-25.73h-3C363,246,361.39,265.58,359,285c-.61,4.93-1.27,9.85-1.95,14.77a122.48,122.48,0,0,1-2.15,13.64c-.83,3.26-2.69,8-6.54,8.66-3.54.58-6-3.65-7-6.44-2.46-7.25-.5-16.71,5.65-21.59,1.51-1.2-.63-3.31-2.12-2.12-6.11,4.85-8.36,13.64-7.23,21.11.58,3.88,2.29,8,5.49,10.42s7.33,1.91,10.23-.88c3.3-3.18,4.46-7.92,5.16-12.29.82-5.14,1.46-10.32,2.15-15.48,1.43-10.69,2.74-21.4,3.57-32.15a267,267,0,0,0,.55-36.22c-.11-1.91-3-1.94-3,0,.13,6.42.25,12.85-.25,19.26a71.42,71.42,0,0,1-1.33,9.42,35.86,35.86,0,0,1-2.65,8.56c-.73,1.45-2.36,4-4.23,2.58-1.67-1.3-2.27-4-2.6-5.93a37.44,37.44,0,0,1-.17-8.66,51.64,51.64,0,0,1,1.42-9.09,49.27,49.27,0,0,1,3.27-9.29,37.92,37.92,0,0,1,2.38-4.39,6.06,6.06,0,0,1,1.48-1.63c.51-.35.74-.51,1.13,0,1.18,1.53,3.29-.61,2.12-2.12Z" transform="translate(-54.57 -111)"/><path d="M379.3,248a18.43,18.43,0,0,0,10-4.17c2.95-2.41,5.71-5.92,6.24-9.79a8.53,8.53,0,0,0-4.27-8.67c-3.17-1.73-6.63-.83-9.34,1.33-3,2.41-5.08,6-6.56,9.51a37.8,37.8,0,0,0-2.73,11.38,38.18,38.18,0,0,0,.84,11.82c.86,3.72,2.31,7.59,5.49,9.94,5.79,4.26,17.56,1.87,18.69-6.14a1.56,1.56,0,0,0-1.05-1.85,1.51,1.51,0,0,0-1.84,1.05c-.77,5.44-8.38,7.3-12.79,5.26-3-1.39-4.34-4.49-5.2-7.49a33.94,33.94,0,0,1-1.28-9.3,33.39,33.39,0,0,1,5-18c1.52-2.35,3.89-5.21,6.92-5.43,2.43-.19,4.61,1.87,5.12,4.15.77,3.44-1.83,6.85-4.15,9.08A15.32,15.32,0,0,1,379.3,245c-1.91.18-1.92,3.18,0,3Z" transform="translate(-54.57 -111)"/><path d="M403.23,226.45c2.31,1.79,3.17,5.12,3.89,7.8,1,3.75,1.84,7.55,2.54,11.37A151.63,151.63,0,0,1,412,269h3a91.57,91.57,0,0,1,1.09-26c1.25-6.57,3.72-16.42,11.42-18,1.89-.4,1.09-3.3-.8-2.9-8.33,1.78-11.72,11.49-13.24,18.8A93.48,93.48,0,0,0,412,269c.18,1.88,3,2,3,0a156,156,0,0,0-2.66-25.13,120.39,120.39,0,0,0-2.73-11.74c-.94-3.16-2.24-6.22-4.91-8.28a1.51,1.51,0,0,0-2.05.54,1.53,1.53,0,0,0,.54,2Z" transform="translate(-54.57 -111)"/><path d="M463,194.32a12,12,0,0,0-1.72-12.73c-3-3.73-7.8-4.35-12-2.22-4.83,2.47-7.62,7.55-9.27,12.51-2,5.9-2.75,12.24-3.62,18.38A219.73,219.73,0,0,0,434,249.2c.23,5.64.92,11.65,3.94,16.55a16.1,16.1,0,0,0,11.49,7.76,11.37,11.37,0,0,0,7.78-1.65c2.69-1.85,3.66-4.78,4.33-7.82a82.3,82.3,0,0,0,1.54-17.86,1.5,1.5,0,0,0-3,0,85,85,0,0,1-.74,13.44c-.39,2.42-.68,5.36-1.87,7.52a6.7,6.7,0,0,1-5.38,3.43c-4.07.45-8-1.7-10.48-4.79-3.09-3.79-4.06-9-4.44-13.72a139.71,139.71,0,0,1-.09-16.75c.23-5.81.69-11.6,1.34-17.37.64-5.61,1.44-11.22,2.44-16.78.9-4.95,2-10.11,4.8-14.38,2.28-3.51,7.27-7.55,11.57-4.86,3.35,2.09,4.93,7.35,3.15,10.89-.87,1.72,1.72,3.24,2.59,1.51Z" transform="translate(-54.57 -111)"/><path d="M463.19,251.35q.35-8.32.09-16.65a1.53,1.53,0,0,0-1.1-1.45,56.45,56.45,0,0,0-13.74-.61c-1.91.15-1.93,3.16,0,3a52.9,52.9,0,0,1,12.94.51l-1.1-1.45q.25,8.33-.09,16.65c-.09,1.93,2.91,1.92,3,0Z" transform="translate(-54.57 -111)"/><path d="M478,246.4c4.33-.89,8.86.94,13.13-.46a10.67,10.67,0,0,0,6.87-6.63,8.66,8.66,0,0,0-2.54-9.1,11.1,11.1,0,0,0-8.88-2.43c-7.82,1.05-13.47,7.72-15.49,15a27.78,27.78,0,0,0-.57,12.1c.68,3.91,2.26,7.89,5.81,10s8.28,2.65,12.27,2.3a17.83,17.83,0,0,0,11.26-5.1,1.5,1.5,0,0,0-2.12-2.12c-4.52,4.54-11.29,5.11-17.22,3.43a9,9,0,0,1-6.5-6.68,23.79,23.79,0,0,1-.65-10.31c1-6.26,4.53-12.56,10.7-14.92a10.09,10.09,0,0,1,7.5-.23,5.93,5.93,0,0,1,3.8,6.16,7.4,7.4,0,0,1-5.64,5.8,19.43,19.43,0,0,1-6.09.06,23.54,23.54,0,0,0-6.44.22c-1.89.39-1.09,3.28.8,2.9Z" transform="translate(-54.57 -111)"/><path d="M559,180.41q-3,18.9-7,37.61c-2.54,11.68-5.1,23.49-9,34.81a79.7,79.7,0,0,1-8.16,17.32c-1,1.63,1.55,3.13,2.6,1.51,6.26-9.72,9.72-20.94,12.57-32.06,3.15-12.27,5.84-24.66,8.22-37.1q2-10.62,3.71-21.29c.3-1.89-2.59-2.71-2.89-.8Z" transform="translate(-54.57 -111)"/><path d="M549.87,227.74c3.76,1.6,7.26-.67,10.2-2.94a42.49,42.49,0,0,0,7.51-7.59c4.9-6.3,8.35-13.54,11.26-20.94,1.79-4.54,3.37-9.16,4.94-13.78.63-1.83-2.27-2.62-2.89-.8-3.14,9.21-6.27,18.53-11.18,27a52.56,52.56,0,0,1-7.54,10.23,34.59,34.59,0,0,1-4.69,4.12c-1.58,1.13-4,3-6.09,2.13a1.56,1.56,0,0,0-2.06.54,1.51,1.51,0,0,0,.54,2.05Z" transform="translate(-54.57 -111)"/><path d="M554.51,228.2a5.65,5.65,0,0,1,6.72-.7,11.69,11.69,0,0,1,4.12,5.33c2.41,5.26,3.27,11.33,4.23,17s1.48,11.63,4.77,16.37a11,11,0,0,0,5.82,4.57,12.37,12.37,0,0,0,8.11-.94c5.33-2.22,11.82-5.86,11.17-12.61-.19-1.9-3.19-1.92-3,0a7.25,7.25,0,0,1-3.17,6.56,26.75,26.75,0,0,1-7.44,3.77c-2.54.82-5.18.83-7.27-1A14.48,14.48,0,0,1,574.7,260c-1.82-5.66-2.24-11.75-3.45-17.56-1-4.93-2.18-10.35-5.25-14.47a10.1,10.1,0,0,0-5.94-4.13,8.92,8.92,0,0,0-7.67,2.23c-1.46,1.27.67,3.38,2.12,2.12Z" transform="translate(-54.57 -111)"/><path d="M512.47,247.27c4.33-.88,8.86.94,13.13-.46a10.64,10.64,0,0,0,6.87-6.62,8.68,8.68,0,0,0-2.54-9.11,11.16,11.16,0,0,0-8.88-2.43c-7.81,1-13.47,7.73-15.49,15a28,28,0,0,0-.57,12.11c.68,3.9,2.27,7.88,5.82,10s8.27,2.65,12.26,2.3A17.79,17.79,0,0,0,534.33,263a1.5,1.5,0,0,0-2.12-2.13c-4.51,4.55-11.29,5.12-17.22,3.43a9,9,0,0,1-6.49-6.67,23.54,23.54,0,0,1-.65-10.32c1-6.26,4.52-12.55,10.69-14.92a10.09,10.09,0,0,1,7.5-.23,5.93,5.93,0,0,1,3.8,6.16c-.37,2.88-2.92,5.12-5.63,5.8a19.2,19.2,0,0,1-6.1.07,23.17,23.17,0,0,0-6.44.22c-1.89.38-1.09,3.28.8,2.89Z" transform="translate(-54.57 -111)"/></g></svg>