<svg id="Capa_1" data-name="Capa 1" xmlns="http://www.w3.org/2000/svg" xmlns:xlink="http://www.w3.org/1999/xlink" viewBox="0 0 566.93 481.89"><defs><style>.cls-1{opacity:0.87;fill:url(#Degradado_sin_nombre_5);}.cls-1,.cls-10,.cls-16,.cls-17,.cls-18,.cls-19,.cls-20,.cls-21,.cls-22,.cls-23,.cls-24,.cls-25,.cls-26,.cls-27,.cls-28,.cls-29,.cls-30{isolation:isolate;}.cls-2{fill:#e31013;}.cls-10,.cls-3,.cls-30{fill:none;}.cls-3{stroke:#e31013;}.cls-10,.cls-3{stroke-miterlimit:10;}.cls-4{fill:#010101;}.cls-5{fill:#1d1d1b;}.cls-6{fill:#ffecc2;}.cls-7{fill:#743d10;}.cls-8{fill:#cf1417;}.cls-9{fill:#4a2a20;}.cls-10,.cls-17,.cls-18,.cls-19,.cls-20,.cls-21,.cls-22,.cls-23,.cls-24,.cls-25,.cls-26,.cls-27,.cls-28,.cls-29,.cls-30{font-size:72px;font-family:FranklinGothic-Medium, Franklin Gothic Medium;font-weight:500;}.cls-10,.cls-30{stroke:#1d1d1b;}.cls-10{stroke-width:5px;}.cls-11{fill:#e4201b;}.cls-12{fill:#086c30;}.cls-13{fill:#66140d;}.cls-14{fill:#edefb6;}.cls-15,.cls-29{fill:#fff;}.cls-17{fill:#6bc6dd;}.cls-18{fill:#d8da00;}.cls-19{fill:#bd1818;}.cls-20{fill:#4cad33;}.cls-21{fill:#68c6e0;}.cls-22{fill:#d9db22;}.cls-23{fill:#d72116;}.cls-24{fill:#4eae33;}.cls-25{fill:#1db8d4;}.cls-26{fill:#e7e11b;}.cls-27{fill:#d71b16;}.cls-28{fill:#1fa637;}.cls-30{stroke-width:2px;}</style><linearGradient id="Degradado_sin_nombre_5" x1="283.46" x2="283.46" y2="481.89" gradientTransform="matrix(1, 0, 0, -1, 0, 481.89)" gradientUnits="userSpaceOnUse"><stop offset="0.01" stop-color="#68140e"/><stop offset="0.05" stop-color="#761f1a"/><stop offset="0.14" stop-color="#a14140"/><stop offset="0.23" stop-color="#c35d5d"/><stop offset="0.32" stop-color="#dc7073"/><stop offset="0.39" stop-color="#eb7c80"/><stop offset="0.45" stop-color="#f08084"/><stop offset="0.52" stop-color="#ea7b7f"/><stop offset="0.62" stop-color="#d86d6f"/><stop offset="0.69" stop-color="#bb5656"/><stop offset="0.79" stop-color="#923634"/><stop offset="0.92" stop-color="#67140f"/></linearGradient></defs><g id="Capa_2" data-name="Capa 2"><rect class="cls-1" width="566.93" height="481.89"/><path class="cls-2" d="M252.85,457.29q2.91.15,5.82.4l1.47.14a10.89,10.89,0,0,1,1.4.15c.33.07.73.38.55.76a.79.79,0,0,1-.64.33,15.16,15.16,0,0,1-1.52.08l-1.64.08c-.36,0-.36.57,0,.55l1.64-.08a10.33,10.33,0,0,0,1.55-.08,1.54,1.54,0,0,0,.94-.38,1,1,0,0,0,.2-1.06,1.31,1.31,0,0,0-1.05-.76c-.52-.08-1.07-.12-1.6-.17-1.1-.1-2.21-.2-3.32-.28s-2.52-.17-3.79-.23a.28.28,0,0,0,0,.55Z" transform="translate(0 0)"/><g id="Capa_2-2" data-name="Capa 2-2"><path class="cls-3" d="M234.8,463.39s4.33-5,5.09-7.2,4.2-11.48,4-12.74S260,439.9,260,439.9v10" transform="translate(0 0)"/><path class="cls-2" d="M233.65,448.09l1.78,2.16s34.13-5.56,35.66-6.49S234.41,449.33,233.65,448.09Z" transform="translate(0 0)"/><path class="cls-2" d="M278.8,436.93c1.88-1.25-45.21,7.52-46.15,5.85l2.2,2.93" transform="translate(0 0)"/></g><path class="cls-2" d="M261.45,458a2.83,2.83,0,0,0,2.56-2,4.64,4.64,0,0,0-.18-3.87,5.71,5.71,0,0,0-2.81-2.61,12,12,0,0,0-4.86-.65c-1.79,0-3.58,0-5.37.16a26.26,26.26,0,0,0-4.91.76,9.2,9.2,0,0,0-3.84,2,4.36,4.36,0,0,0-1.58,3.85,2.31,2.31,0,0,0,1,1.61,4.23,4.23,0,0,0,2.17.3l5.45-.08h1.34a.28.28,0,0,0,0-.56l-5,.07H243a1.86,1.86,0,0,1-1.68-.65,3.13,3.13,0,0,1,.56-3.61,7.63,7.63,0,0,1,3.34-2.18,19.77,19.77,0,0,1,4.3-.87,48.13,48.13,0,0,1,4.95-.26,26.6,26.6,0,0,1,4.72.12,5.74,5.74,0,0,1,3.39,1.74,4.44,4.44,0,0,1,1.19,3.36,3.18,3.18,0,0,1-1.65,2.67,1.44,1.44,0,0,1-.68.11.28.28,0,0,0,0,.55Z" transform="translate(0 0)"/><path class="cls-2" d="M242.36,457.54a.43.43,0,0,0-.25-.54.42.42,0,0,0-.51.19,1.47,1.47,0,0,0-.24,1.13,2.14,2.14,0,0,0,1.56,1.79,6.21,6.21,0,0,0,1.36.21l1.71.1c1.12.05,2.25.06,3.38,0,1.3,0,2.59-.09,3.89-.17.36,0,.36-.57,0-.55-1.85.12-3.7.18-5.56.17a25.92,25.92,0,0,1-2.78-.1,4.94,4.94,0,0,1-2.33-.46,1.49,1.49,0,0,1-.63-.85,1.4,1.4,0,0,1-.06-.5,1.22,1.22,0,0,1,0-.27v-.16c.06-.09,0-.15-.19-.18-.07.34.47.49.55.14Z" transform="translate(0 0)"/><path class="cls-2" d="M241.69,461.29a1.27,1.27,0,0,0,0,1.25,1.4,1.4,0,0,0,1.16.7,8.11,8.11,0,0,0,1.7-.18l1.9-.25,3.88-.53,1.84-.25.93-.12a3.63,3.63,0,0,1,.93-.09c.3,0,.42.34.52.58l.38.92.83,2a.29.29,0,0,0,.36.19.24.24,0,0,0,.11-.06,11.68,11.68,0,0,1,3.26-2.26c1-.46,2.17-.74,2.64-1.82.14-.32-.34-.6-.49-.27-.45,1-1.71,1.26-2.64,1.71a12.37,12.37,0,0,0-3.16,2.25l.46.12-.71-1.74a15.18,15.18,0,0,0-.66-1.56,1.13,1.13,0,0,0-1.2-.63c-.6.06-1.2.16-1.8.24l-7.38,1-1.1.15a2.26,2.26,0,0,1-.82,0,.78.78,0,0,1-.51-1l0-.09a.28.28,0,0,0-.48-.27h0Z" transform="translate(0 0)"/><path class="cls-2" d="M241.74,464.86a4.11,4.11,0,0,0,0,1.71.27.27,0,0,0,.27.2c3,.13,6.06.17,9.11.14s6.05-.13,9.06-.37a2.33,2.33,0,0,0,1.73-.7,1.6,1.6,0,0,0,.24-1.69c-.16-.32-.64,0-.48.28a1.08,1.08,0,0,1-.38,1.24,3.21,3.21,0,0,1-1.72.37c-1.42.09-2.85.16-4.27.22-2.82.11-5.64.14-8.47.11-1.61,0-3.22-.07-4.83-.14l.27.2a3.72,3.72,0,0,1,0-1.41c.08-.35-.46-.5-.54-.15Z" transform="translate(0 0)"/><path class="cls-2" d="M241.9,468.47a11.22,11.22,0,0,1-.1,2.09,1.53,1.53,0,0,0,1.06,1.53,7.31,7.31,0,0,0,1.14.18c.47.06.94.11,1.42.15.93.09,1.86.15,2.79.19A61.42,61.42,0,0,0,259.3,472a3.36,3.36,0,0,0,2.23-1,2.22,2.22,0,0,0,.45-2.19c-.13-.33-.67-.18-.54.15a1.74,1.74,0,0,1-.37,1.73,3,3,0,0,1-1.88.77c-1.71.26-3.43.43-5.15.54a52.64,52.64,0,0,1-10.27-.28,2.2,2.2,0,0,1-1.09-.29,1,1,0,0,1-.32-.87,10.2,10.2,0,0,0,.07-2.21c-.07-.35-.61-.2-.54.15Z" transform="translate(0 0)"/><path class="cls-4" d="M270.55,454.38l-4.15,11.27-1.17,3.19c-.12.33.42.47.54.14l4.15-11.27,1.17-3.18c.12-.34-.42-.48-.54-.15Z" transform="translate(0 0)"/><path class="cls-4" d="M267.39,458.31h.08v-.19a1.2,1.2,0,0,1,.08-.42,6.84,6.84,0,0,1,.68-1.09,10.69,10.69,0,0,1,1.65-1.84,9.1,9.1,0,0,1,4.12-2.1,7.47,7.47,0,0,1,2.54-.11l-.21-.27a8,8,0,0,1-1.68,4,18.7,18.7,0,0,1-3.39,3.2l.39.39a6.3,6.3,0,0,1,4.51-1.51c.63.06,1.25.4,1.27,1.09a2.56,2.56,0,0,1-.37,1.2,8.09,8.09,0,0,1-.62,1,17.81,17.81,0,0,1-6.47,6.17,14.08,14.08,0,0,1-4.49,1.59c-.35.07-.2.6.15.54a16,16,0,0,0,8.23-4.31,19.61,19.61,0,0,0,3.15-3.88,4.45,4.45,0,0,0,1-2.43,1.68,1.68,0,0,0-1.35-1.49,5.45,5.45,0,0,0-2.72.16,7.16,7.16,0,0,0-2.66,1.43c-.28.23.12.61.39.39a19.11,19.11,0,0,0,3.53-3.37,8.47,8.47,0,0,0,1.72-4.24.26.26,0,0,0-.2-.27c-3.77-.5-7.3,1.68-9.25,4.76a2.56,2.56,0,0,0-.53,1.32c0,.4.18.82.65.73s.21-.6-.15-.53Z" transform="translate(0 0)"/><path class="cls-4" d="M279.4,458.85a31.72,31.72,0,0,0-.64,4c-.06.68-.11,1.36-.11,2a3.24,3.24,0,0,0,.37,1.78,1.23,1.23,0,0,0,1.33.63,2.42,2.42,0,0,0,1.29-1,6.25,6.25,0,0,0,1-3.33c.09-1.54,0-3.09-.05-4.63a.28.28,0,0,0-.56,0c0,1.21.07,2.43.07,3.65a7.84,7.84,0,0,1-.56,3.35c-.29.61-1.32,2.08-2,1.11a2.83,2.83,0,0,1-.33-1.66c0-.59.05-1.19.1-1.79A29.31,29.31,0,0,1,280,459c.08-.35-.46-.5-.54-.15Z" transform="translate(0 0)"/><path class="cls-4" d="M283.83,459.19l.27,7a.29.29,0,0,0,.28.28.3.3,0,0,0,.28-.28,28,28,0,0,1,.56-4.08,8,8,0,0,1,1.6-3.47c.23-.27-.17-.66-.4-.39-1.86,2.17-2.1,5.24-2.33,7.94h.57l-.27-7c0-.35-.57-.35-.56,0Z" transform="translate(0 0)"/><path class="cls-4" d="M290.23,457.81c-.41-.52-1.05,0-1.33.36a7.87,7.87,0,0,0-.85,1.72,10.16,10.16,0,0,0-.6,3.94c0,.78.38,2.46,1.54,2.15.55-.14.83-.73,1-1.21a10.65,10.65,0,0,0,.5-2,26.83,26.83,0,0,0,.19-4.74h-.53a59,59,0,0,1-.54,10.79c-.11.9-.23,1.81-.36,2.71a23.82,23.82,0,0,1-.4,2.51c-.16.6-.51,1.48-1.23,1.6s-1.12-.67-1.31-1.19a3.68,3.68,0,0,1,1.06-4c.28-.22-.12-.61-.4-.39a4.2,4.2,0,0,0-1.35,3.88,2.9,2.9,0,0,0,1,1.92,1.44,1.44,0,0,0,1.91-.16,3.89,3.89,0,0,0,1-2.26c.15-.95.27-1.9.4-2.85.27-2,.51-3.94.67-5.92a47.91,47.91,0,0,0,.1-6.67.28.28,0,1,0-.56,0,35,35,0,0,1-.05,3.55,11.27,11.27,0,0,1-.25,1.73,6.17,6.17,0,0,1-.49,1.58c-.14.27-.44.74-.79.47a1.72,1.72,0,0,1-.49-1.09,7,7,0,0,1,0-1.59,10.54,10.54,0,0,1,.26-1.67,9.44,9.44,0,0,1,.62-1.71,7.89,7.89,0,0,1,.44-.81,1,1,0,0,1,.28-.3c.09-.07.14-.1.21,0,.22.28.62-.11.4-.39Z" transform="translate(0 0)"/><path class="cls-4" d="M293.39,462a3.6,3.6,0,0,0,1.87-.77,3.09,3.09,0,0,0,1.17-1.8,1.53,1.53,0,0,0-2.55-1.36,4.41,4.41,0,0,0-1.22,1.76,6.49,6.49,0,0,0-.51,2.17,7.25,7.25,0,0,0,.15,2.18,3,3,0,0,0,1,1.82c1.08.79,3.28.35,3.5-1.13a.28.28,0,0,0-.55-.14c-.14,1-1.56,1.34-2.39,1a2,2,0,0,1-1-1.38,6.19,6.19,0,0,1-.24-1.71,6.09,6.09,0,0,1,.94-3.32,1.9,1.9,0,0,1,1.29-1,1,1,0,0,1,1,.77,2,2,0,0,1-.78,1.67,2.92,2.92,0,0,1-1.7.79A.23.23,0,1,0,293.39,462Z" transform="translate(0 0)"/><path class="cls-4" d="M297.87,458.06a2.69,2.69,0,0,1,.73,1.43c.18.69.34,1.39.47,2.1a27,27,0,0,1,.44,4.3h.56a16.73,16.73,0,0,1,.2-4.79c.24-1.2.7-3,2.14-3.31.35-.07.2-.61-.15-.53-1.56.33-2.19,2.11-2.48,3.46a16.93,16.93,0,0,0-.27,5.17.28.28,0,0,0,.56,0,28.88,28.88,0,0,0-.5-4.63,19.93,19.93,0,0,0-.51-2.16,2.9,2.9,0,0,0-.92-1.52.27.27,0,0,0-.37.09.28.28,0,0,0,.09.38Z" transform="translate(0 0)"/><path class="cls-4" d="M309.05,452.14a2.2,2.2,0,0,0-.32-2.34,1.8,1.8,0,0,0-2.25-.41,3.88,3.88,0,0,0-1.73,2.31,17.61,17.61,0,0,0-.68,3.38,40.94,40.94,0,0,0-.45,7.17,6.26,6.26,0,0,0,.74,3,3,3,0,0,0,2.15,1.43,2.17,2.17,0,0,0,1.45-.3,2.12,2.12,0,0,0,.81-1.44,14.55,14.55,0,0,0,.29-3.29.29.29,0,0,0-.28-.28.3.3,0,0,0-.28.28,14.56,14.56,0,0,1-.14,2.47,4,4,0,0,1-.35,1.39,1.26,1.26,0,0,1-1,.63,2.28,2.28,0,0,1-2-.88,4.5,4.5,0,0,1-.83-2.53,22.61,22.61,0,0,1,0-3.08,28.54,28.54,0,0,1,.25-3.2c.12-1.06.27-2.06.46-3.09a6.89,6.89,0,0,1,.89-2.64c.43-.65,1.36-1.39,2.17-.9a1.68,1.68,0,0,1,.59,2c-.17.31.32.59.48.27Z" transform="translate(0 0)"/><path class="cls-4" d="M309.08,462.64c.05-1,.05-2,0-3.06a.28.28,0,0,0-.21-.27,10.53,10.53,0,0,0-2.57-.11c-.35,0-.36.58,0,.55a10.31,10.31,0,0,1,2.42.09l-.2-.26v3.06a.28.28,0,1,0,.56,0Z" transform="translate(0 0)"/><path class="cls-4" d="M311.85,461.73c.81-.16,1.66.17,2.46-.08a2,2,0,0,0,1.28-1.22,1.57,1.57,0,0,0-.47-1.68,2.11,2.11,0,0,0-1.66-.45,3.7,3.7,0,0,0-2.9,2.76,5.1,5.1,0,0,0-.11,2.23,2.58,2.58,0,0,0,1.09,1.84,4,4,0,0,0,2.3.43,3.39,3.39,0,0,0,2.1-.94.27.27,0,0,0,0-.38h0a.28.28,0,0,0-.38,0,3.3,3.3,0,0,1-3.23.63,1.69,1.69,0,0,1-1.21-1.23,4.37,4.37,0,0,1-.12-1.9,3.41,3.41,0,0,1,2-2.75,1.88,1.88,0,0,1,1.4,0,1.09,1.09,0,0,1,.71,1.14,1.36,1.36,0,0,1-1.05,1.06,3.63,3.63,0,0,1-1.14,0,4.9,4.9,0,0,0-1.21,0c-.35.08-.2.61.15.54Z" transform="translate(0 0)"/><path class="cls-4" d="M327,449.58c-.37,2.32-.81,4.63-1.3,6.93a56.87,56.87,0,0,1-1.69,6.4,15.06,15.06,0,0,1-1.52,3.19c-.19.3.29.58.48.28a19.7,19.7,0,0,0,2.35-5.9q.89-3.39,1.54-6.83c.25-1.3.48-2.61.69-3.92.06-.35-.48-.5-.54-.15Z" transform="translate(0 0)"/><path class="cls-4" d="M325.3,458.3a1.93,1.93,0,0,0,1.9-.55,7.73,7.73,0,0,0,1.41-1.39,15.1,15.1,0,0,0,2.11-3.86c.33-.83.63-1.68.92-2.53.12-.34-.43-.48-.54-.15a27.38,27.38,0,0,1-2.09,5,9.93,9.93,0,0,1-1.41,1.88,6.4,6.4,0,0,1-.88.76c-.3.21-.75.55-1.14.39a.29.29,0,0,0-.38.1.26.26,0,0,0,.09.37h0Z" transform="translate(0 0)"/><path class="cls-4" d="M326.15,458.38a1.09,1.09,0,0,1,1.26-.13,2.17,2.17,0,0,1,.77,1,12.51,12.51,0,0,1,.79,3.13,7,7,0,0,0,.9,3,2,2,0,0,0,1.08.85,2.35,2.35,0,0,0,1.52-.18c1-.41,2.21-1.08,2.09-2.32,0-.35-.6-.35-.56,0a1.33,1.33,0,0,1-.59,1.21,4.94,4.94,0,0,1-1.4.69,1.36,1.36,0,0,1-1.36-.18,2.72,2.72,0,0,1-.72-1.21,29.28,29.28,0,0,1-.64-3.23,6.38,6.38,0,0,0-1-2.66,1.89,1.89,0,0,0-1.11-.76,1.67,1.67,0,0,0-1.43.41c-.28.23.12.62.39.39Z" transform="translate(0 0)"/><path class="cls-4" d="M318.3,461.89c.81-.16,1.66.17,2.46-.08a2,2,0,0,0,1.28-1.22,1.59,1.59,0,0,0-.47-1.68,2.11,2.11,0,0,0-1.66-.45,3.68,3.68,0,0,0-2.9,2.76,5.1,5.1,0,0,0-.11,2.23,2.58,2.58,0,0,0,1.09,1.84,4,4,0,0,0,2.29.43,3.46,3.46,0,0,0,2.11-.93.28.28,0,0,0,0-.4h0a.3.3,0,0,0-.4,0,3.26,3.26,0,0,1-3.22.64,1.69,1.69,0,0,1-1.21-1.23,4.22,4.22,0,0,1-.12-1.9,3.41,3.41,0,0,1,2-2.75,1.88,1.88,0,0,1,1.4,0,1.09,1.09,0,0,1,.71,1.13,1.37,1.37,0,0,1-1,1.07,3.12,3.12,0,0,1-1.14,0,4.9,4.9,0,0,0-1.21,0c-.35.07-.2.61.15.54Z" transform="translate(0 0)"/></g><g id="Capa_4" data-name="Capa 4"><path class="cls-5" d="M435.56,76.26c.59,11.24,2.59,16.3,2.59,16.3.64,1.58,1.68,3.83.76,4.73-1.66,1.61-7.17-3.5-11.26-1.73-3.65,1.57-3.95,7.69-4,8.67-.37,7.35,4.89,15.37,12,17.94,4.77,1.72,6.54-.4,12,1.47,5.92,2,8.56,6.06,10.94,8.32,11.54,10.95,41,2.58,56.88-5.39,8-4,20.58-10.29,22.84-20.51.63-2.85,2-12.78,2-12.78h0a17.76,17.76,0,0,0,5.39-1.47c1.27-.71,2.19-1.91,3.75-6.89s2.31-7.35,2.4-9.85.41-10.86-4.17-13.39c-4.06-2.25-8,2.21-12.66.14-4.31-1.93-3.89-7.15-6.27-11-6.63-10.68-33-7.78-46.86-4.63C459.66,51.23,435,64.77,435.56,76.26Z" transform="translate(0 0)"/><path class="cls-5" d="M521.73,49.4a28.57,28.57,0,0,1,4.09,13.14c.11,2.56,0,9.74,2.13,13.48a5.08,5.08,0,0,0,2.32,2.37c1.52.65,2.45-.13,3.46.58s.42,2.17,1.62,3.72c.91,1.17,2.65,2.1,3.55,1.69.7-.33,1.43-1.7.12-8A82.08,82.08,0,0,0,530.44,54" transform="translate(0 0)"/><path class="cls-5" d="M436.59,77.06a28.77,28.77,0,0,0,5.14,12.79c1.55,2.1,6.19,7.74,6.91,11.93a4.74,4.74,0,0,1-.33,3.23c-.79,1.4-2,1.32-2.37,2.47-.4,1.32,1.06,2,1.09,3.9,0,1.45-.76,3.21-1.74,3.4-.76.15-2.21-.51-5.18-6.25a81.56,81.56,0,0,1-7.52-22.8" transform="translate(0 0)"/><path class="cls-5" d="M456.69,16.08a61,61,0,0,0-19.45,14.26A67.6,67.6,0,0,0,420.92,60c-1.38,5.5-3.12,12.85-.63,21.47,1.55,5.36,5.28,13.09,9.84,13.54a3.84,3.84,0,0,0,2.74-.61c1.54-1.25.65-3.64,1.1-6,.62-3.28,3.48-5.14,6-7.07,8.43-6.31,7.21-8.44,14.59-13.81,6.63-4.82,12.56-6.7,20.9-9.34C491.8,53,503.83,53,513,53.09c9.55.08,15,1.2,18,4.93,1.86,2.31,2.43,5.24,3.94,5.24,2,0,3.78-5.36,4.27-7.91,2.59-13.32-13.68-27.21-16-29.12C506.28,12.08,478.69,6.28,456.69,16.08Z" transform="translate(0 0)"/><path class="cls-5" d="M454.89,104a14.23,14.23,0,0,0,6.83,2.6c4.21.36,6.21-1.61,9-.38,2.22,1,1.89,2.61,4.46,5.07a17.29,17.29,0,0,0,8.88,4.21c5.55,1.07,9.95-.69,13.7-2.19,5.35-2.13,10.93-4.35,12.68-9.22,1.54-4.28-.88-7.92,2-10.87,1.18-1.19,1.72-.73,3.7-2,5.22-3.48,4.69-8.81,7.37-9.2,2.32-.34,5.83,3.25,5.89,6.6,0,3.18-3.09,4-4.18,9-.7,3.21.42,3.6-.49,5.26-2,3.66-7.62,2.07-11.82,5.83-2.72,2.43-.89,4.39-3.5,6.76-2.91,2.64-5.31.89-10.33,3.35s-4.78,5.2-8.09,5.51c-3.92.37-4.92-3.46-9.51-3.48-4.33,0-5.2,3.38-8.74,2.84s-3.38-3.93-8.35-6c-3.44-1.46-4.85-.4-6.83-1.75S454,111.61,454.89,104Z" transform="translate(0 0)"/><path class="cls-5" d="M470.86,75c-.24.5-5.6-3.36-11.52-1.65-6.27,1.82-7.84,8.35-9.94,7.77-2.49-.7-3.88-11,.6-14.09C456.27,62.67,471.28,74.16,470.86,75Z" transform="translate(0 0)"/><path class="cls-5" d="M491.74,68.22c.51.25,2.3-5.93,8.08-8,6.12-2.22,11.54,2,12.83.36,1.54-2-3.92-11-9.46-10.82C495.44,49.94,490.87,67.8,491.74,68.22Z" transform="translate(0 0)"/><path class="cls-5" d="M30.7,406.48c.56,11.25,2.6,16.31,2.6,16.31.63,1.58,1.68,3.83.75,4.73-1.66,1.61-7.17-3.5-11.25-1.74-3.65,1.58-4,7.69-4,8.68-.37,7.35,4.89,15.37,12,17.94,4.77,1.72,6.54-.4,12,1.47,5.91,2,8.55,6.06,10.93,8.31,11.55,11,41,2.58,56.88-5.38,8-4,20.58-10.29,22.84-20.51.63-2.86,2-12.78,2-12.78h0a17.76,17.76,0,0,0,5.39-1.47c1.27-.72,2.19-1.91,3.75-6.89s2.31-7.35,2.41-9.85.4-10.86-4.18-13.39c-4-2.25-8,2.21-12.65.14-4.32-1.93-3.89-7.15-6.28-11-6.63-10.68-33-7.79-46.86-4.63C54.8,381.46,30.15,395,30.7,406.48Z" transform="translate(0 0)"/><path class="cls-5" d="M116.88,379.63A28.56,28.56,0,0,1,121,392.76c.11,2.57,0,9.75,2.14,13.49a5,5,0,0,0,2.32,2.37c1.52.65,2.44-.14,3.45.57s.42,2.18,1.62,3.73c.91,1.17,2.65,2.1,3.56,1.68.69-.32,1.42-1.69.11-8a81.88,81.88,0,0,0-8.58-22.45" transform="translate(0 0)"/><path class="cls-5" d="M31.73,407.28a28.75,28.75,0,0,0,5.15,12.8c1.54,2.1,6.19,7.74,6.9,11.93a4.74,4.74,0,0,1-.33,3.23c-.79,1.4-2,1.32-2.37,2.47-.4,1.32,1.06,2,1.09,3.9,0,1.45-.76,3.2-1.74,3.4-.76.15-2.21-.51-5.18-6.26A81.89,81.89,0,0,1,27.73,416" transform="translate(0 0)"/><path class="cls-5" d="M51.84,346.31a60.55,60.55,0,0,0-19.45,14.26,67.49,67.49,0,0,0-16.33,29.68c-1.37,5.51-3.12,12.86-.63,21.48,1.55,5.36,5.28,13.08,9.84,13.53a3.84,3.84,0,0,0,2.74-.6c1.55-1.25.66-3.64,1.1-6,.62-3.29,3.48-5.15,6.06-7.07,8.42-6.31,7.2-8.44,14.58-13.82,6.63-4.82,12.56-6.69,20.91-9.34,16.29-5.16,28.31-5.16,37.48-5.08,9.55.08,15,1.19,18,4.92,1.85,2.32,2.42,5.25,3.93,5.25,2,0,3.78-5.36,4.28-7.91,2.58-13.33-13.69-27.21-16-29.13C101.43,342.31,73.83,336.5,51.84,346.31Z" transform="translate(0 0)"/><path class="cls-5" d="M50,434.24a14.23,14.23,0,0,0,6.84,2.6c4.2.36,6.2-1.62,9-.38,2.23,1,1.89,2.61,4.46,5.07a17.31,17.31,0,0,0,8.89,4.2c5.54,1.08,10-.68,13.7-2.18,5.34-2.13,10.93-4.36,12.67-9.22,1.54-4.28-.87-7.93,2-10.87,1.19-1.2,1.72-.73,3.7-2,5.22-3.48,4.7-8.81,7.37-9.2,2.32-.34,5.84,3.25,5.89,6.59,0,3.19-3.08,4-4.18,9-.7,3.21.42,3.6-.49,5.26-2,3.65-7.62,2.07-11.82,5.82-2.72,2.43-.89,4.39-3.5,6.77-2.91,2.64-5.3.89-10.33,3.35s-4.78,5.2-8.08,5.51c-3.93.37-4.93-3.46-9.52-3.48-4.32,0-5.2,3.38-8.74,2.84s-3.38-3.93-8.35-6c-3.44-1.46-4.85-.4-6.82-1.76S49.15,441.84,50,434.24Z" transform="translate(0 0)"/><path class="cls-5" d="M66,405.23c-.24.49-5.6-3.36-11.51-1.65-6.27,1.81-7.85,8.35-9.94,7.77-2.5-.7-3.89-11,.6-14.09C51.41,392.9,66.42,404.39,66,405.23Z" transform="translate(0 0)"/><path class="cls-5" d="M86.88,398.45c.51.25,2.3-5.93,8.08-8,6.13-2.21,11.54,2.06,12.83.37,1.54-2-3.92-11-9.46-10.82C90.58,380.17,86,398,86.88,398.45Z" transform="translate(0 0)"/><path class="cls-6" d="M38.9,402.33c.56,11.25,2.59,16.31,2.59,16.31.64,1.58,1.68,3.83.76,4.73-1.67,1.6-7.17-3.5-11.26-1.74-3.65,1.58-3.95,7.69-4,8.68-.37,7.35,4.88,15.37,12,17.93,4.78,1.73,6.55-.39,12,1.48,5.92,2,8.56,6.06,10.94,8.31,11.54,11,41,2.58,56.88-5.38,8-4,20.58-10.29,22.84-20.51.63-2.86,2-12.78,2-12.78h0a17.76,17.76,0,0,0,5.39-1.47c1.27-.72,2.19-1.92,3.75-6.89s2.31-7.35,2.4-9.86.41-10.85-4.17-13.39c-4.06-2.24-8,2.21-12.66.14-4.31-1.93-3.89-7.15-6.28-11-6.62-10.69-33-7.79-46.85-4.63C63,377.31,38.33,390.85,38.9,402.33Z" transform="translate(0 0)"/><path class="cls-7" d="M125.07,375.48a28.8,28.8,0,0,1,4.08,13.13c.11,2.57,0,9.75,2.13,13.49a5,5,0,0,0,2.32,2.36c1.52.66,2.45-.13,3.46.58,1.16.82.42,2.18,1.62,3.73.91,1.17,2.65,2.1,3.55,1.68.7-.32,1.43-1.69.12-8A82.18,82.18,0,0,0,133.78,380" transform="translate(0 0)"/><path class="cls-7" d="M39.93,403.13a28.65,28.65,0,0,0,5.14,12.79c1.55,2.1,6.19,7.75,6.91,11.94a4.74,4.74,0,0,1-.33,3.23c-.79,1.4-2,1.32-2.37,2.47-.4,1.32,1,2,1.09,3.9,0,1.45-.76,3.2-1.74,3.4-.76.15-2.21-.51-5.18-6.26a81.39,81.39,0,0,1-7.52-22.79" transform="translate(0 0)"/><path class="cls-8" d="M60,342.16a60.93,60.93,0,0,0-19.45,14.25A67.61,67.61,0,0,0,24.26,386.1c-1.38,5.51-3.12,12.86-.63,21.48,1.55,5.35,5.28,13.08,9.84,13.53a3.84,3.84,0,0,0,2.74-.6c1.54-1.25.65-3.64,1.1-6,.62-3.29,3.48-5.15,6-7.07,8.42-6.31,7.2-8.45,14.59-13.82,6.63-4.82,12.56-6.7,20.9-9.34,16.29-5.16,28.32-5.16,37.49-5.08,9.55.08,15,1.19,18,4.92,1.86,2.32,2.43,5.25,3.94,5.25,2,0,3.78-5.36,4.27-7.91,2.59-13.33-13.68-27.21-16-29.13C109.62,338.16,82,332.35,60,342.16Z" transform="translate(0 0)"/><path class="cls-9" d="M58.23,430.08a14,14,0,0,0,6.83,2.61c4.21.36,6.21-1.62,9-.38,2.22,1,1.89,2.6,4.46,5.07a17.27,17.27,0,0,0,8.88,4.2c5.54,1.07,10-.68,13.7-2.18,5.35-2.13,10.93-4.36,12.68-9.22,1.54-4.29-.88-7.93,2-10.87,1.18-1.2,1.72-.73,3.7-2.05,5.22-3.48,4.69-8.81,7.36-9.2,2.33-.34,5.84,3.25,5.9,6.59s-3.09,4-4.18,9c-.71,3.21.42,3.6-.49,5.26-2,3.65-7.62,2.07-11.82,5.82-2.72,2.43-.89,4.39-3.5,6.77-2.91,2.64-5.31.88-10.33,3.35s-4.78,5.2-8.09,5.51c-3.92.37-4.92-3.46-9.51-3.48-4.33,0-5.2,3.37-8.74,2.83s-3.38-3.92-8.35-6c-3.44-1.46-4.85-.4-6.83-1.76S57.37,437.68,58.23,430.08Z" transform="translate(0 0)"/><path class="cls-9" d="M74.2,401.08c-.24.49-5.6-3.36-11.52-1.65-6.27,1.81-7.84,8.35-9.94,7.76-2.49-.69-3.88-11,.6-14.09C59.61,388.74,74.61,400.24,74.2,401.08Z" transform="translate(0 0)"/><path class="cls-9" d="M95.07,394.3c.52.25,2.31-5.93,8.09-8,6.12-2.21,11.54,2.05,12.83.37,1.54-2-3.92-11-9.46-10.82C98.78,376,94.21,393.87,95.07,394.3Z" transform="translate(0 0)"/><path class="cls-6" d="M445.15,70.43c.56,11.24,2.59,16.3,2.59,16.3.64,1.59,1.68,3.83.75,4.73-1.66,1.61-7.17-3.49-11.25-1.73-3.65,1.57-3.95,7.69-4,8.67-.37,7.35,4.88,15.38,12,17.94,4.77,1.72,6.55-.4,12.05,1.48,5.92,2,8.56,6.05,10.93,8.31,11.55,11,41,2.58,56.89-5.39,8-4,20.57-10.29,22.83-20.51.64-2.85,2-12.78,2-12.78h0A17.65,17.65,0,0,0,555.27,86c1.27-.72,2.19-1.92,3.76-6.89s2.31-7.36,2.4-9.86.4-10.85-4.17-13.39c-4.06-2.25-8,2.21-12.66.14-4.32-1.93-3.89-7.15-6.28-11-6.62-10.69-33-7.79-46.85-4.64C469.25,45.41,444.57,59,445.15,70.43Z" transform="translate(0 0)"/><path class="cls-7" d="M531.32,43.57a28.56,28.56,0,0,1,4.08,13.14c.12,2.57,0,9.74,2.14,13.48a5,5,0,0,0,2.32,2.37c1.52.65,2.45-.13,3.46.58s.42,2.18,1.62,3.73c.9,1.16,2.65,2.1,3.55,1.68.7-.32,1.42-1.69.12-8A82.53,82.53,0,0,0,540,48.1" transform="translate(0 0)"/><path class="cls-7" d="M446.15,71.23A28.79,28.79,0,0,0,451.32,84c1.55,2.1,6.19,7.74,6.91,11.94a4.77,4.77,0,0,1-.33,3.22c-.79,1.41-2,1.32-2.37,2.47-.4,1.32,1.05,2,1.09,3.9,0,1.46-.76,3.21-1.75,3.41-.76.15-2.2-.52-5.18-6.26a82.46,82.46,0,0,1-7.54-22.78" transform="translate(0 0)"/><path class="cls-8" d="M466.28,10.25a61,61,0,0,0-19.45,14.26A67.61,67.61,0,0,0,430.51,54.2c-1.38,5.5-3.12,12.85-.63,21.47,1.54,5.36,5.27,13.09,9.83,13.54a3.84,3.84,0,0,0,2.74-.61c1.55-1.24.66-3.63,1.11-6,.61-3.28,3.48-5.14,6-7.07,8.42-6.3,7.2-8.44,14.59-13.81,6.62-4.82,12.56-6.7,20.9-9.34,16.29-5.16,28.32-5.17,37.49-5.09,9.55.08,15,1.2,18,4.93,1.85,2.32,2.42,5.24,3.93,5.24,2,0,3.79-5.36,4.28-7.91,2.58-13.32-13.68-27.21-16-29.12C515.87,6.25,488.27.45,466.28,10.25Z" transform="translate(0 0)"/><path class="cls-9" d="M464.48,98.18a14.09,14.09,0,0,0,6.83,2.6c4.2.37,6.2-1.61,9-.38,2.23,1,1.9,2.61,4.47,5.07a17.29,17.29,0,0,0,8.88,4.21c5.54,1.07,10-.69,13.7-2.18,5.34-2.13,10.93-4.36,12.68-9.22,1.53-4.29-.88-7.93,2-10.88,1.18-1.19,1.72-.73,3.7-2.05,5.22-3.48,4.69-8.81,7.36-9.2,2.33-.33,5.84,3.25,5.89,6.6,0,3.19-3.08,4-4.18,9-.7,3.22.43,3.6-.49,5.27-2,3.65-7.62,2.07-11.81,5.82-2.72,2.43-.89,4.39-3.5,6.76-2.91,2.65-5.31.89-10.33,3.36s-4.79,5.19-8.09,5.5c-3.92.38-4.93-3.45-9.51-3.48-4.33,0-5.2,3.38-8.74,2.84s-3.39-3.93-8.35-6c-3.44-1.45-4.85-.4-6.83-1.75S463.62,105.78,464.48,98.18Z" transform="translate(0 0)"/><path class="cls-9" d="M480.45,69.17c-.24.5-5.61-3.35-11.52-1.64-6.27,1.81-7.84,8.35-9.94,7.76-2.5-.69-3.88-11,.6-14.09C465.85,56.84,480.86,68.33,480.45,69.17Z" transform="translate(0 0)"/><path class="cls-9" d="M501.32,62.39c.51.25,2.31-5.92,8.08-8,6.13-2.21,11.55,2,12.84.37,1.53-2-3.92-11-9.47-10.82C505,44.12,500.46,62,501.32,62.39Z" transform="translate(0 0)"/></g><g id="Capa_3" data-name="Capa 3"><text class="cls-10" transform="translate(11.47 90.28)">Mario-Burger</text><path class="cls-5" d="M123,293.47c-.69,5.52-.94,14.88,4.18,23.87,6.93,12.14,20,17.13,29.4,20,37.06,11.37,80.5,9.58,129.52,10.78,0,0,22.29.54,104.73-6.93,5-.46,16-1.6,24-9.53,10.46-10.38,9.57-26.23,8.79-32.82" transform="translate(0 0)"/><path class="cls-5" d="M157.4,245a230.78,230.78,0,0,0-48,10.78c-19.81,6.73-36.16,15.31-35.17,18.48.91,2.93,15.39-3,24.78,4.62,8.54,6.9,2.91,16.92,10.39,23.1,9.89,8.15,24.2-5.64,44,1.54,12,4.37,10.65,10.9,22.38,13.86,12.26,3.09,16.89-3.25,35.18-4.62,17.94-1.35,17.9,4.43,36,3.85,24.19-.82,27.19-11.23,43.19-8.51,19.09,3.25,19.42,18.89,36,20,17.82,1.21,23-16.52,43.17-15.4,13.94.77,15.61,9.49,28,8.47,17.73-1.48,28.12-20.56,32.78-17.71,3.51,2.14-1.77,13.39.8,14.63,3,1.44,16.6-10.75,17.17-22.33.81-16.15-23.58-33.36-60.34-43.89" transform="translate(0 0)"/><path class="cls-5" d="M120.63,246.58c-2.61,12.83,9.06,25.78,13.59,30.8,5.74,6.37,19.86,19.19,98.34,24.64,55.52,3.86,37.88-3.29,111.12-2.31,11.57.16,29.54.57,46.38-10,4.23-2.66,17.45-11.22,22.38-26.95,0,0,4.77-15.21-1.6-30.8C390.63,182.5,131.66,192.19,120.63,246.58Z" transform="translate(0 0)"/><path class="cls-5" d="M138.63,216.55a59.81,59.81,0,0,0-15.19,23.1c-5.91,16.74-3.23,35,0,35.42,2.25.29,2.17-8.37,8.79-15.4,11.21-11.89,32.51-9.44,54.37-6.93,23.44,2.7,38.78,4.46,53.57,15.4,16.72,12.38,22,28.53,32,26.95,4.91-.78,6.74-5.17,11.2-10.78,10.66-13.41,24.22-18.46,51.17-28.49,21.61-8,33.31-12.4,49.56-12.32,30.83.16,51,16.17,53.16,13.09,1.44-2-6.14-11-44.36-40.81" transform="translate(0 0)"/><path class="cls-5" d="M189,121.85a123.18,123.18,0,0,0-25.59,11.54c-9.53,5.69-41,24.45-47,57.75-1.57,8.68-2.65,14.66,0,21.56,9.91,25.81,58.59,29.7,101.36,33.11,40.29,3.22,30.23-2.95,90.34-.77,16.5.6,42.94,2,69.56-6.93,8.88-3,26.34-4.58,36.48-13.09,5.11-4.28,6.56-14.37,9.09-21.56,7-19.77-26.3-51.71-56-69.3C367.28,134.16,290.9,88.87,189,121.85Z" transform="translate(0 0)"/><ellipse class="cls-5" cx="184" cy="152.84" rx="2.6" ry="2.5"/><ellipse class="cls-5" cx="180.2" cy="220.79" rx="2.6" ry="2.5"/><ellipse class="cls-5" cx="255.09" cy="157.84" rx="2.6" ry="2.5"/><ellipse class="cls-5" cx="220.71" cy="126.98" rx="2.6" ry="2.5"/><ellipse class="cls-5" cx="214.05" cy="188.19" rx="2.6" ry="2.5"/><ellipse class="cls-5" cx="244.16" cy="223.29" rx="2.6" ry="2.5"/><ellipse class="cls-5" cx="252.49" cy="188.06" rx="2.6" ry="2.5"/><ellipse class="cls-5" cx="255.89" cy="119.15" rx="2.6" ry="2.5"/><ellipse class="cls-5" cx="269.5" cy="234.75" rx="2.6" ry="2.5"/><ellipse class="cls-5" cx="211.45" cy="232.25" rx="2.6" ry="2.5"/><ellipse class="cls-5" cx="220.71" cy="156.37" rx="2.6" ry="2.5"/><ellipse class="cls-5" cx="220.71" cy="207.25" rx="2.6" ry="2.5"/><ellipse class="cls-5" cx="184" cy="195.7" rx="2.6" ry="2.5"/><ellipse class="cls-5" cx="162.35" cy="140.58" rx="2.6" ry="2.5"/><ellipse class="cls-5" cx="158.35" cy="174.91" rx="2.6" ry="2.5"/><ellipse class="cls-5" cx="144.23" cy="215.78" rx="2.6" ry="2.5"/><ellipse class="cls-5" cx="164.95" cy="202.24" rx="2.6" ry="2.5"/><ellipse class="cls-5" cx="197.79" cy="134.49" rx="2.6" ry="2.5"/><ellipse class="cls-5" cx="191.13" cy="172.41" rx="2.6" ry="2.5"/><ellipse class="cls-5" cx="127.7" cy="190.69" rx="2.6" ry="2.5"/><ellipse class="cls-5" cx="146.83" cy="194.35" rx="2.6" ry="2.5"/><ellipse class="cls-5" cx="139.03" cy="162.59" rx="2.6" ry="2.5"/><path class="cls-11" d="M137.66,291.76c-.69,5.52-.95,14.88,4.17,23.87,6.93,12.14,20,17.13,29.41,20,37,11.37,80.49,9.58,129.51,10.78,0,0,22.29.54,104.74-6.93,5-.46,16-1.6,24-9.53,10.46-10.38,9.57-26.22,8.8-32.82" transform="translate(0 0)"/><path class="cls-12" d="M172,243.25A230.78,230.78,0,0,0,124,254c-19.82,6.73-36.16,15.31-35.18,18.48.91,2.94,15.4-3,24.78,4.62,8.54,6.9,2.91,16.92,10.4,23.1,9.88,8.16,24.19-5.64,44,1.54,12,4.37,10.65,10.9,22.38,13.86,12.26,3.09,16.9-3.25,35.18-4.62,17.94-1.35,17.9,4.43,36,3.85,24.15-.78,27.18-11.19,43.17-8.47,19.1,3.25,19.42,18.89,36,20,17.82,1.21,23-16.52,43.17-15.4,13.94.77,15.61,9.49,28,8.47,17.74-1.47,28.12-20.56,32.78-17.71,3.52,2.14-1.77,13.39.8,14.63,3,1.44,16.6-10.75,17.18-22.33.8-16.15-23.59-33.36-60.35-43.89" transform="translate(0 0)"/><path class="cls-13" d="M135.26,244.87c-2.6,12.83,9.06,25.78,13.59,30.8,5.74,6.37,19.86,19.19,98.34,24.64,55.52,3.86,37.88-3.29,111.13-2.31,11.56.16,29.53.57,46.37-10,4.23-2.66,17.45-11.22,22.38-26.95,0,0,4.77-15.21-1.6-30.8C405.26,180.79,146.29,190.48,135.26,244.87Z" transform="translate(0 0)"/><path class="cls-14" d="M153.26,214.84a60,60,0,0,0-15.19,23.1c-5.91,16.74-3.23,35,0,35.42,2.25.29,2.17-8.37,8.8-15.4,11.21-11.89,32.5-9.44,54.36-6.93,23.44,2.7,38.78,4.46,53.57,15.4,16.73,12.38,22,28.53,32,26.95,4.9-.77,6.73-5.17,11.19-10.78,10.67-13.41,24.23-18.46,51.17-28.49,21.61-8,33.31-12.4,49.57-12.32,30.83.17,51,16.17,53.15,13.09,1.44-2-6.14-11-44.36-40.81" transform="translate(0 0)"/><path class="cls-11" d="M203.63,120.14a123.14,123.14,0,0,0-25.58,11.55c-9.54,5.68-41,24.44-47,57.75-1.57,8.67-2.65,14.65,0,21.55,9.91,25.82,58.59,29.7,101.36,33.11,40.3,3.22,30.23-2.95,90.34-.77,16.5.6,42.94,2,69.56-6.93,8.89-3,26.34-4.58,36.48-13.09,5.11-4.28,6.56-14.36,9.09-21.55,7-19.78-26.3-51.71-56-69.3C381.92,132.46,305.54,87.16,203.63,120.14Z" transform="translate(0 0)"/><ellipse class="cls-15" cx="198.63" cy="151.13" rx="2.6" ry="2.5"/><ellipse class="cls-15" cx="194.84" cy="219.08" rx="2.6" ry="2.5"/><ellipse class="cls-15" cx="296.9" cy="175.7" rx="2.6" ry="2.5"/><ellipse class="cls-15" cx="269.72" cy="156.13" rx="2.6" ry="2.5"/><ellipse class="cls-15" cx="321.96" cy="130.27" rx="2.6" ry="2.5"/><ellipse class="cls-15" cx="235.34" cy="125.27" rx="2.6" ry="2.5"/><ellipse class="cls-15" cx="228.68" cy="186.48" rx="2.6" ry="2.5"/><ellipse class="cls-15" cx="258.8" cy="221.58" rx="2.6" ry="2.5"/><ellipse class="cls-15" cx="335.28" cy="221.58" rx="2.6" ry="2.5"/><ellipse class="cls-15" cx="302.1" cy="117.44" rx="2.6" ry="2.5"/><ellipse class="cls-15" cx="352.07" cy="170.7" rx="2.6" ry="2.5"/><ellipse class="cls-15" cx="296.9" cy="208.04" rx="2.6" ry="2.5"/><ellipse class="cls-15" cx="372.06" cy="205.54" rx="2.6" ry="2.5"/><ellipse class="cls-15" cx="374.66" cy="143.88" rx="2.6" ry="2.5"/><ellipse class="cls-15" cx="401.37" cy="181.48" rx="2.6" ry="2.5"/><ellipse class="cls-15" cx="414.96" cy="211.57" rx="2.6" ry="2.5"/><ellipse class="cls-15" cx="428.79" cy="185.2" rx="2.6" ry="2.5"/><ellipse class="cls-15" cx="398.77" cy="153.63" rx="2.6" ry="2.5"/><ellipse class="cls-15" cx="392.31" cy="230.54" rx="2.6" ry="2.5"/><ellipse class="cls-15" cx="357.27" cy="235.54" rx="2.6" ry="2.5"/><ellipse class="cls-15" cx="325.69" cy="163.38" rx="2.6" ry="2.5"/><ellipse class="cls-15" cx="267.12" cy="186.36" rx="2.6" ry="2.5"/><ellipse class="cls-15" cx="270.52" cy="117.44" rx="2.6" ry="2.5"/><ellipse class="cls-15" cx="284.13" cy="233.04" rx="2.6" ry="2.5"/><ellipse class="cls-15" cx="226.08" cy="230.54" rx="2.6" ry="2.5"/><ellipse class="cls-15" cx="235.34" cy="154.66" rx="2.6" ry="2.5"/><ellipse class="cls-15" cx="235.34" cy="205.54" rx="2.6" ry="2.5"/><ellipse class="cls-15" cx="330.08" cy="191.49" rx="2.6" ry="2.5"/><ellipse class="cls-15" cx="293.3" cy="138.87" rx="2.6" ry="2.5"/><ellipse class="cls-15" cx="312.36" cy="228.04" rx="2.6" ry="2.5"/><ellipse class="cls-15" cx="346.47" cy="141.38" rx="2.6" ry="2.5"/><ellipse class="cls-15" cx="198.63" cy="193.99" rx="2.6" ry="2.5"/><ellipse class="cls-15" cx="176.98" cy="138.87" rx="2.6" ry="2.5"/><ellipse class="cls-15" cx="172.98" cy="173.2" rx="2.6" ry="2.5"/><ellipse class="cls-15" cx="158.86" cy="214.07" rx="2.6" ry="2.5"/><ellipse class="cls-15" cx="179.58" cy="200.54" rx="2.6" ry="2.5"/><ellipse class="cls-15" cx="212.42" cy="132.78" rx="2.6" ry="2.5"/><ellipse class="cls-15" cx="205.76" cy="170.7" rx="2.6" ry="2.5"/><ellipse class="cls-15" cx="142.34" cy="188.99" rx="2.6" ry="2.5"/><ellipse class="cls-15" cx="161.46" cy="192.64" rx="2.6" ry="2.5"/><ellipse class="cls-15" cx="153.66" cy="160.88" rx="2.6" ry="2.5"/><ellipse class="cls-15" cx="379.85" cy="175.7" rx="2.6" ry="2.5"/><g class="cls-16"><text class="cls-17" transform="translate(14.17 89.24)">M</text><text class="cls-18" transform="translate(71.83 89.24)">a</text><text class="cls-19" transform="translate(110.74 89.24)">r</text><text class="cls-20" transform="translate(134.62 89.24)">i</text><text class="cls-21" transform="translate(152.23 89.24)">o</text><text class="cls-22" transform="translate(190.3 89.24)">-</text><text class="cls-23" transform="translate(207.63 89.24)">B</text><text class="cls-24" transform="translate(251.37 89.24)">u</text><text class="cls-25" transform="translate(290.22 89.24)">r</text><text class="cls-26" transform="translate(314.09 89.24)">g</text><text class="cls-27" transform="translate(351.39 89.24)">e</text><text class="cls-28" transform="translate(389.15 89.24)">r</text></g><text class="cls-29" transform="translate(396.17 412.19)">$ 45</text><text class="cls-30" transform="translate(396.17 412.19)">$ 45</text></g></svg>