<svg xmlns="http://www.w3.org/2000/svg" xmlns:xlink="http://www.w3.org/1999/xlink" viewBox="0 0 567 480"><defs><style>.cls-1{fill:url(#Degradado_sin_nombre_19);}.cls-2{fill:#826300;}.cls-3{fill:#a1a8a7;}.cls-4{font-size:72px;}.cls-4,.cls-8{fill:#d9ff0e;stroke:#056000;stroke-width:2px;font-family:FranklinGothic-Medium, Franklin Gothic Medium;font-weight:500;}.cls-11,.cls-4,.cls-8,.cls-9{stroke-miterlimit:10;}.cls-5{letter-spacing:-0.02em;}.cls-6{letter-spacing:0.03em;}.cls-7{letter-spacing:-0.01em;}.cls-8{font-size:77.86px;}.cls-9{fill:none;stroke:#e80006;}.cls-10{fill:#e80006;}.cls-11{stroke:#000;stroke-width:8px;}.cls-12{fill:#efd19d;}.cls-13{fill:#26a800;}.cls-14{fill:#8c5538;}.cls-15{fill:#ffb10e;}.cls-16{fill:#ff6032;}.cls-17{fill:#b31900;}.cls-18{fill:#bda47b;}.cls-19{fill:#f2ff97;}.cls-20{fill:#ff4e11;}</style><linearGradient id="Degradado_sin_nombre_19" x1="283.5" y1="480" x2="283.5" gradientUnits="userSpaceOnUse"><stop offset="0.01" stop-color="#0e5f32"/><stop offset="0.23" stop-color="#adffa8"/><stop offset="1" stop-color="#005627"/></linearGradient></defs><g id="Capa_4" data-name="Capa 4"><rect class="cls-1" width="567" height="480"/></g><g id="Capa_5" data-name="Capa 5"><rect class="cls-2" x="121" y="223" width="76" height="23" transform="translate(138.55 -48.08) rotate(30)"/><rect class="cls-2" x="391.6" y="6.09" width="17.85" height="372.94" transform="translate(74.52 -109.47) rotate(17.14)"/><path class="cls-3" d="M45.23,192.31c-1.59,2.15,12,41.58,39.13,54,5.65,2.59,22.09,10.12,36.18-2.12,18.77-16.32,18.5-54.85,18.45-61.43-.37-52.84-34-91-36.17-89-1.12,1.09,5.29,14.4,14.76,50.84,7.93,30.52,6.68,33.49,5.91,33.89-8,4.06-82.3-92.49-83.49-90.52-.82,1.37,41.84,78.57,62.82,113.82,5.82,9.78,3.93,19.29,1.47,23.3-5.82,9.47-27.12-3.52-37.65-11.65C52.06,202.25,46.14,191.08,45.23,192.31Z"/><text class="cls-4" transform="translate(50 432.06)">NIN<tspan class="cls-5" x="112.78" y="0">J</tspan><tspan class="cls-6" x="138.38" y="0">A</tspan><tspan x="183.66" y="0">-BU</tspan><tspan class="cls-7" x="287.54" y="0">R</tspan><tspan x="333.25" y="0">GER</tspan></text><text class="cls-8" transform="translate(384 102.92) scale(0.98 1)">$ 55</text></g><g id="Capa_1" data-name="Capa 1"><g id="Capa_2" data-name="Capa 2"><path class="cls-9" d="M25.14,51.17s8.35-6.44,9.83-9.26,8.11-14.76,7.62-16.37S73.78,21,73.78,21V33.86"/><path class="cls-10" d="M22.93,31.5l3.44,2.78s65.84-7.15,68.79-8.34S24.4,33.09,22.93,31.5Z"/><path class="cls-10" d="M110,17.16c3.63-1.61-87.22,9.67-89,7.52l4.24,3.76"/></g><g id="Capa_3" data-name="Capa 3"><path class="cls-10" d="M60,43.33q5.61.2,11.22.51L74,44c.9,0,1.8.1,2.69.19.66.1,1.42.49,1.06,1-.2.29-.78.38-1.22.42-1,.09-2,.07-2.94.1l-3.16.1c-.7,0-.7.73,0,.71l3.16-.1c1,0,2,0,3-.1a3.9,3.9,0,0,0,1.81-.5,1,1,0,0,0,.39-1.36,2.59,2.59,0,0,0-2-1c-1-.11-2.07-.15-3.09-.22q-3.21-.21-6.42-.36-3.64-.18-7.31-.3c-.69,0-.69.68,0,.71Z"/><path class="cls-10" d="M76.57,44.27a5.56,5.56,0,0,0,4.94-2.56,4.19,4.19,0,0,0-.36-5,10.27,10.27,0,0,0-5.41-3.36,33.93,33.93,0,0,0-9.38-.83c-3.46,0-6.91,0-10.36.2a74.1,74.1,0,0,0-9.47,1,21.82,21.82,0,0,0-7.41,2.58c-2.07,1.27-3.53,3-3,4.94a3.11,3.11,0,0,0,2,2.08,12,12,0,0,0,4.17.38l10.53-.09,2.59,0c.3,0,.54-.16.54-.35s-.24-.36-.54-.36L45.67,43c-1.56,0-3.12.05-4.69,0a4.7,4.7,0,0,1-3.25-.84c-1.48-1.46-.46-3.41,1.08-4.63a16.56,16.56,0,0,1,6.43-2.81,53.63,53.63,0,0,1,8.31-1.12c3.17-.24,6.36-.31,9.55-.34a78.76,78.76,0,0,1,9.1.17,13.47,13.47,0,0,1,6.54,2.23A4.79,4.79,0,0,1,81.05,40a4.33,4.33,0,0,1-3.19,3.44,4.39,4.39,0,0,1-1.31.13c-.69,0-.69.69,0,.71Z"/><path class="cls-10" d="M39.73,43.65c.12-.29-.12-.59-.56-.67a1,1,0,0,0-.91.22,1.44,1.44,0,0,0-.46,1.45c.22,1.09,1.4,2,3,2.3a16.39,16.39,0,0,0,2.62.27c1.11.06,2.21.1,3.31.13,2.16.06,4.34.07,6.52,0,2.5,0,5-.11,7.5-.21.69,0,.7-.74,0-.71-3.57.15-7.14.23-10.72.22-1.79,0-3.58-.06-5.36-.13a13.8,13.8,0,0,1-4.5-.59A2.24,2.24,0,0,1,39,44.88a1.32,1.32,0,0,1-.13-.64,1.07,1.07,0,0,1,.09-.34s0-.08.06-.11a.36.36,0,0,1,.07-.1c.11-.11,0-.19-.36-.24-.14.45.91.64,1,.19Z"/><path class="cls-10" d="M38.45,48.47a1.16,1.16,0,0,0,0,1.6,3,3,0,0,0,2.23.9,22.77,22.77,0,0,0,3.3-.22l3.65-.33,7.49-.67,3.56-.32,1.78-.16a9.89,9.89,0,0,1,1.81-.12,1.28,1.28,0,0,1,1,.74c.26.39.49.79.73,1.19l1.61,2.62a.64.64,0,0,0,.69.24l.22-.08A24.74,24.74,0,0,1,72.85,51c1.9-.58,4.18-1,5.08-2.33.27-.42-.66-.78-.93-.36-.87,1.33-3.31,1.62-5.1,2.2a26.32,26.32,0,0,0-6.11,2.89l.9.16-1.38-2.24a18.08,18.08,0,0,0-1.26-2,2.61,2.61,0,0,0-2.32-.8c-1.16.07-2.31.2-3.46.31L44,50.05l-2.11.19a5.65,5.65,0,0,1-1.59,0c-.8-.17-1.38-.87-.92-1.38.14-.18,0-.39-.22-.48a.72.72,0,0,0-.72.12Z"/><path class="cls-10" d="M38.53,53.07a3.72,3.72,0,0,0-.06,2.19.57.57,0,0,0,.52.26q8.79.25,17.58.18c5.84-.05,11.69-.18,17.5-.48a5.83,5.83,0,0,0,3.32-.89,1.55,1.55,0,0,0,.47-2.18c-.3-.42-1.24-.06-.94.35s0,1.26-.72,1.6a9,9,0,0,1-3.32.48c-2.75.11-5.49.21-8.24.28q-8.16.21-16.33.14-4.66,0-9.33-.18l.53.26a3.1,3.1,0,0,1,.05-1.81c.15-.45-.89-.64-1-.19Z"/><path class="cls-10" d="M38.84,57.7c.28.89-.2,1.79-.18,2.69s.67,1.68,2,2a17.83,17.83,0,0,0,2.2.24c.91.08,1.81.14,2.74.2,1.79.11,3.58.19,5.39.23a177.34,177.34,0,0,0,21.39-.83,8.36,8.36,0,0,0,4.31-1.28,2.2,2.2,0,0,0,.85-2.82c-.24-.42-1.29-.23-1,.19a1.7,1.7,0,0,1-.7,2.22,7.6,7.6,0,0,1-3.64,1c-3.29.32-6.61.55-9.93.69a152.37,152.37,0,0,1-19.82-.36,5.63,5.63,0,0,1-2.09-.38,1.1,1.1,0,0,1-.63-1.11c0-1,.44-1.89.14-2.84-.14-.45-1.19-.26-1,.19Z"/><path d="M94.12,39.58l-8,14.49-2.26,4.1c-.24.43.81.62,1,.19l8-14.49,2.26-4.09c.24-.43-.8-.62-1-.19Z"/><path d="M88,44.64s.18,0,.16,0,0,0,0,0,0-.22,0-.24a1.09,1.09,0,0,1,.16-.54,9.43,9.43,0,0,1,1.3-1.4,17.11,17.11,0,0,1,3.2-2.36,22.23,22.23,0,0,1,12.84-2.85l-.4-.35A9,9,0,0,1,102,42.1a34.53,34.53,0,0,1-6.55,4.1l.76.51a16.45,16.45,0,0,1,8.7-2c1.21.09,2.41.52,2.45,1.41a2.58,2.58,0,0,1-.72,1.55c-.36.45-.77.89-1.19,1.33A32.43,32.43,0,0,1,93,57a38.17,38.17,0,0,1-8.66,2c-.68.08-.39.77.29.68a38,38,0,0,0,15.88-5.53,30.54,30.54,0,0,0,6.07-5c.85-.92,2-2,1.87-3.14s-1.2-1.67-2.61-1.91a15.12,15.12,0,0,0-5.24.21,17.39,17.39,0,0,0-5.14,1.83c-.54.3.23.79.76.51A34.45,34.45,0,0,0,103,42.37a9.5,9.5,0,0,0,3.33-5.46c0-.16-.16-.3-.4-.34-7.27-.65-14.08,2.16-17.85,6.12a2.87,2.87,0,0,0-1,1.69c0,.51.37,1.06,1.27.95.68-.09.39-.77-.29-.69Z"/><path d="M111.2,45.34A28,28,0,0,0,110,50.52a23.52,23.52,0,0,0-.23,2.64,3.06,3.06,0,0,0,.73,2.3,2.85,2.85,0,0,0,2.57.8A5,5,0,0,0,115.53,55a6.34,6.34,0,0,0,2-4.28,45.6,45.6,0,0,0-.09-6c0-.45-1.08-.46-1.08,0,0,1.57.14,3.13.14,4.7a7.11,7.11,0,0,1-1.08,4.31c-.56.78-2.56,2.67-3.9,1.42a2.58,2.58,0,0,1-.63-2.13,22.28,22.28,0,0,1,.19-2.3,27,27,0,0,1,1.23-5.23c.15-.44-.9-.63-1.05-.18Z"/><path d="M119.75,45.78l.51,8.94c0,.2.25.36.55.36s.54-.16.54-.36a24.75,24.75,0,0,1,1.08-5.25A9.35,9.35,0,0,1,125.51,45c.45-.34-.32-.85-.77-.5-3.58,2.79-4,6.73-4.48,10.21h1.08l-.51-8.94c0-.46-1.11-.46-1.09,0Z"/><path d="M132.1,44c-.79-.66-2,0-2.57.46a9.81,9.81,0,0,0-2.8,7.28c.08,1,.73,3.16,3,2.77a2.81,2.81,0,0,0,2-1.57,9.5,9.5,0,0,0,1-2.54,23.5,23.5,0,0,0,.36-6.09H131.9a51,51,0,0,1-1,13.86c-.22,1.17-.46,2.33-.71,3.5a19.32,19.32,0,0,1-.77,3.22,2.94,2.94,0,0,1-2.36,2,2.7,2.7,0,0,1-2.53-1.52c-.89-1.72-.18-4,2-5.11.54-.28-.23-.78-.77-.5a4.53,4.53,0,0,0-2.6,5,3.61,3.61,0,0,0,2,2.47,3.92,3.92,0,0,0,3.69-.21,4.36,4.36,0,0,0,1.86-2.91c.3-1.21.53-2.44.78-3.66.51-2.53,1-5.06,1.29-7.61a41.62,41.62,0,0,0,.19-8.57c0-.45-1.08-.46-1.08,0a30.2,30.2,0,0,1-.09,4.56,11,11,0,0,1-.48,2.23,6.44,6.44,0,0,1-1,2c-.26.35-.85,1-1.52.62a2.07,2.07,0,0,1-.94-1.41,5.88,5.88,0,0,1-.06-2,8.3,8.3,0,0,1,.51-2.15,9.8,9.8,0,0,1,1.18-2.2,9,9,0,0,1,.86-1,2,2,0,0,1,.53-.39c.19-.08.27-.12.41,0,.43.36,1.19-.14.77-.5Z"/><path d="M138.19,49.42a8.82,8.82,0,0,0,3.61-1,4.12,4.12,0,0,0,2.25-2.32c.19-.82-.43-1.64-1.54-2a4.28,4.28,0,0,0-3.37.32,6.44,6.44,0,0,0-2.37,2.25,6.6,6.6,0,0,0-1,2.69,6.09,6.09,0,0,0,.3,2.8,3.88,3.88,0,0,0,2,2.35c2.09,1,6.34.44,6.75-1.45.07-.19-.1-.38-.38-.44a.61.61,0,0,0-.66.25c-.28,1.28-3,1.72-4.62,1.24a2.89,2.89,0,0,1-1.88-1.77,5.53,5.53,0,0,1-.46-2.2,6,6,0,0,1,1.81-4.26,3.88,3.88,0,0,1,2.49-1.29,1.88,1.88,0,0,1,1.85,1c.28.81-.66,1.62-1.5,2.14a6.94,6.94,0,0,1-3.28,1C137.5,48.75,137.5,49.46,138.19,49.42Z"/><path d="M146.83,44.32a3.17,3.17,0,0,1,1.4,1.84,25.12,25.12,0,0,1,.92,2.69,23.89,23.89,0,0,1,.84,5.54h1.09a14.28,14.28,0,0,1,.39-6.16c.45-1.55,1.34-3.88,4.12-4.26.68-.09.4-.78-.29-.68a5.85,5.85,0,0,0-4.78,4.45,14.87,14.87,0,0,0-.53,6.65c.07.44,1.09.47,1.09,0a25.3,25.3,0,0,0-1-6,21,21,0,0,0-1-2.78,3.77,3.77,0,0,0-1.77-2,.73.73,0,0,0-.74.13c-.13.17-.05.37.19.47Z"/><path d="M168.4,36.72a2.11,2.11,0,0,0-.62-3,4.69,4.69,0,0,0-4.33-.52,5.73,5.73,0,0,0-3.35,3,16.72,16.72,0,0,0-1.3,4.35,34.15,34.15,0,0,0-.87,9.21,6,6,0,0,0,1.43,3.92,6.42,6.42,0,0,0,4.14,1.83,5.84,5.84,0,0,0,2.81-.39,2.77,2.77,0,0,0,1.56-1.85,13,13,0,0,0,.56-4.22c0-.2-.24-.36-.54-.36s-.54.16-.54.36a13.15,13.15,0,0,1-.27,3.18A4.24,4.24,0,0,1,166.4,54a2.75,2.75,0,0,1-1.94.81,5.53,5.53,0,0,1-3.78-1.14,4.67,4.67,0,0,1-1.6-3.24,21.94,21.94,0,0,1,0-4,35.94,35.94,0,0,1,.48-4.11c.23-1.32.52-2.65.88-4a7.18,7.18,0,0,1,1.73-3.4c.82-.83,2.63-1.79,4.18-1.15,1.21.5,1.78,1.74,1.13,2.58-.31.4.63.76.94.36Z"/><path d="M168.47,50.21a37,37,0,0,0,0-3.94c0-.16-.16-.3-.4-.34a31.43,31.43,0,0,0-4.95-.15c-.69,0-.7.75,0,.71a30.37,30.37,0,0,1,4.67.12l-.4-.34a37,37,0,0,1,0,3.94C167.35,50.67,168.44,50.66,168.47,50.21Z"/><path d="M173.81,49c1.57-.21,3.2.22,4.74-.11A3.56,3.56,0,0,0,181,47.36a1.65,1.65,0,0,0-.92-2.15,5.58,5.58,0,0,0-3.2-.58,6.57,6.57,0,0,0-5.59,3.55,4.4,4.4,0,0,0-.21,2.86,3.34,3.34,0,0,0,2.1,2.37,11.27,11.27,0,0,0,4.43.55,8.32,8.32,0,0,0,4.06-1.21.28.28,0,0,0,0-.5.75.75,0,0,0-.74,0,8.88,8.88,0,0,1-6.22.81,2.88,2.88,0,0,1-2.34-1.58,3.82,3.82,0,0,1-.24-2.44A5,5,0,0,1,176,45.51a5.41,5.41,0,0,1,2.71-.06c.91.23,1.47.83,1.37,1.46a2.35,2.35,0,0,1-2,1.37,10.79,10.79,0,0,1-2.2,0,12.94,12.94,0,0,0-2.33.05c-.68.09-.39.78.29.69Z"/><path d="M203.05,33.42c-.73,3-1.57,5.95-2.53,8.9a53.59,53.59,0,0,1-3.25,8.24,17.27,17.27,0,0,1-2.94,4.1c-.36.38.56.74.93.36a21.5,21.5,0,0,0,4.54-7.59c1.14-2.9,2.11-5.84,3-8.78q.72-2.51,1.34-5c.11-.44-.94-.64-1.05-.19Z"/><path d="M199.75,44.62a5.1,5.1,0,0,0,3.68-.69,13.73,13.73,0,0,0,2.71-1.8,19.1,19.1,0,0,0,4.07-5c.64-1.08,1.21-2.17,1.78-3.26.23-.44-.82-.62-1-.19a30.67,30.67,0,0,1-4,6.39,14.94,14.94,0,0,1-2.72,2.42,13.08,13.08,0,0,1-1.69,1,3.43,3.43,0,0,1-2.2.5.76.76,0,0,0-.74.13c-.15.17-.07.39.19.49Z"/><path d="M201.43,44.73a2.87,2.87,0,0,1,2.42-.16,3.3,3.3,0,0,1,1.49,1.26,11.69,11.69,0,0,1,1.52,4c.35,1.34.54,2.75,1.73,3.87a4.09,4.09,0,0,0,2.1,1.08,6.52,6.52,0,0,0,2.92-.22c1.93-.52,4.27-1.38,4-3-.06-.45-1.15-.46-1.08,0a1.6,1.6,0,0,1-1.14,1.55,12,12,0,0,1-2.69.89,3.71,3.71,0,0,1-2.62-.23,3.54,3.54,0,0,1-1.4-1.55,27.13,27.13,0,0,1-1.24-4.16,6.91,6.91,0,0,0-1.9-3.42,4,4,0,0,0-2.14-1,4.46,4.46,0,0,0-2.77.53c-.53.3.24.8.77.5Z"/><path d="M186.25,49.24c1.57-.2,3.2.23,4.74-.1a3.56,3.56,0,0,0,2.48-1.57,1.66,1.66,0,0,0-.92-2.16,5.66,5.66,0,0,0-3.2-.57,6.53,6.53,0,0,0-5.59,3.55,4.4,4.4,0,0,0-.21,2.86,3.34,3.34,0,0,0,2.1,2.37,11.11,11.11,0,0,0,4.43.54A8.21,8.21,0,0,0,194.14,53a.28.28,0,0,0,0-.51.74.74,0,0,0-.76,0,8.83,8.83,0,0,1-6.22.81,2.88,2.88,0,0,1-2.34-1.57,3.78,3.78,0,0,1-.23-2.45,5,5,0,0,1,3.85-3.53,5.52,5.52,0,0,1,2.71,0c.91.22,1.47.82,1.37,1.46s-1.05,1.21-2,1.37a10.79,10.79,0,0,1-2.2,0,12.08,12.08,0,0,0-2.33,0c-.68.09-.39.77.29.68Z"/></g></g><g id="Capa_3-2" data-name="Capa 3"><path class="cls-11" d="M165.27,332.93a60.09,60.09,0,0,0,19.17,28.33c13.19,10.82,29.39,15.13,128.83,16,38.77.34,78.63.06,96.63-14.78,10.46-8.63,13-18.47,13-18.47,2.38-9.12,7.08-16.77,5.37-20.32H162.21Z"/><path class="cls-11" d="M221.25,312.34c-12.42-2.64-20.23-7.93-25.3-13-7.37-7.33-9-14.16-14.57-14.6-8.18-.65-11.64,13.52-19.17,13-9.25-.67-13.25-22.67-16.11-21.91-2.63.71-.25,19.59,3.07,34.89,4.72,21.74,8.65,23.79,10,24.34,7.7,3.2,13.66-8.68,24.54-6.49,9.37,1.88,8.94,11.49,18.4,14.6,12.33,4.05,18.18-10.58,34.51-9.74,14.55.75,16,12.68,30.67,13,13.93.3,15.24-10.47,29.91-11.35,15.57-.94,17.6,11,37.57,11.35,6.5.13,15.86.3,24.54-5.67,7-4.82,8.27-10,13.81-10.55,7.14-.74,8.37,7.51,17.63,10.55,11.7,3.83,16.27-7.17,35.28-6.49,8,.28,10.36,2.33,14.57,0,6.77-3.75,10.49-14.5,8.43-23.53-2.51-11.08-12.88-15.9-15.33-17-20.17-9.38-42.52,9.51-43.71,10.55"/><path class="cls-11" d="M146.1,263.66c-2.56,6.66-2.44,19.09,3.07,28.4s14.56,12.76,19.94,14.6c31.22,10.7,70.69,8.52,78.21,8.12,68.59-3.71,102.88-5.57,111.2-4.87a114.4,114.4,0,0,0,48.31-6.49c18.78-6.91,23-14.51,24.54-18.66,4.28-11.67-2.52-24.17-3.07-25.15-12.84-22.87-58.31-11.85-126.53-8.93C209.6,254.63,155.06,240.4,146.1,263.66Z"/><path class="cls-11" d="M161.83,222.29c-5.68,3.69-17.06,12.29-22.58,27.58s-3.52,32.47,0,33.27c2.42.54,4-7,12.46-14.61a53.72,53.72,0,0,1,15.57-8.92c28-10.51,217.63,44.76,253.83.81,3.73-4.53,8.15-12.93,7-29.21"/><path class="cls-11" d="M261.55,232.51c-3.44-9.23,10.8-23.14,13.8-26C321.78,163,429.54,192.17,434.09,224.4c.92,6.59-2.63,12.1-3.84,13.79-11.56,16.16-38.8,4.15-88.95.81C292,235.72,265.76,243.85,261.55,232.51Z"/><path class="cls-11" d="M147.64,227.16c-3.44-9.24,10.8-23.15,13.8-26,46.43-43.59,154.19-14.38,158.73,17.84.93,6.59-2.62,12.11-3.83,13.8-11.56,16.15-38.8,4.14-88.95.81C178.06,230.37,151.85,238.49,147.64,227.16Z"/><path class="cls-11" d="M435.2,206.3c-9.23,11.25-56.5,5.06-142.63,5.33-80.52.24-123.48,5.9-135.73-6.15-.4-.39-5.71-5.8-1.54-10.66,9.32-10.87,53.9-5.09,133.43-4.92,86.49.17,132.41-6.46,144.94,6.15C434.16,196.55,439,201.62,435.2,206.3Z"/><path class="cls-11" d="M164.51,197.14c-4.44-19.77-1.76-33.39,1.53-42.19,24-64.17,151.31-60.1,203.21-38.13,10.14,4.29,28.5,12.38,39.88,32.46,7,12.28,8.74,33.47,9.2,41.37"/><ellipse class="cls-11" cx="213.97" cy="136.7" rx="24.16" ry="19.06"/><ellipse class="cls-11" cx="371.94" cy="154.55" rx="24.16" ry="19.06"/><ellipse class="cls-11" cx="290.65" cy="121.29" rx="24.16" ry="19.06"/><ellipse class="cls-11" cx="276.85" cy="169.15" rx="24.16" ry="19.06"/><path class="cls-12" d="M165.44,333.71A60,60,0,0,0,184.61,362c13.18,10.82,29.39,15.13,128.83,16,38.76.34,78.62.06,96.62-14.78,10.47-8.63,13-18.47,13-18.47,2.38-9.12,7.08-16.77,5.37-20.32H162.37Z"/><path class="cls-13" d="M221.42,313.12c-12.42-2.64-20.23-7.93-25.31-13-7.37-7.33-9-14.16-14.57-14.6-8.17-.65-11.64,13.52-19.17,13-9.24-.67-13.24-22.67-16.1-21.91-2.63.71-.26,19.59,3.07,34.89,4.72,21.74,8.65,23.79,10,24.34,7.7,3.19,13.65-8.68,24.53-6.49,9.37,1.88,8.94,11.49,18.41,14.6,12.33,4.05,18.17-10.58,34.51-9.74,14.54.75,16.05,12.67,30.67,13,13.93.3,15.24-10.47,29.91-11.35,15.56-.94,17.6,11,37.57,11.35,6.5.13,15.86.3,24.54-5.68,7-4.81,8.26-10,13.8-10.54,7.15-.74,8.38,7.51,17.64,10.54,11.7,3.84,16.26-7.16,35.28-6.49,8,.29,10.35,2.34,14.57,0,6.77-3.74,10.48-14.49,8.43-23.52-2.52-11.08-12.89-15.9-15.34-17-20.16-9.38-42.51,9.51-43.71,10.55"/><path class="cls-14" d="M146.27,264.44c-2.56,6.66-2.44,19.09,3.07,28.4s14.55,12.76,19.93,14.6c31.23,10.7,70.7,8.52,78.22,8.11,68.58-3.7,102.88-5.56,111.19-4.86A114.44,114.44,0,0,0,407,304.2c18.78-6.92,23-14.51,24.53-18.66,4.29-11.67-2.51-24.17-3.06-25.15-12.84-22.87-58.31-11.85-126.53-8.93C209.77,255.41,155.23,241.18,146.27,264.44Z"/><path class="cls-15" d="M162,223.07c-5.69,3.69-17.06,12.29-22.58,27.58s-3.53,32.47,0,33.26c2.42.55,4-7,12.46-14.6a53.72,53.72,0,0,1,15.57-8.92c28-10.52,217.63,44.76,253.83.81,3.73-4.54,8.14-12.93,7-29.21"/><path class="cls-16" d="M261.71,233.29c-3.43-9.23,10.8-23.14,13.81-26C322,163.74,429.71,193,434.25,225.18c.93,6.59-2.62,12.1-3.83,13.79-11.56,16.16-38.8,4.15-89,.81C292.14,236.5,265.93,244.62,261.71,233.29Z"/><path class="cls-17" d="M147.8,227.94c-3.43-9.24,10.8-23.15,13.81-26C208,158.39,315.8,187.59,320.34,219.82c.93,6.59-2.62,12.1-3.83,13.8-11.56,16.15-38.8,4.14-89,.81C178.23,231.15,152,239.27,147.8,227.94Z"/><path class="cls-18" d="M435.37,207.08c-9.23,11.24-56.5,5.06-142.63,5.32-80.52.25-123.48,5.91-135.74-6.14-.39-.39-5.7-5.8-1.53-10.66,9.31-10.87,53.9-5.09,133.43-4.92,86.49.17,132.41-6.46,144.93,6.15C434.33,197.32,439.2,202.4,435.37,207.08Z"/><path class="cls-19" d="M165,197c-4.44-19.77-2.08-32.48,1.21-41.27,24-64.17,151.3-60.1,203.21-38.13,10.14,4.29,28.5,12.38,39.88,32.45,7,12.29,8.74,33.48,9.2,41.38"/><ellipse class="cls-20" cx="214.13" cy="137.48" rx="24.16" ry="19.06"/><ellipse class="cls-20" cx="372.1" cy="155.33" rx="24.16" ry="19.06"/><ellipse class="cls-20" cx="290.82" cy="122.06" rx="24.16" ry="19.06"/><ellipse class="cls-20" cx="277.02" cy="169.93" rx="24.16" ry="19.06"/></g></svg>