<svg xmlns="http://www.w3.org/2000/svg" xmlns:xlink="http://www.w3.org/1999/xlink" viewBox="0 0 566.93 481.89"><defs><style>.cls-1{fill:url(#Degradado_sin_nombre_15);}.cls-14,.cls-2,.cls-3{fill:#1d1d1b;}.cls-3{stroke:#1d1d1b;}.cls-10,.cls-11,.cls-14,.cls-15,.cls-16,.cls-19,.cls-20,.cls-21,.cls-3,.cls-31,.cls-33,.cls-34,.cls-6,.cls-7,.cls-9{stroke-miterlimit:10;}.cls-10,.cls-11,.cls-14,.cls-15,.cls-16,.cls-19,.cls-20,.cls-21,.cls-3,.cls-31,.cls-33,.cls-6,.cls-7,.cls-9{stroke-width:2px;}.cls-4{fill:#d50c4a;}.cls-5{fill:#fff7c4;}.cls-10,.cls-15,.cls-19,.cls-20,.cls-34,.cls-6,.cls-9{fill:none;}.cls-6,.cls-7{stroke:#ffed00;}.cls-7{fill:#928700;}.cls-8{fill:#ffed00;}.cls-12,.cls-17,.cls-22,.cls-8{opacity:0.31;}.cls-9{stroke:#ea9200;}.cls-10{stroke:#fdc224;}.cls-11{fill:#c28b1f;stroke:#f4981c;}.cls-12{fill:#fdc224;}.cls-13{fill:#dbeeef;}.cls-14{stroke:#22b6eb;}.cls-15{stroke:#1ab7cc;}.cls-16{fill:#04495a;stroke:#92d2df;}.cls-17{fill:#1ab7cc;}.cls-18{fill:#fbe0ec;}.cls-19{stroke:#d7045c;}.cls-20{stroke:#d1026b;}.cls-21{fill:#5b1022;stroke:#cd036e;}.cls-22{fill:#e72e6d;}.cls-23{fill:#e30d16;}.cls-24{fill:#2e4b9a;}.cls-25{fill:#f4e717;}.cls-26{fill:#bc1351;}.cls-27{fill:#fff;}.cls-28{fill:#1d66b0;}.cls-29{fill:#ffe400;}.cls-30{fill:#c4e5f2;}.cls-31{font-size:60px;}.cls-31,.cls-33{fill:#f1e400;stroke:#314697;font-family:FranklinGothic-Medium, Franklin Gothic Medium;font-weight:500;}.cls-32{letter-spacing:-0.01em;}.cls-33{font-size:72px;}.cls-34{stroke:#e31013;}.cls-35{fill:#e31013;}.cls-36{fill:#010101;}</style><linearGradient id="Degradado_sin_nombre_15" x1="283.46" y1="481.89" x2="283.46" gradientUnits="userSpaceOnUse"><stop offset="0" stop-color="#1d1c3f"/><stop offset="0.34" stop-color="#939ccf"/><stop offset="1" stop-color="#222551"/></linearGradient></defs><g id="Capa_3" data-name="Capa 3"><rect class="cls-1" width="566.93" height="481.89"/></g><g id="Capa_7" data-name="Capa 7"><ellipse class="cls-2" cx="116.7" cy="125.25" rx="20.89" ry="22.18"/><path class="cls-2" d="M51.41,197.46A62.38,62.38,0,0,1,39.2,182.35c-3.56-6.09-5.41-9.26-4.18-11.89,2.47-5.27,13.58-.4,25.72-8a39.15,39.15,0,0,0,9-8c5.53-6.89,4.06-10.3,8-13.18,6-4.32,11.14,2,20.25-1.61,7.12-2.81,6.37-7.61,14.47-10.6,5.74-2.12,6.68.09,13.5-1.61,11.35-2.83,16.52-10.9,19.28-9,1.9,1.31-.92,4.89,1.29,10,2.37,5.46,7.3,5.17,8.35,10,.85,3.84-1.92,5.81-.32,8.68,1.21,2.17,3.83,2.9,6.11,3.53,5.93,1.66,9.21-.51,10.61,1.29,1.63,2.11-2.38,5.73-1,9.32,1.15,2.91,5,3.65,9.32,4.82,11,3,18.92,5.15,20.9,9.32,3.06,6.48-6.88,20.38-19.93,26-9.89,4.28-19.21,2.81-23.14,2.25C108.76,196.63,69.6,212.77,51.41,197.46Z"/><path class="cls-3" d="M66.52,314.68l26,7.71H147.2l25.71-10.29,9-61.71,9.33-9,10-65.57s-69.75,6.11-80.68,5.78S37.59,173.89,35,171s11.89,70.07,11.89,70.07l8.68,9.32Z"/><path class="cls-3" d="M72,293.38l23,5.48h48.34l22.74-7.31,8-43.89,8.24-6.4,8.82-46.63s-61.7,4.34-71.36,4.11-73.35-5.48-75.63-7.54S54.66,241,54.66,241l7.68,6.63Z"/><ellipse class="cls-4" cx="127.11" cy="125.25" rx="20.89" ry="22.18"/><path class="cls-5" d="M61.82,197.46a62.38,62.38,0,0,1-12.21-15.11c-3.56-6.09-5.41-9.26-4.18-11.89,2.47-5.27,13.58-.4,25.71-8a38.68,38.68,0,0,0,9-8c5.54-6.89,4.07-10.3,8-13.18,6-4.32,11.14,2,20.25-1.61,7.11-2.81,6.36-7.61,14.46-10.6,5.75-2.12,6.69.09,13.5-1.61,11.35-2.83,16.53-10.9,19.29-9,1.9,1.31-.92,4.89,1.28,10,2.37,5.46,7.31,5.17,8.36,10,.85,3.84-1.92,5.81-.32,8.68,1.21,2.17,3.83,2.9,6.11,3.53,5.93,1.66,9.21-.51,10.6,1.29,1.64,2.11-2.37,5.73-1,9.32,1.14,2.91,5,3.65,9.32,4.82,11,3,18.92,5.15,20.89,9.32,3.07,6.48-6.87,20.38-19.92,26-9.89,4.28-19.21,2.81-23.15,2.25C119.17,196.63,80,212.77,61.82,197.46Z"/><path class="cls-6" d="M76.93,317.68l26,7.71h54.65l25.71-10.29,9-61.71,9.32-9,10-65.57s-69.75,6.11-80.68,5.78S48,176.89,45.43,174s11.89,70.07,11.89,70.07L66,253.39Z"/><polyline class="cls-6" points="76.93 317.68 114.86 307.07 153.75 307.07 183.32 315.1"/><path class="cls-7" d="M82.41,293.38l23,5.48h48.33l22.75-7.31,8-43.89,8.24-6.4,8.82-46.63s-61.7,4.34-71.36,4.11-73.35-5.48-75.63-7.54S65.07,241,65.07,241l7.68,6.63Z"/><path class="cls-8" d="M76.93,317.68l26,7.71h54.65l25.71-10.29,9-61.71,9.32-9,10-65.57s-69.75,6.11-80.68,5.78S48,176.89,45.43,174s11.89,70.07,11.89,70.07L66,253.39Z"/><ellipse class="cls-2" cx="228.93" cy="120.25" rx="20.89" ry="22.18"/><path class="cls-2" d="M163.65,192.46a62.36,62.36,0,0,1-12.22-15.11c-3.56-6.09-5.41-9.26-4.18-11.89,2.47-5.27,13.58-.4,25.72-8a39.15,39.15,0,0,0,9-8c5.54-6.89,4.06-10.3,8-13.18,6-4.32,11.14,2,20.25-1.61,7.12-2.81,6.37-7.61,14.47-10.6,5.74-2.12,6.69.09,13.5-1.61,11.35-2.83,16.52-10.9,19.28-9,1.9,1.31-.92,4.89,1.29,10,2.37,5.46,7.3,5.17,8.36,10,.84,3.84-1.93,5.81-.33,8.68,1.22,2.17,3.83,2.9,6.11,3.53,5.94,1.66,9.21-.51,10.61,1.29,1.64,2.11-2.38,5.73-1,9.32,1.15,2.91,5,3.65,9.33,4.82,11,3,18.91,5.15,20.89,9.32,3.06,6.48-6.88,20.38-19.93,26-9.88,4.28-19.2,2.81-23.14,2.25C221,191.63,181.83,207.77,163.65,192.46Z"/><path class="cls-3" d="M178.75,312.68l26,7.71h54.64l25.72-10.29,9-61.71,9.32-9,10-65.57s-69.75,6.11-80.68,5.78-82.93-7.71-85.5-10.6,11.9,70.07,11.9,70.07l8.67,9.32Z"/><path class="cls-3" d="M184.24,288.38l23,5.48H255.6l22.74-7.31,8-43.89,8.25-6.4,8.81-46.63S241.67,194,232,193.74s-73.35-5.48-75.62-7.54S166.9,236,166.9,236l7.67,6.63Z"/><ellipse class="cls-4" cx="239.52" cy="125.25" rx="20.89" ry="22.18"/><path class="cls-5" d="M174.24,197.46A62.13,62.13,0,0,1,162,182.35c-3.56-6.09-5.41-9.26-4.18-11.89,2.47-5.27,13.58-.4,25.72-8a39.15,39.15,0,0,0,9-8c5.54-6.89,4.06-10.3,8-13.18,6-4.32,11.14,2,20.25-1.61,7.12-2.81,6.37-7.61,14.47-10.6,5.74-2.12,6.68.09,13.5-1.61,11.35-2.83,16.52-10.9,19.28-9,1.9,1.31-.92,4.89,1.29,10,2.37,5.46,7.3,5.17,8.36,10,.84,3.84-1.93,5.81-.33,8.68,1.22,2.17,3.83,2.9,6.11,3.53,5.94,1.66,9.21-.51,10.61,1.29,1.64,2.11-2.38,5.73-1,9.32,1.15,2.91,5,3.65,9.33,4.82,11,3,18.91,5.15,20.89,9.32,3.06,6.48-6.88,20.38-19.93,26-9.88,4.28-19.21,2.81-23.14,2.25C231.58,196.63,192.42,212.77,174.24,197.46Z"/><path class="cls-9" d="M189.34,317.68l26,7.71H270l25.72-10.29,9-61.71,9.32-9,10-65.57s-69.75,6.11-80.68,5.78-82.93-7.71-85.5-10.6,11.9,70.07,11.9,70.07l8.67,9.32Z"/><polyline class="cls-10" points="189.34 317.68 227.27 307.07 266.16 307.07 295.74 315.1"/><path class="cls-11" d="M194.83,293.38l23,5.48h48.33l22.74-7.31,8-43.89,8.25-6.4L314,194.63s-61.69,4.34-71.36,4.11-73.35-5.48-75.62-7.54S177.49,241,177.49,241l7.67,6.63Z"/><path class="cls-12" d="M191.1,319.27l26,7.72h54.64L297.5,316.7l9-61.71,9.32-9,10-65.57s-69.75,6.1-80.68,5.78-82.93-7.71-85.5-10.61,11.9,70.08,11.9,70.08l8.67,9.32Z"/><ellipse class="cls-2" cx="324.6" cy="117.48" rx="20.89" ry="22.18"/><path class="cls-2" d="M259.31,189.7a62.38,62.38,0,0,1-12.21-15.11c-3.56-6.09-5.41-9.26-4.18-11.89,2.47-5.27,13.58-.4,25.71-8a39,39,0,0,0,9-8c5.54-6.9,4.07-10.3,8-13.18,6-4.33,11.14,2,20.25-1.61,7.11-2.81,6.37-7.62,14.46-10.61,5.75-2.12,6.69.09,13.5-1.6,11.35-2.83,16.53-10.9,19.29-9,1.9,1.31-.92,4.89,1.29,10,2.36,5.45,7.3,5.17,8.35,10,.85,3.84-1.92,5.81-.32,8.68,1.21,2.17,3.83,2.9,6.11,3.54,5.93,1.65,9.21-.52,10.61,1.28,1.63,2.12-2.38,5.73-1,9.33,1.15,2.91,5,3.64,9.32,4.82,11,3,18.92,5.15,20.9,9.32,3.06,6.47-6.88,20.38-19.93,26-9.89,4.29-19.21,2.82-23.15,2.25C316.66,188.86,277.5,205,259.31,189.7Z"/><path class="cls-3" d="M274.42,309.91l26,7.72H355.1l25.71-10.29,9-61.71,9.32-9,10-65.58s-69.75,6.11-80.68,5.79-82.93-7.71-85.5-10.61,11.89,70.07,11.89,70.07l8.68,9.33Z"/><path class="cls-3" d="M279.9,285.61l23,5.49h48.33L374,283.78l8-43.88,8.24-6.4L399,186.86s-61.7,4.35-71.36,4.12-73.35-5.49-75.63-7.54,10.52,49.83,10.52,49.83l7.68,6.63Z"/><ellipse class="cls-4" cx="335.19" cy="122.48" rx="20.89" ry="22.18"/><path class="cls-13" d="M269.9,194.7a62.38,62.38,0,0,1-12.21-15.11c-3.56-6.09-5.41-9.26-4.18-11.89,2.47-5.27,13.58-.4,25.71-8a39,39,0,0,0,9-8c5.54-6.9,4.07-10.3,8-13.18,6-4.33,11.14,2,20.25-1.61,7.11-2.81,6.36-7.62,14.46-10.61,5.75-2.12,6.69.09,13.5-1.6,11.35-2.83,16.53-10.9,19.29-9,1.9,1.31-.92,4.89,1.28,10,2.37,5.45,7.31,5.17,8.36,10,.85,3.84-1.92,5.81-.32,8.68,1.21,2.17,3.83,2.9,6.11,3.54,5.93,1.65,9.21-.52,10.6,1.28,1.64,2.12-2.37,5.73-1,9.33,1.14,2.91,5,3.64,9.32,4.82,11,3,18.92,5.15,20.89,9.32,3.07,6.47-6.87,20.38-19.92,26-9.89,4.29-19.21,2.82-23.15,2.25C327.25,193.86,288.09,210,269.9,194.7Z"/><path class="cls-14" d="M285,314.91l26,7.72h54.65l25.71-10.29,9-61.71,9.32-9,10-65.58s-69.75,6.11-80.68,5.79-82.93-7.71-85.5-10.61S265.4,241.3,265.4,241.3l8.68,9.33Z"/><polyline class="cls-15" points="285.01 314.91 322.94 304.31 361.83 304.31 391.4 312.34"/><path class="cls-16" d="M290.49,290.61l23,5.49h48.33l22.75-7.32,8-43.88,8.24-6.4,8.82-46.64s-61.7,4.35-71.36,4.12-73.35-5.49-75.63-7.54,10.52,49.83,10.52,49.83l7.68,6.63Z"/><path class="cls-17" d="M286.77,314.91l26,7.72h54.65l25.71-10.29,9-61.71,9.32-9,10-65.58s-69.75,6.11-80.68,5.79-82.93-7.71-85.5-10.61,11.89,70.07,11.89,70.07l8.68,9.33Z"/><ellipse class="cls-2" cx="444.94" cy="117.48" rx="20.89" ry="22.18"/><path class="cls-2" d="M379.66,189.7a62.36,62.36,0,0,1-12.22-15.11c-3.55-6.09-5.41-9.26-4.17-11.89,2.46-5.27,13.58-.4,25.71-8a39.22,39.22,0,0,0,9-8c5.54-6.9,4.06-10.3,8-13.18,6-4.33,11.14,2,20.25-1.61,7.11-2.81,6.36-7.62,14.46-10.61,5.74-2.12,6.69.09,13.5-1.6,11.35-2.83,16.53-10.9,19.29-9,1.9,1.31-.92,4.89,1.28,10,2.37,5.45,7.3,5.17,8.36,10,.84,3.84-1.93,5.81-.32,8.68,1.21,2.17,3.83,2.9,6.1,3.54,5.94,1.65,9.21-.52,10.61,1.28,1.64,2.12-2.37,5.73-1,9.33,1.14,2.91,5,3.64,9.32,4.82,11,3,18.92,5.15,20.89,9.32,3.07,6.47-6.88,20.38-19.93,26-9.88,4.29-19.2,2.82-23.14,2.25C437,188.86,397.84,205,379.66,189.7Z"/><path class="cls-3" d="M394.77,309.91l26,7.72h54.64l25.72-10.29,9-61.71,9.32-9,10-65.58s-69.75,6.11-80.67,5.79-82.93-7.71-85.5-10.61,11.89,70.07,11.89,70.07l8.68,9.33Z"/><path class="cls-3" d="M400.25,285.61l23,5.49h48.33l22.74-7.32,8-43.88,8.25-6.4,8.81-46.64S457.68,191.21,448,191s-73.35-5.49-75.62-7.54,10.52,49.83,10.52,49.83l7.67,6.63Z"/><ellipse class="cls-4" cx="455.53" cy="122.48" rx="20.89" ry="22.18"/><path class="cls-18" d="M390.25,194.7A62.36,62.36,0,0,1,378,179.59c-3.55-6.09-5.41-9.26-4.18-11.89,2.47-5.27,13.58-.4,25.72-8a39.22,39.22,0,0,0,9-8c5.54-6.9,4.06-10.3,8-13.18,6-4.33,11.15,2,20.25-1.61,7.12-2.81,6.37-7.62,14.47-10.61,5.74-2.12,6.69.09,13.5-1.6,11.35-2.83,16.53-10.9,19.28-9,1.91,1.31-.92,4.89,1.29,10,2.37,5.45,7.3,5.17,8.36,10,.84,3.84-1.93,5.81-.32,8.68,1.21,2.17,3.82,2.9,6.1,3.54,5.94,1.65,9.21-.52,10.61,1.28,1.64,2.12-2.38,5.73-1,9.33,1.14,2.91,5,3.64,9.32,4.82,11,3,18.91,5.15,20.89,9.32,3.06,6.47-6.88,20.38-19.93,26-9.88,4.29-19.2,2.82-23.14,2.25C447.59,193.86,408.43,210,390.25,194.7Z"/><path class="cls-19" d="M405.35,314.91l26,7.72H486l25.72-10.29,9-61.71,9.32-9,10-65.58s-69.75,6.11-80.68,5.79-82.92-7.71-85.5-10.61,11.9,70.07,11.9,70.07l8.68,9.33Z"/><polyline class="cls-20" points="405.35 314.91 443.28 304.31 482.18 304.31 511.75 312.34"/><path class="cls-21" d="M410.84,290.61l23,5.49H482.2l22.74-7.32,8-43.88,8.25-6.4L530,191.86s-61.69,4.35-71.36,4.12-73.35-5.49-75.62-7.54,10.52,49.83,10.52,49.83l7.67,6.63Z"/><path class="cls-22" d="M404.9,314.91l26,7.72h54.65l25.71-10.29,9-61.71,9.32-9,10-65.58s-69.75,6.11-80.68,5.79-82.93-7.71-85.5-10.61,11.89,70.07,11.89,70.07l8.68,9.33Z"/></g><g id="Capa_6" data-name="Capa 6"><path class="cls-23" d="M262.05,415c-6.4-9.31-2.42-21.87.43-30.85,2.43-7.68,9.21-29.06,27.85-33.86,12.05-3.1,22.53,2.39,26.15,4.28,19.75,10.35,23.65,32.44,24.43,36.86,1.4,8,3,17.09-2.15,24.43-7.28,10.36-23,9.91-39.85,9.43C281.65,424.77,268.52,424.39,262.05,415Z"/><path class="cls-24" d="M320.76,419c-6.4-9.31-2.42-21.87.43-30.85,2.44-7.68,9.21-29.06,27.86-33.86,12-3.1,22.52,2.39,26.14,4.28C394.94,369,398.84,391,399.62,395.46c1.41,8,3,17.09-2.14,24.43-7.29,10.36-23,9.91-39.86,9.43C340.36,428.82,327.23,428.45,320.76,419Z"/><path class="cls-25" d="M371.21,420.54c-6.4-9.31-2.42-21.87.43-30.85,2.43-7.68,9.21-29.06,27.85-33.86,12-3.1,22.53,2.39,26.15,4.29,19.75,10.34,23.64,32.43,24.42,36.85,1.41,8,3,17.1-2.14,24.43-7.28,10.36-23,9.91-39.86,9.43C390.81,430.34,377.68,430,371.21,420.54Z"/><path class="cls-26" d="M426.43,419c-6.4-9.31-2.42-21.87.43-30.85,2.43-7.68,9.21-29.06,27.85-33.86,12.05-3.1,22.53,2.39,26.15,4.28C500.61,369,504.51,391,505.29,395.46c1.4,8,3,17.09-2.15,24.43-7.28,10.36-23,9.91-39.85,9.43C446,428.82,432.9,428.45,426.43,419Z"/><ellipse class="cls-27" cx="275.79" cy="376.68" rx="9.21" ry="10.71"/><ellipse class="cls-27" cx="334.61" cy="380.74" rx="9.21" ry="10.71"/><ellipse class="cls-27" cx="383.41" cy="384.1" rx="9.21" ry="10.71"/><ellipse class="cls-27" cx="440.36" cy="380.74" rx="9.21" ry="10.71"/><circle class="cls-28" cx="270.26" cy="373.7" r="3.67"/><circle class="cls-28" cx="329.6" cy="377.38" r="3.67"/><circle class="cls-28" cx="377.87" cy="381.72" r="3.67"/><circle class="cls-28" cx="435.4" cy="377.06" r="3.67"/><path class="cls-29" d="M168.54,366.21a36.58,36.58,0,0,1,21.85-14.46A35.31,35.31,0,0,1,230.89,398c-4.89,14.16-18.91,25-35,24.11a35.65,35.65,0,0,1-31.18-23.46l18.64-11.29Z"/><circle class="cls-30" cx="112.31" cy="391.22" r="13.84"/><circle class="cls-30" cx="70.34" cy="391.45" r="13.84"/><circle class="cls-30" cx="31.28" cy="390.52" r="13.84"/></g><g id="Capa_5" data-name="Capa 5"><text class="cls-31" transform="translate(59.89 67.93)"><tspan class="cls-32">P</tspan><tspan x="35.42" y="0">ac-man Batidos</tspan></text><text class="cls-33" transform="translate(405.35 445.93)">$ 30</text></g><g id="Capa_2" data-name="Capa 2"><g id="Capa_2-2" data-name="Capa 2"><path class="cls-34" d="M95,455.72s7.84-7.13,9.22-10.24,7.6-16.33,7.14-18.11,29.27-5.05,29.27-5.05v14.25"/><path class="cls-35" d="M92.89,434,96.11,437s61.77-7.91,64.53-9.23S94.27,435.72,92.89,434Z"/><path class="cls-35" d="M174.6,418.1c3.41-1.78-81.82,10.69-83.53,8.32l4,4.16"/></g><g id="Capa_3-2" data-name="Capa 3"><path class="cls-35" d="M127.63,447.05q5.26.19,10.53.56l2.67.2c.85,0,1.69.1,2.53.21.61.1,1.33.54,1,1.09-.19.32-.73.42-1.14.47-.9.1-1.85.07-2.76.11l-3,.11c-.65,0-.65.81,0,.79l3-.12c.93,0,1.88,0,2.81-.11a3.21,3.21,0,0,0,1.69-.55,1.18,1.18,0,0,0,.37-1.5,2.36,2.36,0,0,0-1.89-1.08c-1-.12-1.94-.17-2.9-.24-2-.15-4-.29-6-.4q-3.42-.21-6.85-.33c-.66,0-.66.76,0,.78Z"/><path class="cls-35" d="M143.21,448.09a5.13,5.13,0,0,0,4.64-2.84,5.32,5.32,0,0,0-.34-5.49,9.61,9.61,0,0,0-5.08-3.72,27.51,27.51,0,0,0-8.8-.92c-3.24,0-6.49,0-9.72.23a57.27,57.27,0,0,0-8.89,1.08,18.29,18.29,0,0,0-6.94,2.85c-2,1.41-3.32,3.35-2.86,5.47a3.22,3.22,0,0,0,1.89,2.29,9.53,9.53,0,0,0,3.92.42l9.88-.1,2.43,0a.41.41,0,1,0,0-.79l-9.12.1c-1.47,0-2.93.05-4.41,0a3.93,3.93,0,0,1-3-.93c-1.38-1.62-.43-3.76,1-5.12a14.48,14.48,0,0,1,6-3.11,44.4,44.4,0,0,1,7.79-1.24c3-.26,6-.33,9-.37a62.31,62.31,0,0,1,8.54.18,11.47,11.47,0,0,1,6.13,2.47,5.63,5.63,0,0,1,2.17,4.78,4.59,4.59,0,0,1-3,3.8,3.62,3.62,0,0,1-1.23.15c-.65,0-.65.76,0,.79Z"/><path class="cls-35" d="M108.64,447.4c.12-.32-.11-.65-.52-.74a.88.88,0,0,0-.85.24,1.81,1.81,0,0,0-.44,1.61,3.46,3.46,0,0,0,2.83,2.54,13.44,13.44,0,0,0,2.46.29c1,.07,2.07.12,3.1.15,2,.07,4.08.08,6.12.06q3.51-.06,7-.24c.64,0,.65-.82,0-.78-3.35.17-6.71.26-10.06.24-1.68,0-3.36-.06-5-.14a11.09,11.09,0,0,1-4.22-.65,2.28,2.28,0,0,1-1.14-1.22,1.74,1.74,0,0,1-.12-.71,1.72,1.72,0,0,1,.08-.38s0-.08.06-.12l.07-.11c.1-.12,0-.21-.34-.26-.13.49.85.7,1,.21Z"/><path class="cls-35" d="M107.44,452.73a1.47,1.47,0,0,0,0,1.77,2.68,2.68,0,0,0,2.09,1,18.76,18.76,0,0,0,3.09-.25l3.43-.36,7-.75,3.34-.35,1.67-.18a7.93,7.93,0,0,1,1.69-.13c.53.06.75.48.94.82s.45.87.68,1.31l1.51,2.9a.57.57,0,0,0,.65.27.54.54,0,0,0,.2-.1,22.25,22.25,0,0,1,5.91-3.21c1.78-.64,3.92-1.05,4.76-2.58.26-.46-.62-.86-.87-.39-.82,1.47-3.1,1.79-4.79,2.43a23.09,23.09,0,0,0-5.73,3.2l.85.17-1.29-2.47a21.55,21.55,0,0,0-1.19-2.22,2.24,2.24,0,0,0-2.18-.89c-1.08.08-2.17.22-3.25.34l-13.37,1.42-2,.21a4.66,4.66,0,0,1-1.49,0c-.75-.19-1.29-1-.87-1.53.14-.19,0-.42-.2-.53a.62.62,0,0,0-.67.14Z"/><path class="cls-35" d="M107.52,457.81a4.88,4.88,0,0,0-.06,2.43.52.52,0,0,0,.49.28q8.25.28,16.5.2c5.47-.05,11-.19,16.41-.52a4.89,4.89,0,0,0,3.12-1,1.92,1.92,0,0,0,.44-2.42c-.29-.45-1.16-.05-.88.4a1.36,1.36,0,0,1-.68,1.77,7.28,7.28,0,0,1-3.11.52c-2.58.13-5.16.24-7.74.31q-7.65.24-15.32.16-4.36,0-8.75-.2l.5.29a3.92,3.92,0,0,1,0-2c.14-.49-.84-.7-1-.21Z"/><path class="cls-35" d="M107.81,462.93c.26,1-.19,2-.17,3a2.25,2.25,0,0,0,1.91,2.17,13,13,0,0,0,2.07.26c.85.09,1.69.16,2.57.22,1.68.12,3.36.21,5,.26a141.41,141.41,0,0,0,20.07-.92,7.1,7.1,0,0,0,4-1.41,2.7,2.7,0,0,0,.81-3.12c-.23-.47-1.21-.26-1,.21a2.08,2.08,0,0,1-.66,2.46,6.32,6.32,0,0,1-3.41,1.1c-3.09.36-6.21.6-9.32.76a122.7,122.7,0,0,1-18.59-.39,4.9,4.9,0,0,1-2-.43,1.3,1.3,0,0,1-.59-1.23c0-1,.42-2.09.13-3.14-.13-.49-1.11-.28-1,.21Z"/><path class="cls-36" d="M159.67,442.9l-7.51,16L150,463.46c-.22.47.76.68,1,.2l7.51-16,2.12-4.52c.22-.48-.76-.69-1-.21Z"/><path class="cls-36" d="M154,448.5a.75.75,0,0,1,.16,0s0,0,0,0-.05-.25-.05-.27a1.3,1.3,0,0,1,.15-.6,9.27,9.27,0,0,1,1.22-1.54,16.55,16.55,0,0,1,3-2.62,18.61,18.61,0,0,1,7.45-3,17.71,17.71,0,0,1,4.6-.15l-.37-.38a10.39,10.39,0,0,1-3.05,5.73,31.29,31.29,0,0,1-6.15,4.54l.72.56a13.55,13.55,0,0,1,8.16-2.15c1.14.09,2.27.57,2.3,1.56a3,3,0,0,1-.68,1.71c-.34.5-.72,1-1.11,1.47a30.37,30.37,0,0,1-11.71,8.78,31.18,31.18,0,0,1-8.12,2.26c-.64.09-.37.84.27.75a32.38,32.38,0,0,0,14.9-6.11,30.78,30.78,0,0,0,5.69-5.52c.8-1,1.87-2.22,1.75-3.46s-1.12-1.85-2.45-2.12a12.08,12.08,0,0,0-4.9.23,14.8,14.8,0,0,0-4.83,2c-.51.33.21.87.71.56A32,32,0,0,0,168,446a10.92,10.92,0,0,0,3.12-6,.41.41,0,0,0-.37-.38A19.32,19.32,0,0,0,154,446.34a3.3,3.3,0,0,0-1,1.87,1,1,0,0,0,1.19,1c.64-.09.37-.85-.27-.75Z"/><path class="cls-36" d="M175.7,449.26a34.56,34.56,0,0,0-1.16,5.74,28.46,28.46,0,0,0-.21,2.92,3.76,3.76,0,0,0,.68,2.53,2.42,2.42,0,0,0,2.41.89,4.36,4.36,0,0,0,2.33-1.4,7.59,7.59,0,0,0,1.84-4.73,63,63,0,0,0-.08-6.59c0-.51-1-.51-1,0,0,1.73.13,3.46.13,5.19a8.91,8.91,0,0,1-1,4.77c-.52.86-2.39,2.95-3.65,1.57a3.16,3.16,0,0,1-.59-2.36c0-.84.08-1.69.18-2.54a33.22,33.22,0,0,1,1.15-5.78c.14-.49-.84-.7-1-.21Z"/><path class="cls-36" d="M183.72,449.75l.48,9.89a.52.52,0,0,0,1,0,32.31,32.31,0,0,1,1-5.81,10.5,10.5,0,0,1,2.89-4.92c.42-.39-.3-1-.72-.56-3.36,3.08-3.79,7.45-4.21,11.29h1l-.48-9.89c0-.5-1-.5-1,0Z"/><path class="cls-36" d="M195.3,447.79c-.74-.74-1.91-.06-2.41.51a10.16,10.16,0,0,0-1.53,2.44,11.46,11.46,0,0,0-1.09,5.6c.07,1.11.68,3.5,2.78,3.06a2.77,2.77,0,0,0,1.83-1.72,12.05,12.05,0,0,0,.91-2.82,30.34,30.34,0,0,0,.34-6.73h-1a65.76,65.76,0,0,1-1,15.33c-.2,1.29-.43,2.58-.66,3.86a24.54,24.54,0,0,1-.72,3.57,3,3,0,0,1-2.22,2.27c-1.2.15-2-1-2.37-1.69a4.56,4.56,0,0,1,1.92-5.65c.51-.31-.22-.86-.72-.55a5.3,5.3,0,0,0-2.45,5.52,4,4,0,0,0,1.86,2.73,3.19,3.19,0,0,0,3.46-.23,5,5,0,0,0,1.75-3.22c.28-1.34.49-2.7.73-4.05.48-2.79.92-5.6,1.21-8.41a53.61,53.61,0,0,0,.18-9.48c0-.5-1-.51-1,0a40.38,40.38,0,0,1-.09,5,15.09,15.09,0,0,1-.45,2.47,8.09,8.09,0,0,1-.9,2.24c-.24.38-.8,1-1.43.67a2.34,2.34,0,0,1-.88-1.55,7.85,7.85,0,0,1-.06-2.27,11,11,0,0,1,.48-2.38,11.77,11.77,0,0,1,1.11-2.43,9.85,9.85,0,0,1,.81-1.14,1.75,1.75,0,0,1,.5-.43c.17-.09.25-.13.38,0,.4.4,1.12-.16.72-.56Z"/><path class="cls-36" d="M201,453.78a7.35,7.35,0,0,0,3.38-1.1,4.34,4.34,0,0,0,2.12-2.56,2.14,2.14,0,0,0-1.45-2.27,3.49,3.49,0,0,0-3.16.35,6.49,6.49,0,0,0-2.22,2.49,8.08,8.08,0,0,0-.93,3,7.72,7.72,0,0,0,.29,3.09,4.13,4.13,0,0,0,1.86,2.6c2,1.12,5.94.49,6.32-1.6.07-.21-.09-.42-.35-.49a.54.54,0,0,0-.62.28c-.27,1.42-2.84,1.91-4.34,1.37a3,3,0,0,1-1.76-2,7,7,0,0,1-.43-2.43,7.31,7.31,0,0,1,1.69-4.71,3.52,3.52,0,0,1,2.35-1.42,1.72,1.72,0,0,1,1.73,1.08c.26.9-.62,1.8-1.4,2.38A6,6,0,0,1,201,453C200.37,453,200.37,453.82,201,453.78Z"/><path class="cls-36" d="M209.12,448.14a3.56,3.56,0,0,1,1.32,2c.34,1,.62,2,.86,3a31,31,0,0,1,.79,6.12h1a18.77,18.77,0,0,1,.37-6.8c.43-1.72,1.26-4.3,3.87-4.71.64-.11.37-.87-.27-.76-2.82.46-4,3-4.48,4.92a18.82,18.82,0,0,0-.5,7.35c.06.49,1,.52,1,0a31.78,31.78,0,0,0-.9-6.57,25.89,25.89,0,0,0-.92-3.08,4,4,0,0,0-1.66-2.16.6.6,0,0,0-.7.14.35.35,0,0,0,.19.52Z"/><path class="cls-36" d="M229.36,439.73a2.59,2.59,0,0,0-.59-3.33,3.84,3.84,0,0,0-4.06-.58,5.8,5.8,0,0,0-3.14,3.27,21.36,21.36,0,0,0-1.22,4.81,44.76,44.76,0,0,0-.81,10.19,7.32,7.32,0,0,0,1.33,4.33,5.68,5.68,0,0,0,3.89,2,4.82,4.82,0,0,0,2.64-.43,3,3,0,0,0,1.46-2,16.42,16.42,0,0,0,.52-4.67.45.45,0,0,0-.5-.39c-.29,0-.51.17-.51.39a18.08,18.08,0,0,1-.25,3.52,5.14,5.14,0,0,1-.64,2,2.37,2.37,0,0,1-1.82.9,4.66,4.66,0,0,1-3.55-1.25,5.58,5.58,0,0,1-1.5-3.59,29.11,29.11,0,0,1,0-4.38c.08-1.53.23-3,.45-4.55s.49-2.94.83-4.39a8.46,8.46,0,0,1,1.63-3.76c.77-.92,2.46-2,3.91-1.28a2.08,2.08,0,0,1,1.07,2.85c-.3.45.58.85.88.4Z"/><path class="cls-36" d="M229.42,454.65q.12-2.17,0-4.35a.42.42,0,0,0-.37-.38,24.1,24.1,0,0,0-4.65-.16c-.65,0-.66.82,0,.78a23.74,23.74,0,0,1,4.38.13l-.38-.37q.09,2.18,0,4.35C228.37,455.16,229.39,455.15,229.42,454.65Z"/><path class="cls-36" d="M234.43,453.36c1.47-.24,3,.24,4.45-.12a3.38,3.38,0,0,0,2.33-1.74,2,2,0,0,0-.86-2.38,4.62,4.62,0,0,0-3-.64,6.22,6.22,0,0,0-5.25,3.93,5.71,5.71,0,0,0-.19,3.17,3.56,3.56,0,0,0,2,2.61,8.81,8.81,0,0,0,4.15.6,6.92,6.92,0,0,0,3.82-1.33.33.33,0,0,0,0-.55.62.62,0,0,0-.69,0,7.23,7.23,0,0,1-5.83.89,2.75,2.75,0,0,1-2.2-1.74,4.8,4.8,0,0,1-.22-2.7,5.14,5.14,0,0,1,3.62-3.91,4.39,4.39,0,0,1,2.54-.06,1.58,1.58,0,0,1,1.29,1.61,2.28,2.28,0,0,1-1.91,1.52,8.43,8.43,0,0,1-2.07,0,9.94,9.94,0,0,0-2.18.06c-.64.1-.37.85.27.75Z"/><path class="cls-36" d="M261.86,436.09q-1,4.95-2.37,9.84a65.83,65.83,0,0,1-3.05,9.11,19.24,19.24,0,0,1-2.76,4.53c-.34.43.52.82.88.4a24.84,24.84,0,0,0,4.25-8.39c1.07-3.21,2-6.46,2.79-9.71q.67-2.78,1.25-5.57c.11-.5-.87-.71-1-.21Z"/><path class="cls-36" d="M258.77,448.47a4.14,4.14,0,0,0,3.45-.77,12.88,12.88,0,0,0,2.54-2,20.92,20.92,0,0,0,3.82-5.48c.6-1.19,1.14-2.4,1.67-3.61.21-.48-.77-.68-1-.21a34.3,34.3,0,0,1-3.79,7.07,14.29,14.29,0,0,1-2.55,2.68,11.32,11.32,0,0,1-1.59,1.07,2.82,2.82,0,0,1-2.06.56.64.64,0,0,0-.7.14.36.36,0,0,0,.19.54Z"/><path class="cls-36" d="M260.34,448.59a2.37,2.37,0,0,1,2.27-.18,3.31,3.31,0,0,1,1.4,1.4,14.59,14.59,0,0,1,1.43,4.44c.33,1.49.5,3.05,1.62,4.29a3.68,3.68,0,0,0,2,1.19,5.3,5.3,0,0,0,2.74-.24c1.81-.58,4-1.54,3.78-3.3-.06-.5-1.08-.5-1,0a1.79,1.79,0,0,1-1.08,1.72,10.24,10.24,0,0,1-2.51,1,3,3,0,0,1-2.47-.26,3.84,3.84,0,0,1-1.31-1.71,37.31,37.31,0,0,1-1.16-4.6,8.22,8.22,0,0,0-1.78-3.79,3.59,3.59,0,0,0-2-1.08,3.67,3.67,0,0,0-2.6.59c-.49.33.23.88.72.55Z"/><path class="cls-36" d="M246.1,453.58c1.47-.23,3,.25,4.45-.12a3.34,3.34,0,0,0,2.33-1.73,2,2,0,0,0-.86-2.38,4.62,4.62,0,0,0-3-.64,6.19,6.19,0,0,0-5.24,3.93,5.71,5.71,0,0,0-.2,3.17,3.56,3.56,0,0,0,2,2.61,8.94,8.94,0,0,0,4.15.61,7,7,0,0,0,3.82-1.33.34.34,0,0,0,0-.56.63.63,0,0,0-.72,0,7.2,7.2,0,0,1-5.83.9,2.76,2.76,0,0,1-2.2-1.74,4.8,4.8,0,0,1-.22-2.7,5.14,5.14,0,0,1,3.62-3.91,4.39,4.39,0,0,1,2.54-.06,1.58,1.58,0,0,1,1.29,1.61,2.27,2.27,0,0,1-1.91,1.52,8.43,8.43,0,0,1-2.07,0,9.94,9.94,0,0,0-2.18.06c-.64.1-.36.85.27.75Z"/></g></g></svg>