<svg id="Capa_1" data-name="Capa 1" xmlns="http://www.w3.org/2000/svg" xmlns:xlink="http://www.w3.org/1999/xlink" viewBox="0 0 568.9 480"><defs><style>.cls-1{fill:url(#Degradado_sin_nombre_3);}.cls-10,.cls-11,.cls-12,.cls-13,.cls-14,.cls-15,.cls-16,.cls-17,.cls-18,.cls-19,.cls-2,.cls-20,.cls-21,.cls-22,.cls-23,.cls-24,.cls-25,.cls-26,.cls-27,.cls-28,.cls-29,.cls-3,.cls-4,.cls-5,.cls-50,.cls-54,.cls-6,.cls-60,.cls-61,.cls-7,.cls-8,.cls-9{isolation:isolate;}.cls-2,.cls-3{font-size:49.99px;}.cls-10,.cls-12,.cls-14,.cls-16,.cls-18,.cls-2,.cls-20,.cls-22,.cls-24,.cls-26,.cls-28,.cls-4,.cls-6,.cls-60,.cls-8{fill:#ffd600;}.cls-10,.cls-11,.cls-12,.cls-13,.cls-14,.cls-15,.cls-16,.cls-17,.cls-18,.cls-19,.cls-2,.cls-20,.cls-21,.cls-22,.cls-23,.cls-24,.cls-25,.cls-26,.cls-27,.cls-28,.cls-29,.cls-3,.cls-4,.cls-5,.cls-6,.cls-60,.cls-61,.cls-7,.cls-8,.cls-9{font-family:Impact;}.cls-11,.cls-13,.cls-15,.cls-17,.cls-19,.cls-21,.cls-23,.cls-25,.cls-27,.cls-29,.cls-3,.cls-35,.cls-36,.cls-40,.cls-5,.cls-58,.cls-61,.cls-7,.cls-9{fill:none;}.cls-11,.cls-13,.cls-15,.cls-17,.cls-19,.cls-21,.cls-23,.cls-25,.cls-27,.cls-29,.cls-3,.cls-5,.cls-61,.cls-7,.cls-9{stroke:#160064;}.cls-11,.cls-13,.cls-15,.cls-17,.cls-19,.cls-27,.cls-3,.cls-31,.cls-32,.cls-33,.cls-35,.cls-36,.cls-40,.cls-5,.cls-58,.cls-61,.cls-7,.cls-9{stroke-miterlimit:10;}.cls-11,.cls-13,.cls-15,.cls-17,.cls-19,.cls-27,.cls-3,.cls-31,.cls-32,.cls-33,.cls-35,.cls-36,.cls-40,.cls-5,.cls-61,.cls-7,.cls-9{stroke-width:2px;}.cls-4,.cls-5{font-size:49.56px;}.cls-6,.cls-7{font-size:49.32px;}.cls-8,.cls-9{font-size:48.69px;}.cls-10,.cls-11{font-size:48.54px;}.cls-12,.cls-13{font-size:48.49px;}.cls-14,.cls-15{font-size:47.86px;}.cls-16,.cls-17{font-size:48.17px;}.cls-18,.cls-19{font-size:48.37px;}.cls-20,.cls-21{font-size:48.68px;}.cls-21{stroke-miterlimit:10.02;stroke-width:2px;}.cls-22,.cls-23{font-size:48.89px;}.cls-23{stroke-miterlimit:9.99;stroke-width:2px;}.cls-24,.cls-25{font-size:49.42px;}.cls-25{stroke-miterlimit:9.99;stroke-width:2px;}.cls-26,.cls-27{font-size:50.01px;}.cls-28,.cls-29{font-size:50.46px;}.cls-29{stroke-miterlimit:10;stroke-width:2px;}.cls-30{opacity:0.65;}.cls-31,.cls-35{stroke:#006300;}.cls-32,.cls-36{stroke:#ff8600;}.cls-33,.cls-40{stroke:#15006a;}.cls-34{fill:#00b300;}.cls-37{fill:#a9ff97;}.cls-38{fill:#07d437;}.cls-39{fill:#4a9bff;}.cls-41{fill:#c087ff;}.cls-42{fill:#0c1aff;}.cls-43{fill:#ffb300;}.cls-44{fill:#ff8603;}.cls-45{fill:#ff0303;}.cls-46{fill:#fef479;}.cls-47{fill:#acd9d6;}.cls-48{fill:#c76212;}.cls-49{fill:#e7faf4;}.cls-50,.cls-54{opacity:0.49;}.cls-51,.cls-54{fill:#8abc8b;}.cls-52{fill:#8ac6ac;}.cls-53{fill:#4c8566;}.cls-55{fill:#e3a77b;}.cls-56{fill:#f0e2c8;}.cls-57{fill:#de583b;}.cls-58{stroke:#e80006;stroke-width:0.75px;}.cls-59{fill:#e80006;}.cls-60,.cls-61{font-size:72px;}</style><linearGradient id="Degradado_sin_nombre_3" x1="287.84" y1="-1002.49" x2="280.94" y2="-521.28" gradientTransform="matrix(1, 0, 0, -1, 0, -526)" gradientUnits="userSpaceOnUse"><stop offset="0" stop-color="#166cff"/><stop offset="0.03" stop-color="#1e71ff"/><stop offset="0.07" stop-color="#337eff"/><stop offset="0.13" stop-color="#5695ff"/><stop offset="0.19" stop-color="#87b3ff"/><stop offset="0.25" stop-color="#c4daff"/><stop offset="0.31" stop-color="#fff"/><stop offset="1" stop-color="#0c65ff"/></linearGradient></defs><g id="Capa_2" data-name="Capa 2"><rect class="cls-1" width="568.9" height="480"/></g><g id="Capa_4" data-name="Capa 4"><text class="cls-2" transform="matrix(1.14, -0.51, 0.53, 0.84, 52.03, 107.93)">H</text><text class="cls-3" transform="matrix(1.14, -0.51, 0.53, 0.84, 52.03, 107.93)">H</text><text class="cls-4" transform="matrix(1.2, -0.45, 0.46, 0.89, 83.05, 94.03)">e</text><text class="cls-5" transform="matrix(1.2, -0.45, 0.46, 0.89, 83.05, 94.03)">e</text><text class="cls-6" transform="matrix(1.22, -0.39, 0.4, 0.91, 112.88, 83.1)">l</text><text class="cls-7" transform="matrix(1.22, -0.39, 0.4, 0.91, 112.88, 83.1)">l</text><text class="cls-8" transform="matrix(1.26, -0.34, 0.35, 0.94, 128.84, 77.81)">a</text><text class="cls-9" transform="matrix(1.26, -0.34, 0.35, 0.94, 128.84, 77.81)">a</text><text class="cls-10" transform="matrix(1.3, -0.27, 0.28, 0.96, 159.21, 69.61)">d</text><text class="cls-11" transform="matrix(1.3, -0.27, 0.28, 0.96, 159.21, 69.61)">d</text><text class="cls-12" transform="matrix(1.31, -0.19, 0.2, 0.98, 191.16, 63.05)">o</text><text class="cls-13" transform="matrix(1.31, -0.19, 0.2, 0.98, 191.16, 63.05)">o</text><text class="cls-14" transform="matrix(1.34, -0.11, 0.12, 0.99, 223.07, 58.5)">s</text><text class="cls-15" transform="matrix(1.34, -0.11, 0.12, 0.99, 223.07, 58.5)">s</text><text class="cls-16" transform="matrix(1.17, 0.13, -0.16, 0.99, 315.24, 55.21)">P</text><text class="cls-17" transform="matrix(1.17, 0.13, -0.16, 0.99, 315.24, 55.21)">P</text><text class="cls-18" transform="matrix(1.15, 0.19, -0.23, 0.97, 342.93, 58.3)">o</text><text class="cls-19" transform="matrix(1.15, 0.19, -0.23, 0.97, 342.93, 58.3)">o</text><text class="cls-20" transform="matrix(1.13, 0.25, -0.29, 0.96, 370.86, 62.98)">k</text><text class="cls-21" transform="matrix(1.13, 0.25, -0.29, 0.96, 370.86, 62.98)">k</text><text class="cls-22" transform="matrix(1.11, 0.3, -0.36, 0.93, 396.55, 68.63)">e</text><text class="cls-23" transform="matrix(1.11, 0.3, -0.36, 0.93, 396.55, 68.63)">e</text><text class="cls-24" transform="matrix(1.06, 0.38, -0.45, 0.89, 423.56, 75.86)">m</text><text class="cls-25" transform="matrix(1.06, 0.38, -0.45, 0.89, 423.56, 75.86)">m</text><text class="cls-26" transform="matrix(1.01, 0.44, -0.52, 0.85, 463.12, 90.17)">o</text><text class="cls-27" transform="matrix(1.01, 0.44, -0.52, 0.85, 463.12, 90.17)">o</text><text class="cls-28" transform="matrix(0.97, 0.49, -0.58, 0.82, 488.4, 101.18)">n</text><text class="cls-29" transform="matrix(0.97, 0.49, -0.58, 0.82, 488.4, 101.18)">n</text><g class="cls-30"><path d="M158.71,240c49.26,46.37,86.83,80.38,99.13,89.83,2.66,2,8,5.89,13.8,5.18,7.29-.9,13.25-8.21,13-11.68-.68-9.13-1.19-12.88-3.81-39.35-2-20.13-8.3-49.82-13.7-96.61"/><path d="M268.59,186.12c1.33-.9,4.27-2.92,4.53-5.89.39-4.46-5.52-8.25-6.44-8.83-14-9-55.33,11.77-77.17,22.71,0,0-27.37,13.72-41.69,35.67-1.92,2.95-2,5.08-1.27,6.7,1.73,3.76,8.08,4.92,8.84,5.05C164,243,172,237.78,174.76,236,195.71,222.8,240.92,204.74,268.59,186.12Z"/><path class="cls-31" d="M265,316.9a68.79,68.79,0,0,1,18.72,10.18"/><path class="cls-31" d="M236.65,312.14"/><path class="cls-31" d="M247.71,293.18a98.08,98.08,0,0,1,35.67,18.46"/><path class="cls-31" d="M210.85,289"/><path class="cls-31" d="M223.45,206.89a193.21,193.21,0,0,1,29.88,13.67,175.74,175.74,0,0,1,21.27,14.21"/><path class="cls-32" d="M246.89,191.91,270,205.68"/><path class="cls-31" d="M186.49,267"/><path class="cls-31" d="M266.67,194.86a103.33,103.33,0,0,0-25.91,6.29,86.41,86.41,0,0,0-33.1,22.74"/><path class="cls-31" d="M222.74,299.24"/><path class="cls-31" d="M275.72,250a82,82,0,0,0-22.44,10.09"/><path class="cls-31" d="M241.28,316.44"/><path class="cls-31" d="M280.08,278.37a58.48,58.48,0,0,0-20.93,8.95"/><path class="cls-31" d="M256.08,329.12"/><path class="cls-31" d="M282.48,301.8a47.89,47.89,0,0,0-14.4,8.14"/><path d="M140.32,141.45c-.6-4.59,2.65-15.15,6.36-18.59,5.43-5,7.39-4.25,9.66-7.76s3.25-9.1,0-12.39c-2.87-2.9-7.26-2.44-7.32-3.65-.09-2,11.16-4.81,22.89-4,6.31.43,11.22.77,14.13,3.54,7.49,7.14-5.63,23.28-6.2,24-10.47,12.64-30.28,21.38-37.12,17.52C140.1,138.62,140.42,142.27,140.32,141.45Z"/><path d="M140.17,222.82c-5.73-4-3.55-16.39-2.72-19.28,1.44-5.37,5.47-14,24.39-27.44,23.85-17,45.29-23.15,61.51-27.67,20.42-5.68,30.46-.06,31.93,1.55,1.74,1.91-5.14,1.12-6.47,3.44-8.59,15.07-30.7,23.73-51,37.07-20.51,13.51-39.67,32.2-52.34,31C144.6,221.43,142.33,224.33,140.17,222.82Z"/><path d="M141.29,225.65c.59,2,2.52,5.56,5.19,5.71,4.62.26,5.08-10.14,15.14-13.74a19.69,19.69,0,0,1,11.55-.48c4.24,1.29,6.5,4.08,8.43,6.48,3.83,4.75,2.46,6.61,6.26,10.88,2.09,2.36,4.84,5.45,9,5.55,3.87.09,8.09-2.38,8.71-5.21.7-3.22-3.7-4.88-9.21-10.93-3.79-4.16-9.07-9.94-8.5-16.54.47-5.24,4.74-12.44,11.56-12.87,5.76-.36,11.85,4.19,13.12,8.44.53,1.8-.13,2.51.79,4.46,1.13,2.41,4.22,5.73,8.15,5.77,4.36,0,8.46-3.93,8.77-7.55.38-4.52-5.4-5.84-8-12.78-1-2.71-2.37-6.35-.68-9.13,5.49-9,37.43-.35,44.06-9.91,1.73-2.5,1.07-5.29,0-10.06-1.37-5.77-6.15-12-10.34-13.76-2.37-1-3.7-2.7-5-2.67-10.67.27-24.06,15.91-58.08,38.87,0,0-36.74,25.95-49.91,32.24C137.83,220.58,141.29,225.65,141.29,225.65Z"/><path d="M135.42,186a4.16,4.16,0,0,1-.57-1.42c.39-.15,3.48,10.15,10.07,13.06,12.93,5.71,29.92-21.21,75.85-40.86,6-2.58,14.68-5.94,16.59-12.54,2.81-9.8-10.42-22.8-16.37-21.6-2.64.54-3.61,3.85-4,4.84-2.8,7.87-21.68,22.66-84.15,52.15"/><path d="M143.05,150.85c-4.42,4.71-8.43,10-9.87,17.12-.91,4.49-2.5,12.29,2,15,5.76,3.47,16-4.66,54.42-23.27,16.25-7.85,28.3-13.11,33.45-24.37,1.18-2.51,3.55-7.93.27-11.69-5.16-6-21-3.66-26.57-2.85C167.29,125.08,150,143.45,143.05,150.85Z"/><path d="M139.37,144c.37,2.28,2,5.12,4.3,5.93,5.19,1.86,11.54-7.75,26.13-15.63,16.89-9.13,27.26-6.43,30.82-13.67,3.18-6.47-2.13-14.72-7.55-19.08C187.37,97,179.51,95,179,95.66s4.39,2.09,6.09,5.5c3.08,6.21-5.64,15.66-14.13,21.24-12.1,8-27,10.19-30.59,16.71A8.33,8.33,0,0,0,139.37,144Z"/><path d="M268.28,209.74c-.58,57.09.09,99.7,1.66,112.48.35,2.76,1.19,8.13,6.21,10.58,6.24,3.07,16.73,1,19.35-1.51,6.94-6.67,9.62-9.52,29.22-29.21,14.9-15,34.3-38.77,68.43-73.91"/><path d="M395.28,228c1.74.05,5.6.13,8.21-1.79,3.95-2.9,2.56-8.52,2.37-9.37-3.27-13.3-51.41-19.88-76.83-23.35,0,0-31.89-4.36-60.62,3.61-3.85,1.07-5.66,2.5-6.41,4-1.75,3.48,2.1,7.5,2.57,8,5.3,5.38,15.6,5.81,19.11,6C310.29,216.54,359.18,226.92,395.28,228Z"/><path class="cls-33" d="M287.15,210a129.16,129.16,0,0,1,35.56,30.88,92.51,92.51,0,0,1,19.09,43.31"/><path class="cls-33" d="M266.94,232.48a129.36,129.36,0,0,1,24.46,16.29C308.53,263.35,320,282,324.11,302.25"/><path class="cls-33" d="M268.38,299.21a57.1,57.1,0,0,1,17.52,17.64,41.52,41.52,0,0,1,5.83,16.53"/><path class="cls-33" d="M304.15,322.56"/><path class="cls-33" d="M267.77,270.07a83.41,83.41,0,0,1,24.45,21.62"/><path class="cls-33" d="M344.22,219.56a117.25,117.25,0,0,1,11.44,24.61,104.57,104.57,0,0,1,4.49,20.63"/><path class="cls-33" d="M374.16,221.05q3.09,10.62,6.2,21.23"/><path class="cls-33" d="M386.69,233.11a104.33,104.33,0,0,0-24.7-8.76c-19.33-4.26-35.1-2.19-43.57-1A121.88,121.88,0,0,0,267.3,242.5"/><path class="cls-33" d="M365.74,256.89a77.4,77.4,0,0,0-23.84-8.46c-14.34-2.6-25.77-.61-36.74,1.41a136.86,136.86,0,0,0-38.35,13"/><path class="cls-33" d="M348.58,275.92a98.54,98.54,0,0,0-25.18-4.38c-13-.53-22.74,1.66-30.82,3.54a130.73,130.73,0,0,0-24.23,8.15"/><path class="cls-33" d="M328.74,297.8a68.77,68.77,0,0,0-23.12-4.4,63.65,63.65,0,0,0-37.24,11.14"/><path class="cls-33" d="M311.45,315.26a60.93,60.93,0,0,0-17.52-1.65,54.25,54.25,0,0,0-24.7,7.21"/><path class="cls-33" d="M269.39,210.51c6.24-.59,15-1.27,25.55-1.59,13.68-.41,27-.81,41.48,1a158,158,0,0,1,46.6,13.5"/><path d="M334.76,132.09c3.29-3.48,14.35-9.16,20-9.66,8.19-.72,9.06.79,13.63-.49,4.74-1.33,9.87-4.67,10.11-8.59.2-3.46-3.55-5.36-2.56-6.24,1.53-1.39,12.36,2.32,20.56,8.83,4.41,3.49,7.85,6.21,7.79,9.61C404.1,134.29,381,138.84,380,139c-18.23,3.45-40.3-.52-42.35-6.66C336.91,130,334.23,132.72,334.76,132.09Z"/><path d="M268.3,188.43c-1.07-5.68,10.66-13.14,13.66-14.75,5.48-3,15.52-6.91,40.81-6.66,31.86.31,53.11,6.88,69.05,12,20.08,6.41,23.07,15.39,22.87,17.25-.23,2.21-4.8-1.83-7.69-.89-18.79,6.09-42.56.9-68.74-.11-26.51-1-56.24,2.23-64.87-5C272.81,189.73,268.7,190.57,268.3,188.43Z"/><path d="M266.84,191c-1.19,1.67-2.63,5.14-.74,6.59,3.27,2.52,12.12-4.45,22.64-1.86.83.21,6.35,1.64,9.13,5.53,2.15,3,1.58,6.11,1.09,8.76-1,5.23-3.56,5.83-4.15,10.71-.33,2.7-.78,6.23,2.31,8.43,2.84,2,8.06,2.45,10.83.8,3.16-1.88,1.19-5.27,2-12.25.52-4.8,1.25-11.48,7.11-15.76,4.61-3.41,13.71-6.24,19.22-3.07a9,9,0,0,1,3,12.49c-1.07,1.52-2.15,1.68-3,3.49-1.11,2.25-1.48,6.11,1.46,8.13,3.25,2.24,9.59,1.56,12.78-.79,4-3,.69-6.78,4.38-12.91,1.44-2.39,3.38-5.6,6.94-6.67,11.45-3.43,28.56,18.72,41.37,15.44,3.34-.85,5.12-3.12,8.16-7,3.67-4.69,5.14-11.45,3.41-14.77-1-1.87-.6-3.75-1.58-4.37-8.29-5.22-31.16-1.16-75.58-2.46,0,0-48.91-.62-64-2.93C268.34,185.69,266.84,191,266.84,191Z"/><path d="M294.71,160.51c.29-.64.62-1.29.74-1.27.41.1-5.67,8.79-3.06,14.15,5.12,10.51,39.92.45,90.67,10.1,6.65,1.26,15.94,3.32,22.76-.3,10.11-5.36,10.66-21.08,5.23-23.26-2.44-1-5.86.84-6.93,1.35-8.53,4.05-34.87,4.73-106.12-6.46"/><path d="M329.16,140c-7.19,1-14.55,2.67-21.42,6.86-4.35,2.65-11.85,7.26-10.67,11.42,1.53,5.32,15.88,4.86,60.12,11.44,18.68,2.78,32.08,5.24,45.14,0,2.92-1.16,9.14-3.71,9.74-8,1-6.75-12.87-13.17-17.77-15.44C368.49,134.41,340.46,138.39,329.16,140Z"/><path d="M332,133.38c-1.57,1.77-2.63,4.59-1.58,6.29,2.37,3.92,15,.47,32.5,2.4,20.2,2.23,25.84,9.35,34.43,6.13,7.68-2.87,10.39-11.28,9.86-17-.56-6.07-4.93-11.39-5.83-11.2s1.62,3.67.11,6.89c-2.73,5.87-17,8-28,7.57-15.65-.61-28.71-6.61-36.74-3.91A12.2,12.2,0,0,0,332,133.38Z"/><path d="M203,218.57c29.54,54.67,52.6,95.1,60.77,106.76,1.77,2.52,5.41,7.34,11.23,8,7.3.82,15.77-4.69,16.83-8,2.81-8.72,3.74-12.35,11.22-37.77,5.69-19.32,10.82-48.61,23.39-93.69"/><path d="M328.3,193c1.61-.54,5.18-1.77,6.55-4.49,2.06-4.1-2.16-9-2.81-9.74-10-11.57-57.31-1.55-82.29,3.75,0,0-31.34,6.64-53.34,24-2.95,2.32-3.85,4.3-3.74,6,.23,3.91,5.92,6.44,6.54,6.74,7.68,3.34,17.28.26,20.58-.75C244.8,210.84,294.81,204.18,328.3,193Z"/><path class="cls-32" d="M220.27,212.39a162.42,162.42,0,0,1,48.59,17.43,124.87,124.87,0,0,1,40.22,34.86"/><path class="cls-32" d="M302.56,287.93"/><path class="cls-32" d="M244.58,248"/><path class="cls-32" d="M213.72,240.72"/><path class="cls-32" d="M289.46,328.6"/><path class="cls-32" d="M275.44,314.8"/><path class="cls-32" d="M250.19,303.9"/><path class="cls-32" d="M295.12,314.07"/><path class="cls-32" d="M268,288.65"/><path class="cls-32" d="M234.29,276.31"/><path class="cls-32" d="M277.34,202.22a157.18,157.18,0,0,1,23.38,19.61A136,136,0,0,1,315.64,240"/><path class="cls-32" d="M305.36,193.51l16.84,18.16"/><path class="cls-32" d="M219.33,250.16"/><path class="cls-32" d="M323.14,200.77a110.93,110.93,0,0,0-27.13,0,104.53,104.53,0,0,0-40.21,13.8"/><path class="cls-32" d="M229.62,269.77"/><path class="cls-32" d="M316.58,230.55a82.12,82.12,0,0,0-26.18,0c-14.44,2.38-23.79,8.15-32.72,13.8"/><path class="cls-32" d="M241.78,288.65"/><path class="cls-32" d="M311,254.52a94.73,94.73,0,0,0-25.24,4.35"/><path class="cls-32" d="M253,309"/><path class="cls-32" d="M281.05,285.75"/><path class="cls-32" d="M304.43,282.12"/><path class="cls-32" d="M262.35,324.24"/><path class="cls-32" d="M297.88,304.63"/><path class="cls-32" d="M226.81,208.76c12.25-5,24.17-9.92,38.34-13.07a161.55,161.55,0,0,1,49.56-2.91"/><path class="cls-32" d="M204.37,218.93"/><path d="M222.61,122c1.18-4.43,8.29-13.61,13-16,7.11-3.47,8.67-2.31,12.16-5.08s6.55-7.8,4.68-11.62c-1.64-3.37-6-3.94-5.61-5.09.65-1.85,12.48-2,23.38,1.45,5.86,1.84,10.42,3.28,12.15,6.54,4.47,8.39-14.15,20.55-15,21.06-14.79,9.47-37,13.17-42.07,8C223.47,119.27,222.39,122.77,222.61,122Z"/><path d="M191.74,198.23c-4-5.06,2.85-16.16,4.68-18.7,3.41-4.7,10.49-11.85,33.66-20.18,29.18-10.49,52-11.41,69.21-12,21.65-.68,29.12,6.87,29.91,8.71.95,2.19-5.33-.12-7.48,1.76C307.83,170,283.44,173.13,259.07,181c-24.68,8-50,21.18-61.71,17.19C196.54,197.94,193.19,200.13,191.74,198.23Z"/><path d="M191.74,201.13c-.16,2,.31,5.79,2.81,6.54,4.32,1.29,8.69-8.35,19.64-9.44.87-.09,6.65-.6,11.22,2.18,3.56,2.17,4.66,5.29,5.61,8,1.86,5.32-.14,6.75,1.87,11.62,1.12,2.69,2.58,6.22,6.55,7.26,3.66,1,8.62-.39,10.28-2.9C251.61,221.53,248,219,245,212c-2-4.76-4.89-11.38-1.86-17.43,2.37-4.81,9.21-10.6,15.89-9.44,5.63,1,9.78,6.63,9.36,10.89-.18,1.81-1.08,2.33-.94,4.36.18,2.52,1.87,6.33,5.61,7.26,4.14,1,9.56-1.76,11.22-5.08,2.07-4.16-2.94-6.71-2.8-13.8,0-2.77.12-6.5,2.8-8.72,8.62-7.15,35.89,8.19,45.82.73,2.61-2,3-4.72,3.75-9.44.86-5.73-1.36-12.67-4.69-15.26-1.86-1.45-2.51-3.37-3.73-3.63-10.29-2.18-29,9.44-70.14,23.24,0,0-44.88,16-59.84,18.89C190.34,195.6,191.74,201.13,191.74,201.13Z"/><path d="M201.09,162.64a3.54,3.54,0,0,1,0-1.45c.43-.05-.52,10.3,4.75,14.52,10.19,8.3,36.59-13.08,87.89-21.06,6.73-1,16.27-2.23,20.58-8,6.38-8.55-1.36-23.74-7.48-24-2.74-.11-4.91,2.78-5.62,3.63C295.58,133,272,142.6,201.15,156.05"/><path d="M221.63,131.41c-6,3.41-11.85,7.47-15.89,13.8-2.57,4-7,11-3.74,14.53,4.19,4.55,17-.75,60.78-9.45,18.48-3.67,32-5.86,41.14-15.25,2.05-2.09,6.37-6.63,4.74-10.89-2.67-6.77-18.66-8.21-24.32-8.72C254.55,112.75,231.12,126.05,221.63,131.41Z"/><path d="M220.73,124.15c-.51,2.21,0,5.26,1.88,6.53,4.25,2.93,13.95-4.64,30.81-8.71,19.58-4.72,28.45.17,34.6-5.81,5.47-5.35,3.55-14.29,0-19.61-3.71-5.61-10.5-9.2-11.23-8.72s3.42,3,3.75,6.54c.59,6.53-11.31,13.4-21.51,16.7-14.58,4.72-29.63,3.42-35.56,8.72A9.4,9.4,0,0,0,220.73,124.15Z"/></g><path class="cls-34" d="M173.53,239.1c49.25,46.37,86.82,80.38,99.13,89.83,2.65,2,8,5.9,13.79,5.18,7.29-.9,13.25-8.21,13-11.67-.68-9.14-1.18-12.89-3.8-39.36-2-20.13-8.3-49.82-13.71-96.61"/><path class="cls-34" d="M283.41,185.2c1.32-.89,4.26-2.92,4.52-5.89.4-4.46-5.52-8.25-6.43-8.82-14-9-55.34,11.76-77.17,22.7,0,0-27.38,13.72-41.7,35.67-1.92,2.95-2,5.09-1.26,6.7,1.73,3.76,8.08,4.92,8.84,5.05,8.61,1.48,16.59-3.75,19.36-5.5C210.53,221.88,255.73,203.83,283.41,185.2Z"/><path class="cls-35" d="M187.68,229.08a177.2,177.2,0,0,1,53.15,5.7,153.18,153.18,0,0,1,51.82,24.62"/><path class="cls-35" d="M192.32,258.17a160.47,160.47,0,0,1,32.28-.08,153.2,153.2,0,0,1,70.74,25.45"/><path class="cls-35" d="M251.47,311.22a81.78,81.78,0,0,1,28.3,4.78,68.73,68.73,0,0,1,18.71,10.18"/><path class="cls-35" d="M225.66,288a115.28,115.28,0,0,1,36.91,4.22,98.2,98.2,0,0,1,35.68,18.46"/><path class="cls-35" d="M238.23,206a193.21,193.21,0,0,1,29.88,13.67,175.74,175.74,0,0,1,21.27,14.21"/><path class="cls-36" d="M261.71,191l23.06,13.78"/><path class="cls-35" d="M281.48,194a102.68,102.68,0,0,0-25.91,6.28A86.38,86.38,0,0,0,222.46,223c-11.66,12.43-19,27.35-21.15,43.09"/><path class="cls-35" d="M286.68,224.45a76.62,76.62,0,0,0-25,6.06c-12.87,5.66-19.59,13.45-26,21a87.31,87.31,0,0,0-17,31.24"/><path class="cls-35" d="M290.53,249.07a82.59,82.59,0,0,0-22.44,10.09c-10.07,6.59-15.4,13.63-19.71,19.5a83.82,83.82,0,0,0-10.83,19.66"/><path class="cls-35" d="M294.89,277.45A58.48,58.48,0,0,0,274,286.4c-15.31,10.75-17.45,25.27-17.86,29.12"/><path class="cls-35" d="M297.3,300.88A47.63,47.63,0,0,0,282.9,309a35.09,35.09,0,0,0-12,19.18"/><path class="cls-35" d="M175,239.12c4.11-3.85,10-9.14,17.53-15.09,9.76-7.73,19.27-15.25,31.59-21.6a146.52,146.52,0,0,1,46.23-14.31"/><path class="cls-37" d="M155.13,140.53c-.59-4.59,2.66-15.15,6.37-18.59,5.42-5,7.38-4.25,9.66-7.76s3.24-9.1,0-12.39c-2.87-2.9-7.27-2.44-7.33-3.65-.08-2,11.17-4.81,22.9-4,6.3.43,11.21.77,14.13,3.54,7.49,7.14-5.63,23.29-6.2,24-10.48,12.64-30.28,21.38-37.12,17.52C154.92,137.7,155.26,141.35,155.13,140.53Z"/><path class="cls-37" d="M155,221.9c-5.74-4-3.56-16.39-2.73-19.28,1.45-5.37,5.48-14,24.4-27.44,23.84-17,45.28-23.15,61.51-27.67,20.42-5.68,30.46-.06,31.93,1.55,1.74,1.92-5.15,1.12-6.47,3.44-8.6,15.07-30.7,23.73-51,37.07-20.5,13.51-39.67,32.2-52.34,31C159.46,220.51,157.15,223.41,155,221.9Z"/><path class="cls-38" d="M156.1,224.73c.6,2,2.53,5.56,5.2,5.71,4.62.26,5.08-10.14,15.13-13.74a19.72,19.72,0,0,1,11.56-.47c4.24,1.28,6.49,4.07,8.42,6.47,3.83,4.75,2.47,6.61,6.26,10.88,2.11,2.37,4.85,5.46,9,5.55,3.88.09,8.1-2.38,8.72-5.21.69-3.21-3.7-4.88-9.21-10.93-3.8-4.16-9.07-9.94-8.5-16.53.46-5.25,4.74-12.45,11.55-12.88,5.76-.36,11.86,4.19,13.14,8.44.52,1.8-.15,2.51.78,4.46,1.12,2.42,4.22,5.73,8.14,5.77,4.36.05,8.46-3.93,8.77-7.55.38-4.52-5.39-5.84-8-12.78-1-2.71-2.37-6.35-.67-9.13,5.48-9,37.43-.35,44.05-9.91,1.73-2.5,1.08-5.29,0-10-1.36-5.78-6.15-12-10.33-13.77-2.37-1-3.7-2.7-5-2.67-10.67.27-24.06,15.91-58.07,38.87,0,0-36.75,26-49.91,32.24C152.64,219.66,156.1,224.73,156.1,224.73Z"/><path class="cls-38" d="M150.24,185.1a3.79,3.79,0,0,1-.57-1.42c.39-.15,3.47,10.15,10.06,13.06,12.93,5.71,29.93-21.21,75.85-40.86,6-2.58,14.69-5.94,16.6-12.54,2.81-9.8-10.42-22.8-16.37-21.6-2.64.54-3.62,3.85-4,4.84-2.8,7.88-21.68,22.66-84.15,52.16"/><path class="cls-37" d="M157.87,149.94c-4.42,4.7-8.44,10-9.87,17.11-.92,4.49-2.5,12.29,2,15,5.76,3.47,16-4.66,54.43-23.26,16.25-7.86,28.3-13.12,33.44-24.38,1.19-2.51,3.56-7.93.28-11.69-5.16-6-21-3.66-26.58-2.85C182.11,124.16,164.84,142.53,157.87,149.94Z"/><path class="cls-38" d="M154.18,143.08c.37,2.28,2,5.12,4.31,5.93,5.19,1.86,11.54-7.75,26.13-15.63,16.89-9.13,27.26-6.43,30.82-13.67,3.17-6.47-2.14-14.72-7.55-19.08-5.71-4.6-13.56-6.52-14.07-5.89s4.39,2.09,6.09,5.5c3.08,6.21-5.64,15.66-14.13,21.24-12.1,8-27,10.19-30.59,16.71A8.42,8.42,0,0,0,154.18,143.08Z"/><path class="cls-39" d="M283.1,208.82c-.58,57.09.08,99.7,1.66,112.48.34,2.76,1.18,8.13,6.21,10.58,6.23,3.07,16.72,1,19.34-1.51,6.95-6.67,9.63-9.52,29.23-29.21,14.9-15,34.3-38.77,68.42-73.91"/><path class="cls-39" d="M410.08,227.11c1.74.06,5.61.13,8.23-1.79,3.93-2.9,2.55-8.51,2.37-9.37-3.27-13.3-51.42-19.88-76.84-23.35,0,0-31.88-4.36-60.61,3.61-3.85,1.07-5.67,2.5-6.41,4-1.76,3.48,2.1,7.5,2.57,8,5.3,5.38,15.6,5.81,19.1,6C325.1,215.63,374,226,410.08,227.11Z"/><path class="cls-40" d="M302,209a129.26,129.26,0,0,1,35.55,30.88,92.53,92.53,0,0,1,19.1,43.31"/><path class="cls-40" d="M281.76,231.56a129.6,129.6,0,0,1,24.45,16.29c17.15,14.58,28.59,33.24,32.76,53.48"/><path class="cls-40" d="M283.19,298.29a57,57,0,0,1,17.52,17.64,41.36,41.36,0,0,1,5.83,16.53"/><path class="cls-40" d="M282.59,269.15A83.81,83.81,0,0,1,307,290.77,59,59,0,0,1,319,321.64"/><path class="cls-40" d="M359,218.64a116.71,116.71,0,0,1,11.43,24.61A103.86,103.86,0,0,1,375,263.88"/><path class="cls-40" d="M389,220.14q3.11,10.61,6.2,21.23"/><path class="cls-40" d="M401.5,232.19a104.17,104.17,0,0,0-24.7-8.76c-19.33-4.26-35.09-2.19-43.57-1a121.87,121.87,0,0,0-51.15,19.15"/><path class="cls-40" d="M380.56,256a77.63,77.63,0,0,0-23.81-8.49c-14.34-2.6-25.77-.6-36.74,1.41a136.86,136.86,0,0,0-38.35,13"/><path class="cls-40" d="M363.4,275a98.62,98.62,0,0,0-25.19-4.38c-13-.53-22.73,1.66-30.81,3.54a130.73,130.73,0,0,0-24.23,8.15"/><path class="cls-40" d="M343.56,296.88a68.83,68.83,0,0,0-23.13-4.4,63.7,63.7,0,0,0-37.24,11.14"/><path class="cls-40" d="M326.26,314.34a60.86,60.86,0,0,0-17.51-1.65A54.13,54.13,0,0,0,284,319.9"/><path class="cls-40" d="M284.2,209.59c6.25-.59,15-1.27,25.55-1.59,13.68-.41,27-.81,41.49,1a158.18,158.18,0,0,1,46.6,13.5"/><path class="cls-41" d="M349.64,131.17c3.28-3.48,14.35-9.16,20-9.66,8.19-.72,9,.8,13.63-.49,4.74-1.33,9.87-4.66,10.11-8.59.2-3.45-3.56-5.36-2.56-6.23,1.52-1.4,12.36,2.31,20.56,8.82,4.41,3.49,7.84,6.21,7.79,9.61-.16,8.74-23.23,13.29-24.23,13.48-18.23,3.45-40.3-.52-42.35-6.66C351.72,129.1,349,131.8,349.64,131.17Z"/><path class="cls-41" d="M283.11,187.51c-1.07-5.68,10.67-13.14,13.67-14.75,5.47-3,15.51-6.9,40.8-6.66,31.86.31,53.11,6.88,69.05,12,20.08,6.41,23.08,15.39,22.88,17.25-.24,2.21-4.8-1.83-7.69-.89-18.79,6.09-42.57.9-68.75-.11-26.51-1-56.23,2.23-64.86-5C287.63,188.81,283.51,189.65,283.11,187.51Z"/><path class="cls-42" d="M281.65,190c-1.18,1.67-2.63,5.14-.73,6.6,3.27,2.51,12.11-4.46,22.64-1.87.83.21,6.35,1.64,9.12,5.53,2.16,3,1.59,6.11,1.09,8.76-1,5.23-3.55,5.83-4.15,10.71-.33,2.7-.78,6.23,2.32,8.43,2.84,2,8.05,2.45,10.83.8,3.15-1.88,1.18-5.26,2-12.25.52-4.8,1.26-11.48,7.11-15.76,4.62-3.41,13.72-6.23,19.23-3.07,4.64,2.67,5.57,8.93,3,12.49-1.06,1.52-2.14,1.68-3,3.49-1.12,2.25-1.48,6.11,1.46,8.13,3.24,2.24,9.58,1.56,12.77-.79,4-2.94.69-6.78,4.39-12.91,1.43-2.39,3.38-5.6,6.93-6.67,11.45-3.43,28.57,18.72,41.38,15.45,3.34-.86,5.12-3.13,8.15-7,3.68-4.69,5.15-11.45,3.42-14.77-1-1.87-.61-3.75-1.58-4.37-8.3-5.22-31.16-1.16-75.58-2.46,0,0-48.92-.62-64-2.93C283.16,184.77,281.65,190,281.65,190Z"/><path class="cls-42" d="M309.53,159.59c.28-.64.62-1.29.73-1.27.42.1-5.66,8.79-3.05,14.15,5.12,10.51,39.91.45,90.66,10.1,6.65,1.27,15.95,3.32,22.76-.3,10.11-5.36,10.67-21.08,5.24-23.25-2.44-1-5.87.83-6.93,1.34-8.54,4-34.87,4.73-106.13-6.46"/><path class="cls-41" d="M344,139.08c-7.18,1-14.54,2.67-21.42,6.86-4.35,2.66-11.85,7.26-10.66,11.42,1.53,5.32,15.88,4.86,60.11,11.44,18.68,2.78,32.08,5.24,45.15,0,2.91-1.15,9.13-3.71,9.74-8,1-6.75-12.87-13.17-17.78-15.44C383.31,133.49,355.28,137.47,344,139.08Z"/><path class="cls-42" d="M346.78,132.46c-1.58,1.77-2.63,4.59-1.59,6.29,2.37,3.92,15,.48,32.5,2.4,20.21,2.23,25.85,9.35,34.43,6.14,7.68-2.88,10.39-11.29,9.86-17.06-.56-6.07-4.93-11.38-5.83-11.2s1.62,3.67.12,6.89c-2.74,5.87-17,8-28,7.57-15.64-.61-28.7-6.61-36.74-3.91A12,12,0,0,0,346.78,132.46Z"/><path class="cls-43" d="M217.78,217.65c29.55,54.67,52.6,95.1,60.78,106.76,1.77,2.52,5.4,7.34,11.22,8,7.3.82,15.78-4.69,16.83-8,2.81-8.72,3.75-12.35,11.23-37.77,5.72-19.32,10.82-48.64,23.38-93.64"/><path class="cls-43" d="M343.09,192.09c1.62-.53,5.18-1.77,6.55-4.49,2.06-4.1-2.16-9-2.81-9.74-10-11.57-57.31-1.55-82.29,3.75,0,0-31.34,6.64-53.34,24-2.95,2.32-3.85,4.3-3.74,6,.24,3.91,5.92,6.44,6.54,6.74,7.68,3.34,17.28.26,20.58-.75C259.62,209.92,309.62,203.26,343.09,192.09Z"/><path class="cls-36" d="M235.09,211.47a162.79,162.79,0,0,1,48.59,17.43,124.74,124.74,0,0,1,40.21,34.87"/><path class="cls-36" d="M228.53,239.8a155,155,0,0,1,30.82,7.26c23.53,8.27,43.7,22.15,58,39.94"/><path class="cls-36" d="M265,303a73.29,73.29,0,0,1,25.26,10.89,55.45,55.45,0,0,1,14,13.8"/><path class="cls-36" d="M249.11,275.39a106,106,0,0,1,33.66,12.34,79.49,79.49,0,0,1,27.13,25.42"/><path class="cls-36" d="M292.12,201.3a157.18,157.18,0,0,1,23.38,19.61,137,137,0,0,1,15,18.16"/><path class="cls-36" d="M320.17,192.59,337,210.75"/><path class="cls-36" d="M338,199.85a110.93,110.93,0,0,0-27.13,0,104.54,104.54,0,0,0-40.2,13.8c-15.73,8.88-28.33,21.18-36.47,35.59"/><path class="cls-36" d="M331.4,229.63a82.18,82.18,0,0,0-26.19,0c-14.43,2.38-23.78,8.15-32.72,13.8a106.47,106.47,0,0,0-28.05,25.42"/><path class="cls-36" d="M325.79,253.6A94.2,94.2,0,0,0,300.55,258c-12.12,3.88-19.83,9.28-26.2,13.79a103.26,103.26,0,0,0-17.78,16"/><path class="cls-36" d="M319.25,281.2a66.54,66.54,0,0,0-23.39,3.63c-12.47,4.49-22.48,12.79-28,23.24"/><path class="cls-36" d="M312.69,303.71a56.35,56.35,0,0,0-16.83,4.36,43,43,0,0,0-18.7,15.25"/><path class="cls-36" d="M219.18,218c5.38-2.68,13-6.3,22.45-10.17,12.24-5,24.16-9.92,38.34-13.07a161.29,161.29,0,0,1,49.52-2.9"/><path class="cls-44" d="M237.42,121.05c1.19-4.43,8.3-13.61,13-16,7.11-3.47,8.66-2.31,12.16-5.08s6.54-7.8,4.68-11.62c-1.65-3.37-6-3.93-5.62-5.09.65-1.85,12.48-2,23.39,1.46,5.85,1.83,10.41,3.27,12.14,6.53,4.47,8.39-14.15,20.55-14.95,21.06-14.79,9.48-37,13.17-42.08,8C238.29,118.35,237.21,121.85,237.42,121.05Z"/><path class="cls-44" d="M206.56,197.31c-4-5.06,2.84-16.16,4.68-18.69,3.4-4.71,10.49-11.85,33.66-20.19,29.18-10.49,52-11.41,69.2-12,21.66-.68,29.12,6.87,29.92,8.72,1,2.19-5.33-.13-7.48,1.75-13.89,12.17-38.28,15.27-62.65,23.17-24.69,8-50,21.18-61.71,17.19C211.36,197,208.05,199.21,206.56,197.31Z"/><path class="cls-45" d="M206.56,200.22c-.17,2,.31,5.78,2.81,6.53,4.31,1.29,8.68-8.35,19.64-9.44.86-.09,6.64-.6,11.22,2.18,3.56,2.17,4.66,5.29,5.61,8,1.86,5.32-.15,6.76,1.87,11.62,1.11,2.7,2.57,6.22,6.54,7.26,3.66,1,8.63-.39,10.29-2.9,1.88-2.86-1.7-5.43-4.68-12.35-2-4.76-4.9-11.38-1.86-17.43,2.37-4.81,9.21-10.6,15.89-9.44,5.63,1,9.78,6.63,9.35,10.89-.18,1.81-1.08,2.33-.94,4.36.18,2.52,1.88,6.33,5.61,7.26,4.15,1,9.57-1.76,11.22-5.08,2.08-4.16-2.93-6.71-2.79-13.8,0-2.77.12-6.49,2.79-8.72,8.62-7.15,35.89,8.19,45.82.73,2.61-1.95,3-4.72,3.75-9.44.87-5.73-1.35-12.67-4.68-15.25-1.86-1.46-2.51-3.38-3.73-3.64-10.29-2.17-29,9.45-70.15,23.25,0,0-44.88,16-59.84,18.88C205.16,194.68,206.56,200.22,206.56,200.22Z"/><path class="cls-45" d="M215.91,161.72a3.23,3.23,0,0,1,0-1.45c.43-.05-.52,10.3,4.74,14.53,10.19,8.29,36.6-13.09,87.9-21.07,6.73-1,16.27-2.23,20.57-8,6.39-8.54-1.35-23.74-7.48-24-2.74-.11-4.9,2.79-5.62,3.63-5.63,6.75-29.26,16.32-100,29.78"/><path class="cls-44" d="M236.48,130.49c-6,3.41-11.85,7.47-15.89,13.8-2.57,4-7,11-3.74,14.53,4.19,4.55,17-.74,60.79-9.44,18.47-3.68,32-5.87,41.13-15.26,2.05-2.09,6.37-6.63,4.74-10.89-2.67-6.77-18.66-8.21-24.32-8.72C269.36,111.83,245.93,125.13,236.48,130.49Z"/><path class="cls-45" d="M235.55,123.23c-.51,2.21,0,5.26,1.87,6.54,4.26,2.92,14-4.65,30.82-8.72,19.58-4.72,28.44.17,34.59-5.81,5.48-5.35,3.56-14.29,0-19.61-3.71-5.61-10.5-9.19-11.22-8.72s3.41,3,3.74,6.54c.6,6.53-11.3,13.4-21.51,16.71-14.58,4.71-29.63,3.41-35.55,8.71A9.32,9.32,0,0,0,235.55,123.23Z"/></g><g id="Capa_6" data-name="Capa 6"><path d="M404.88,328c-6.29,9-20.36,32-12.84,57.38,1.84,6.21,4.5,14.71,13.48,20.57,14.22,9.28,36.1,6.62,50.07-1.08a43.65,43.65,0,0,0,21.2-27.07c2.79-9.78,1.1-18.16,0-23.27a60.24,60.24,0,0,0-7.71-18.95"/><path d="M410,334c-3.25-2.32-12-8.79-14.77-20-.26-1.1-3.42-15.31,7.11-27.07,13.74-15.38,41.91-16.48,59.72-8.66,3.25,1.43,17.26,7.6,19.89,18.41,0,0,.83,3.39,0,16.78h0s2.85,4.1,3.22,7c.58,4.68-4.84,8.8-9.63,12.45A48.61,48.61,0,0,1,464,339.4a59.06,59.06,0,0,1-19.27,3.79C440,343.31,423.82,343.82,410,334Z"/><path d="M470.36,335.58c.69-.26,1.34-.19,10.92,4.87,15.05,8,16.33,9.32,17.34,10.83,1.8,2.72,2.14,5.16,5.13,6.5a57.47,57.47,0,0,1,5.78,2.7c1.28.69,2,1.16,1.92,1.63-.16,1-4.06.86-4.49,2.16-.34,1.07,2,1.92,1.92,2.71-.32,2.14-19.37,6.74-31.45-1.08C464.19,357.33,465.09,337.6,470.36,335.58Z"/><path d="M452.38,405.41a12.12,12.12,0,0,1,5.15,6c1.18,3.51-.8,5.28.64,7.57s5,2.78,12.19,3.79c3.76.53,14.22,2,15.41-.54.5-1-.64-2.31,0-2.71.83-.5,2.7,1.56,4.5,1.09a2.56,2.56,0,0,0,1.92-2.71c-.71-2.36-8.45-1.67-9-3.79-.26-1,1.37-1.64,2.56-3.25,2.13-2.86,1.07-6.39,0-9.74-2.37-7.44-7.79-13.27-10.92-16.24"/><path d="M373.42,347a32.93,32.93,0,0,0-12.84-6.5,35.63,35.63,0,0,0-19.9.55,28.31,28.31,0,0,0-18,18.4c-3,10.81,1.81,24.66,12.84,28.69,5,1.82,15.53,3.22,20.54,0,.58-.37,2.2-1.52,3.22-1.08,1.24.53.27,2.84.64,4.87,1.31,7.11,19,9.35,29.53,13a9.41,9.41,0,0,0,3.21.54,10,10,0,0,0,5.14-1.62"/><path d="M396.54,323.13a48.31,48.31,0,0,0-14.77,16.78c-12.53,24.52,6.2,49.23,8.29,52"/><path d="M397.82,320.43a12.08,12.08,0,0,0-1.28,3.78,11.48,11.48,0,0,0,0,3.79c.5,3.88-3.24,8.45-4.5,10.29-5.65,8.24,3,13.65-1.29,27.06-2,6.18-4.51,7.21-5.13,13.54-.21,2.17-1,10.38,3.85,12.45,2.43,1,6.13.45,7.11-1.09,1.19-1.91-2.79-3.86-3.21-8.12-.32-3.22,1.68-4.84,3.21-8.12,2.15-4.62.6-6.57.64-14.61,0-6.64.28-18.2,8.3-27.61a33.92,33.92,0,0,1,3.21-3.25"/><path d="M401.67,335a15.51,15.51,0,0,1,4.49,2.71,16,16,0,0,1,5.14,8.12c1,3.14,2.18,7,0,10.28-1.94,2.92-5.71,4.06-9,4.87-15.41,3.82-32.19,5.4-32.74,3.25-.25-1,3-2,2.56-3.25-.51-1.64-6.41-2.16-6.41-2.16h0s-4-1.33-4.5-2.71c-.72-2,5.53-5.21,9-7C390,338.65,395.44,332.88,401.67,335Z"/><path d="M386.26,416.78c2.37-8.12-.57-9.23,1.28-16.78,1-4,2.57-10.44,9-14.08,1.06-.6,5.92-3.36,11.55-2.16s8.3,5.49,9.62,7.58c.49.76,5.17,8.43,1.94,16.78-2,5.16-6,7.94-4.5,11.91.75,2,2.47,3.23,1.92,3.79-.87.9-5.15-2.68-9.62-1.63-3.27.77-3.74,3.32-6.42,3.25-2.27-.06-2.5-1.91-5.13-2.71-4.75-1.41-9.07,2.86-10.92,1.63C383.6,423.45,385.19,420.57,386.26,416.78Z"/><path class="cls-46" d="M418.47,329.57c-6.29,9-20.36,31.95-12.83,57.37,1.83,6.22,4.49,14.71,13.47,20.57,14.23,9.29,36.1,6.62,50.09-1.08a43.8,43.8,0,0,0,21.18-27.06c2.8-9.78,1.1-18.16,0-23.28a60,60,0,0,0-7.7-18.95"/><path class="cls-47" d="M423.62,335.52c-3.25-2.32-12.06-8.79-14.77-20-.27-1.1-3.44-15.31,7.11-27.06,13.74-15.39,41.91-16.49,59.7-8.66,3.26,1.43,17.27,7.59,19.91,18.4,0,0,.82,3.4,0,16.78h0s2.85,4.1,3.2,7c.58,4.68-4.83,8.81-9.62,12.45a48.67,48.67,0,0,1-11.56,6.49,59,59,0,0,1-19.26,3.79C453.61,344.87,437.41,345.38,423.62,335.52Z"/><path class="cls-47" d="M484,337.14c.67-.26,1.34-.18,10.9,4.88,15.05,8,16.35,9.31,17.34,10.82,1.8,2.73,2.15,5.17,5.13,6.5a58.69,58.69,0,0,1,5.79,2.7c1.28.7,2,1.16,1.92,1.63-.17,1-4.07.86-4.49,2.16-.35,1.07,2.05,1.92,1.93,2.71-.32,2.14-19.38,6.74-31.47-1.08C477.78,358.89,478.68,339.16,484,337.14Z"/><path class="cls-47" d="M466,407a12.22,12.22,0,0,1,5.13,6c1.19,3.52-.79,5.29.64,7.58s5,2.78,12.21,3.78c3.76.53,14.22,2,15.41-.54.48-1-.66-2.31,0-2.7s2.69,1.55,4.49,1.08a2.58,2.58,0,0,0,1.92-2.71c-.71-2.36-8.45-1.66-9-3.79-.26-1,1.38-1.64,2.58-3.24,2.12-2.87,1.05-6.4,0-9.75-2.37-7.44-7.8-13.27-10.92-16.24"/><path class="cls-47" d="M387,348.51A32.75,32.75,0,0,0,374.18,342a35.58,35.58,0,0,0-19.91.54,28.32,28.32,0,0,0-18,18.4c-3,10.82,1.8,24.66,12.84,28.69,5,1.82,15.52,3.22,20.54,0,.58-.37,2.19-1.52,3.21-1.08,1.24.53.27,2.84.64,4.87,1.32,7.11,19,9.35,29.54,13a9.1,9.1,0,0,0,3.21.54,9.83,9.83,0,0,0,5.13-1.62"/><path class="cls-48" d="M410.08,324.69a48.41,48.41,0,0,0-14.77,16.78c-12.52,24.52,6.2,49.24,8.3,52"/><path class="cls-49" d="M411.41,322a12,12,0,0,0-1.28,7.58c.51,3.88-3.24,8.45-4.49,10.28-5.66,8.24,3,13.65-1.29,27.07-2,6.17-4.52,7.21-5.14,13.53-.21,2.17-1,10.38,3.86,12.45,2.44,1,6.12.45,7.11-1.08,1.18-1.91-2.8-3.86-3.21-8.12-.31-3.22,1.68-4.85,3.21-8.12,2.15-4.62.59-6.58.64-14.62,0-6.64.27-18.19,8.29-27.6a32.9,32.9,0,0,1,3.22-3.25"/><path class="cls-47" d="M415.26,336.6a16.13,16.13,0,0,1,9.64,10.83c1,3.14,2.18,7,0,10.28-1.95,2.92-5.72,4.06-9,4.88-15.4,3.81-32.2,5.39-32.74,3.24-.25-1,3-1.95,2.57-3.24-.52-1.65-6.43-2.17-6.43-2.17h0s-4-1.32-4.49-2.71c-.72-2,5.54-5.21,9-7C403.63,340.21,409,334.44,415.26,336.6Z"/><path class="cls-47" d="M399.85,418.34c2.37-8.12-.57-9.23,1.3-16.78,1-4,2.56-10.44,9-14.07,1.07-.61,5.93-3.36,11.56-2.17s8.29,5.5,9.63,7.58c.48.76,5.16,8.43,1.92,16.78-2,5.16-6,7.95-4.49,11.91.75,2,2.46,3.23,1.92,3.79-.88.9-5.16-2.68-9.62-1.63-3.28.77-3.75,3.33-6.43,3.25-2.26-.06-2.49-1.91-5.13-2.71-4.68-1.41-9.07,2.86-10.92,1.63C397.21,425,398.75,422.13,399.85,418.34Z"/></g><g id="Capa_8" data-name="Capa 8"><path d="M112.44,312.16a34.53,34.53,0,0,1,16.06-14.83c10.67-4.75,24.37-4.71,31.12-4.68a135,135,0,0,0,17.07-.78c8.3-.95,10.6-2.08,12-3.13,4.65-3.39,4.15-8.58,6-8.58,2.15,0,2.81,6.79,6,7,1.44.1,2-1.19,6-3.12,2.24-1.06,4.25-2,5-1.56,1.73,1.06-4.35,8.67-3,9.37.51.26,1.49-.82,4-1.57,2.85-.84,6.49-.89,7,0s-2.37,2.3-4,3.91c-5.17,5.16,1.18,14.75,9,30.44,4.74,9.57,7.17,14.36,8,18,1.49,6.27,4.57,19.15-5,28.88a32.13,32.13,0,0,1-11,7"/><path d="M58.23,327.77c-5.13,10.62-7.11,10.2-12,21.08s-7.43,16.55-4,21.86c2.9,4.51,9.61,8.08,12,9.37,5.93,3.14,11.27,4.35,12.06,7.8.35,1.58-.47,2.61-1,3.9-4.46,10.53,15.5,21.92,11,32-.41.94-1.77,3.52-1,3.9s2.59-2.18,6-2.34a46.79,46.79,0,0,1,5,.78h0s-.09,2.73,1,3.12,2.48-1.88,6-3.12c2.3-.8,3.56-.48,5-.78,7.36-1.47,5.3-14.86,13-17.17a11.51,11.51,0,0,1,9,1.56c1.92,1.38,1.19,2.42,3,4.68,3.29,4.08,7.86,3.38,9,6.25,1.31,3.24-3.49,6.71-2,7.8.95.7,2.83-.75,5,0,2.51.86,2,3.45,4,3.91,2.38.53,4.15-2.73,7-2.35,2.55.35,3,3.18,5,3.13,1.45,0,1.94-1.49,4-3.13,2.55-2,4.67-2.08,7-3.12,7.43-3.28,5-10.87,11-12.49,2.76-.74,6.47,0,8,1.56,1.41,1.41.29,2.7,2,4.69s3.49,1.68,4,3.12c.75,2.08-2.47,4.35-2,4.68s4.48-3,6-2.34c1.25.56-.25,3.3,1,3.9,1.81.89,6.67-4.07,9-3.12,1.56.63.5,3.26,2,3.9,2.24,1,7.59-3.52,8-3.9a38.07,38.07,0,0,0,12-20.29,40.76,40.76,0,0,0-13-35.91c-1.18-1.12-6.49-4.39-17.06-10.93-21.18-13.11-27.26-15.65-30.12-22.64-.39-1,0-.13-3-12.49-2.37-9.44-3.13-12.1-6-13.27-2.44-1-5.93-.13-13,1.56-7.66,1.84-9,3.13-13,3.12-4.67,0-6.41-1.69-11-3.12-11.53-3.56-16.33,2.11-30.12,0-11.09-1.69-12.93-6.13-18.06-4.68C63.88,309.78,64.36,315.11,58.23,327.77Z"/><path d="M82.32,329.34c-.65,3.23,4.88,7.49,10,7.8,3.56.21,6.75-1.94,13-6.24,7.11-4.89,10.74-7.34,10-8.59C113.54,318.9,83.71,322.42,82.32,329.34Z"/><path d="M96.38,345c3.24,1.09,3.26,11.77-2,13.27-3.74,1.06-10.16-2.46-10-5.47.07-1.48,1.72-2.55,5-4.68S94.94,344.46,96.38,345Z"/><polygon points="72.29 338.7 74.29 344.95 76.3 343.39 77.3 337.14 72.29 338.7"/><polygon points="173.67 354.31 183.71 372.27 200.77 372.27 199.78 363.68 182.71 351.97 173.67 354.31"/><path d="M204.79,388.66l2,17.18-6,3.16s-12-7-12-10.15S204.79,388.66,204.79,388.66Z"/><polygon points="153.59 398.81 157.61 402.71 161.63 401.15 159.62 394.13 153.59 397.25 153.59 398.81"/><path d="M72.3,414.42h8l6-7-2-10.15s-12,5.44-14.06,8.57"/><path class="cls-50" d="M137.48,409s9.05-7.81,13-7-4,15.61-4,15.61l-8,3.13-5-3.13"/><path class="cls-51" d="M121.63,315a34.61,34.61,0,0,1,16.06-14.84c10.66-4.75,24.36-4.7,31.12-4.68a131.48,131.48,0,0,0,17.07-.78c8.29-.95,10.59-2.07,12-3.12,4.64-3.39,4.15-8.58,6-8.59,2.14,0,2.81,6.8,6,7,1.43.1,2-1.2,6-3.13,2.23-1.06,4.26-2,5-1.56,1.73,1.06-4.35,8.67-3,9.37.51.27,1.49-.82,4-1.56,2.86-.84,6.5-.9,7,0s-2.37,2.29-4,3.9c-5.16,5.17,1.19,14.76,9,30.44,4.75,9.58,7.18,14.36,8,18,1.49,6.27,4.58,19.15-5,28.88a32.28,32.28,0,0,1-11,7"/><path class="cls-52" d="M67.41,330.62c-5.13,10.62-7.11,10.19-12,21.07s-7.43,16.55-4,21.86c2.9,4.52,9.62,8.08,12,9.37,5.92,3.15,11.26,4.35,12,7.8.36,1.58-.46,2.62-1,3.91-4.45,10.52,15.52,21.91,11,32-.42.94-1.78,3.52-1,3.91s2.6-2.19,6-2.35a47,47,0,0,1,5,.78h0s-.1,2.74,1,3.13,2.46-1.88,6-3.13c2.3-.8,3.55-.48,5-.78,7.36-1.47,5.3-14.86,13-17.17a11.58,11.58,0,0,1,9,1.56c1.91,1.38,1.19,2.42,3,4.69,3.31,4.07,7.87,3.37,9,6.24,1.32,3.24-3.48,6.72-2,7.81.93.69,2.82-.75,5,0,2.51.86,2,3.44,4,3.9,2.37.54,4.15-2.73,7-2.34,2.55.34,3,3.17,5,3.12,1.46,0,2-1.48,4-3.12,2.55-2,4.74-2.09,7-3.12,7.43-3.28,5-10.88,11-12.49,2.75-.74,6.46,0,8,1.56,1.41,1.41.29,2.69,2,4.68s3.56,1.68,4,3.12c.76,2.09-2.48,4.35-2,4.69s4.48-3,6-2.35c1.24.56-.24,3.3,1,3.91,1.82.88,6.68-4.08,9-3.12,1.56.63.49,3.25,2,3.9,2.24,1,7.58-3.53,8-3.9a38.17,38.17,0,0,0,12-20.3,40.8,40.8,0,0,0-13-35.91c-1.19-1.12-6.5-4.39-17.06-10.93C181.75,349.51,175.68,347,172.83,340c-.41-1,0-.13-3-12.49-2.37-9.43-3.12-12.1-6-13.27-2.44-1-5.92-.13-13,1.57-7.66,1.83-9,3.12-13,3.12-4.67,0-6.41-1.69-11-3.12-11.55-3.57-16.35,2.1-30.12,0-11.11-1.7-12.94-6.14-18.08-4.69C73.07,312.62,73.54,318,67.41,330.62Z"/><path class="cls-53" d="M91.51,332.18c-.64,3.23,4.87,7.5,10,7.8,3.55.22,6.74-1.93,13-6.24,7.11-4.89,10.73-7.34,10-8.59C122.73,321.74,92.9,325.26,91.51,332.18Z"/><path class="cls-53" d="M105.57,347.79c3.23,1.09,3.27,11.77-2,13.27-3.72,1.06-10.16-2.45-10-5.46,0-1.49,1.71-2.55,5-4.69S104.12,347.31,105.57,347.79Z"/><polygon class="cls-53" points="81.47 341.55 83.49 347.79 85.49 346.23 86.5 339.99 81.47 341.55"/><polygon class="cls-53" points="182.87 357.16 192.89 375.11 209.96 375.11 208.96 366.53 191.9 354.82 182.87 357.16"/><path class="cls-53" d="M214,391.51l2,17.17-6,3.12s-12-7-12-10.15S214,391.51,214,391.51Z"/><polygon class="cls-53" points="162.79 401.65 166.79 405.56 170.81 404 168.81 396.97 162.79 400.09 162.79 401.65"/><path class="cls-53" d="M81.47,417.27h8l6-7-2-10.15s-12,5.47-14,8.59"/><path class="cls-54" d="M146.72,411.8s9-7.8,13-7-4,15.61-4,15.61l-8,3.12-5-3.12"/></g><g id="Capa_7" data-name="Capa 7"><path d="M250.54,337.6c-.31-1.69-4.44-1.39-13-4-16.35-5-22.52-12.45-23.7-14a11.46,11.46,0,0,1-2.37-4c-1.6-5.25,2.8-8.26,4.74-15,1.19-4.11-.12-4.15,0-14,.07-6.66.13-11.21,1.19-15,3.39-12.24,18.8-22.28,34.37-25a49.11,49.11,0,0,1,22.52,1c11.72,3.48,17.94,10.69,22.51,16,8.75,10.16,21.05,31.14,13,46-3,5.58-5.17,11.47-8.29,17-1.94,3.42-3.82,6.43-2.38,9s5.79,3.26,9.49,4c20.3,4.06,23.42,13.89,35.55,12,5.93-.91,10.89-4.12,11.85-3s-3.55,4.31-2.37,6c1.36,2,9.07-.06,9.49,1s-6.23,2.95-5.93,5c.24,1.68,4.91,2.31,4.74,3s-3.55-.09-7.11,1a14.12,14.12,0,0,0-5.93,4c-7.53,6.9-30-.61-32,3-.8,1.48,2.37,3.89,4.74,6,16.74,14.68,12.18,27.34,24.89,33,7.11,3.16,14.58,1.92,20.15,1a45.19,45.19,0,0,0,28.45-17c6.79-9.43,6.4-19.12,8.29-19,1.51.1,2.21,6.23,2.37,10,.23,5.5.64,15.29-5.92,26-2.11,3.44-11.49,18.71-28.45,22-6.94,1.35-14.53.57-17.78,5a7.67,7.67,0,0,0-1.18,6c1.63,7,13.51,10.14,13,11s-8.62-2.24-9.49-1,5.48,4.95,4.75,6c-1.07,1.52-15.41-4.64-16.6-3-.72,1,4.28,3.58,3.56,5-1.19,2.37-18.28,1.34-22.52-6-1.43-2.47-.37-3.86-1.19-7-1.5-5.72-7.26-11.5-14.22-13-3.55-.77-3.68.45-10.67,0-6.53-.41-6.89-1.5-13-2a58.47,58.47,0,0,0-15.41,1c-5.57.92-9.66,1.64-10.67,4-.81,1.9,1.09,3.16,0,5-.78,1.32-2.44,1.82-7.11,3s-7.11,1.81-8.29,2c-12.3,2.1-21.5,7.34-22.52,6-.77-1,4.17-4.35,3.55-5-.89-.92-11.85,5-11.85,5h0s4.95-6.81,3.56-8-10.21,4.52-10.67,4,4.53-6.51,13-10c2.16-.89,4.61-1.62,4.74-3,.14-1.57-2.92-2.29-4.74-4-5.37-5,.87-17.54,5.92-24,0,0,6.39-8.19,15.41-12l2.37-1s-1.53,1.28-2.37,1c-2.83-.92.19-19.42,2.37-26,.2-.61.84-2.47,0-3s-2.6.52-3.56,1c-2.54,1.26-6.87,1.19-15.4,1-10.29-.23-10.87-.88-14.23,0-3.73,1-6.37,2.68-7.11,2s2.85-3.19,2.37-6c-.78-4.62-12.28-6.56-11.85-8,.33-1.13,7.54-.12,8.3-2,.44-1.11-1.6-2.66-1.19-3s1.88,1.24,3.56,1c2.1-.29,3.07-3.16,3.55-3s-.47,1.42,0,2c1.31,1.65,12.18-2.82,24.89-8C247,340.81,250.84,339.29,250.54,337.6Z"/><path d="M309.8,400.6c.82-2.6,1.6-7.34-8.29-25-14.05-25-23.09-28.88-26.08-30-3.56-1.33-6.7-2.5-10.67-2-14.69,1.86-22.08,24.09-23.7,37-1,7.83-2.5,19.88,5.93,32,10.58,15.24,29.31,19.68,39.11,22,9.48,2.25,22.52,3.62,23.7,1,.51-1.1-1.48-2-3.55-5-4.9-7.07-3-15.24-2.37-18C305.39,406,308.21,405.59,309.8,400.6Z"/><path d="M352.47,433.6a3.16,3.16,0,0,0,0,4c3.37,3.26,21.11-2.55,33.18-12,13.91-10.88,18.09-24.86,17.78-25a57.31,57.31,0,0,1-11.85,15,78.15,78.15,0,0,1-16.59,11c-5.67,3-8.5,4.47-11.85,5C358.11,432.4,354.1,431.51,352.47,433.6Z"/><path d="M402.25,381.6c-3.34-.45-9.35-1.27-11.85-5-1.72-2.56-.26-4.22-2.37-7-2.45-3.19-5.66-2.67-7.12-5-1.93-3.07,2.11-6.47,4.74-12,5.37-11.3.68-22.78,2.38-23,1-.13,2.16,4.17,3.55,4s1.84-4.52,2-6.1c.32-2.88.08-4.87.37-4.9.51-.05,1.55,6,2.37,6s.64-5,1.19-5c.73,0,1.37,9,2.37,9,1.61,0,3.36-24,4.74-24,.72,0,.67,6.84,2.37,7,1.36.14,2.86-4.17,3.55-4s-1,6.74,0,7,2.86-4.18,3.56-4c1.07.29-5.42,10.25-1.19,18,3.29,6,10.67,6.39,10.67,11,0,2.68-2.51,3.24-4.74,9-1.18,3.09-2,6.75-1.18,7,1.25.42,6.35-8.3,7.11-8s-2.68,6.17-1.19,7c.94.53,3.11-1.34,3.56-1,1,.78-10.73,9.48-8.3,16,.82,2.22,2.67,2.55,2.37,4C420.54,380.86,410.45,382.72,402.25,381.6Z"/><path class="cls-55" d="M261.93,339c-.31-1.7-4.44-1.39-13-4-16.35-5-22.52-12.46-23.7-14a11.87,11.87,0,0,1-2.37-4c-1.59-5.26,2.8-8.26,4.74-15,1.19-4.12-.12-4.15,0-14,.08-6.67.13-11.21,1.19-15,3.4-12.24,18.8-22.28,34.37-25a49,49,0,0,1,22.52,1c11.72,3.47,17.94,10.69,22.51,16,8.76,10.16,21.05,31.14,13,46-3,5.58-5.17,11.47-8.3,17-1.93,3.41-3.81,6.42-2.37,9s5.79,3.26,9.49,4c20.31,4.06,23.42,13.89,35.55,12,5.93-.92,10.89-4.12,11.85-3s-3.55,4.31-2.37,6c1.37,2,9.07-.07,9.49,1s-6.23,2.94-5.93,5c.24,1.68,4.91,2.31,4.74,3s-3.56-.09-7.11,1a14.12,14.12,0,0,0-5.93,4c-7.53,6.89-30-.61-32,3-.8,1.48,2.37,3.89,4.74,6,16.74,14.68,12.18,27.34,24.89,33,7.11,3.16,14.58,1.92,20.15,1a45.16,45.16,0,0,0,28.45-17c6.79-9.44,6.4-19.12,8.29-19,1.51.1,2.22,6.22,2.37,10,.24,5.5.64,15.29-5.92,26-2.11,3.44-11.48,18.71-28.45,22-6.93,1.35-14.53.57-17.78,5a7.67,7.67,0,0,0-1.18,6c1.63,7,13.52,10.13,13,11s-8.62-2.24-9.49-1,5.48,4.95,4.75,6c-1.07,1.52-15.41-4.64-16.6-3-.72,1,4.28,3.58,3.56,5-1.19,2.37-18.28,1.34-22.52-6-1.43-2.47-.37-3.86-1.19-7-1.49-5.72-7.26-11.5-14.22-13-3.55-.77-3.67.44-10.67,0-6.53-.42-6.89-1.51-13-2a57.63,57.63,0,0,0-15.41,1c-5.57.92-9.66,1.64-10.67,4-.82,1.9,1.09,3.16,0,5-.78,1.31-2.44,1.82-7.11,3s-7.11,1.8-8.3,2c-12.29,2.1-21.49,7.34-22.51,6-.77-1,4.17-4.35,3.55-5-.88-.92-11.85,5-11.85,5h0s4.95-6.81,3.56-8-10.2,4.52-10.67,4,4.53-6.51,13-10c2.16-.89,4.61-1.63,4.74-3,.14-1.58-2.91-2.29-4.74-4-5.37-5,.87-17.54,5.92-24,0,0,6.4-8.19,15.41-12l2.37-1s-1.53,1.27-2.37,1c-2.83-.92.19-19.43,2.37-26,.2-.61.85-2.48,0-3s-2.58.52-3.56,1c-2.54,1.26-6.86,1.19-15.4,1-10.28-.23-10.86-.89-14.23,0-3.73,1-6.37,2.68-7.11,2s2.85-3.19,2.37-6c-.78-4.63-12.28-6.57-11.85-8,.33-1.13,7.55-.12,8.3-2,.45-1.11-1.6-2.66-1.19-3s1.87,1.24,3.56,1c2.1-.29,3.08-3.16,3.55-3s-.46,1.41,0,2c1.31,1.64,12.19-2.82,24.89-8C258.38,342.21,262.23,340.68,261.93,339Z"/><path class="cls-56" d="M321.19,402c.83-2.6,1.6-7.34-8.3-25-14-25.05-23.08-28.88-26.07-30-3.56-1.34-6.68-2.5-10.67-2-14.68,1.86-22.08,24.09-23.7,37-1,7.82-2.5,19.88,5.93,32,10.59,15.24,29.31,19.68,39.11,22,9.48,2.25,22.52,3.62,23.7,1,.51-1.1-1.47-2-3.55-5-4.9-7.07-3-15.24-2.37-18C316.78,407.44,319.6,407,321.19,402Z"/><path class="cls-56" d="M363.86,435a3.19,3.19,0,0,0,0,4c3.36,3.25,21.11-2.55,33.18-12,13.91-10.88,18.09-24.86,17.78-25A57.31,57.31,0,0,1,403,417a78.15,78.15,0,0,1-16.59,11c-5.66,3-8.49,4.47-11.85,5C369.51,433.8,365.49,432.91,363.86,435Z"/><path class="cls-57" d="M413.64,383c-3.34-.46-9.35-1.28-11.85-5-1.72-2.56-.25-4.22-2.37-7-2.43-3.19-5.66-2.68-7.12-5-1.93-3.07,2.11-6.47,4.74-12,5.37-11.31.68-22.79,2.38-23,1-.13,2.16,4.17,3.55,4s1.84-4.52,2-6.11c.3-2.87.07-4.86.35-4.89.51-.06,1.57,6.05,2.37,6s.64-5,1.19-5c.73,0,1.37,9,2.37,9,1.62,0,3.38-24,4.74-24,.72,0,.69,6.83,2.37,7,1.36.13,2.85-4.17,3.55-4s-1,6.74,0,7,2.86-4.18,3.56-4c1.08.28-5.4,10.25-1.19,18,3.29,6,10.67,6.38,10.67,11,0,2.68-2.5,3.24-4.74,9-1.18,3.08-2,6.74-1.18,7,1.26.42,6.35-8.31,7.11-8s-2.68,6.17-1.19,7c.95.52,3.12-1.35,3.56-1,1,.77-10.73,9.47-8.3,16,.83,2.22,2.67,2.55,2.37,4C431.93,382.26,421.85,384.12,413.64,383Z"/></g><g id="Capa_9" data-name="Capa 9"><path class="cls-58" d="M16.39,273.21s6.38-6.16,7.5-8.86,6.2-14.12,5.82-15.66,23.84-4.37,23.84-4.37v12.33"/><path class="cls-59" d="M14.7,254.39l2.63,2.66s50.29-6.84,52.54-8S15.82,255.91,14.7,254.39Z"/><path class="cls-59" d="M81.25,240.67c2.77-1.55-66.64,9.25-68,7.19l3.23,3.6"/><path class="cls-59" d="M43,266.12q5.1.21,10.19.62a23.18,23.18,0,0,1,2.37.21c.45.08.84.35.25.51a11,11,0,0,1-2.22.13l-2.63.1c-1.18.05-1.18,1.55,0,1.5l3.46-.14a6.79,6.79,0,0,0,2.46-.34,1.58,1.58,0,0,0,.69-2.38,2.07,2.07,0,0,0-1.31-.79,21.68,21.68,0,0,0-3.12-.3L49.87,265c-2.28-.15-4.58-.28-6.88-.37-1.19,0-1.19,1.46,0,1.5Z"/><path class="cls-59" d="M55.7,267c4.18,0,5.49-4.53,4.22-7.23-1.84-3.89-6.67-4.77-11.15-4.77-5.5,0-11.34-.08-16.67,1.28-3.76,1-8.55,3.58-7.84,7.43.39,2.1,2.3,2.81,4.6,2.81,3.56,0,7.11-.08,10.67-.12a.76.76,0,1,0,0-1.5l-8.3.09a17.42,17.42,0,0,1-3.82,0c-1.48-.33-1.64-1.82-1.28-2.87,1.47-4.13,8.42-4.94,12.66-5.28,2.68-.22,5.38-.26,8.07-.28,2.46,0,5-.15,7.39.6a6.15,6.15,0,0,1,4.32,4.19c.36,1.59-.54,4.25-2.89,4.25a.76.76,0,1,0,0,1.5Z"/><path class="cls-59" d="M28,265.92a1,1,0,0,0-1-1,1.34,1.34,0,0,0-.53.08,1.77,1.77,0,0,0-.93,1.83,3.68,3.68,0,0,0,3.64,2.88,85.49,85.49,0,0,0,14.4.07c1.19-.06,1.19-1.56,0-1.5-3.23.17-6.48.27-9.73.19a36.63,36.63,0,0,1-4.57-.26,2.6,2.6,0,0,1-1.59-.66c-.21-.23-.59-1.13-.33-1.25l-.68.07h.12l-.53-.35v-.17c0,1,1.73,1,1.78,0Z"/><path class="cls-59" d="M26.15,270.42a1.94,1.94,0,0,0,1.1,2.79,2,2,0,0,0,.34.12,8.12,8.12,0,0,0,2.95-.08l3.68-.41,7.63-.86,1.69-.19c1.07-.12,1.34-.07,1.81.84l1.52,3.1a1,1,0,0,0,1.13.51,1.11,1.11,0,0,0,.36-.18,18.22,18.22,0,0,1,5.4-3A5.75,5.75,0,0,0,57.13,271c.51-.86-1-1.62-1.54-.76-.76,1.28-2.79,1.55-4.19,2.16a19.78,19.78,0,0,0-4.3,2.6l1.49.33-1.31-2.66a7,7,0,0,0-1.07-1.87c-1.18-1.17-3.71-.4-5.2-.23l-6.79.77-3.39.38c-.45,0-3.74.63-3.14-.54.43-.88-1.09-1.64-1.54-.76Z"/><path class="cls-59" d="M26.16,274.92a5.62,5.62,0,0,0,0,2.31.88.88,0,0,0,.86.55q9.39.33,18.78.07a74,74,0,0,0,8.81-.43,2.71,2.71,0,0,0,2.73-2.78,2.42,2.42,0,0,0-.13-.53c-.39-.9-2.12-.51-1.72.4.88,2-5.19,1.67-6.51,1.72-2.37.1-4.82.17-7.23.21q-7.35.1-14.73-.16l.86.55a3.5,3.5,0,0,1,0-1.51c.2-.95-1.51-1.35-1.72-.4Z"/><path class="cls-59" d="M26.39,279.56c.23,1.2-.53,2.46.15,3.62a3.19,3.19,0,0,0,2.62,1.27,87.23,87.23,0,0,0,12.1.52,108.84,108.84,0,0,0,11.42-.84c2.61-.34,5.16-1.92,4.23-4.42-.34-.91-2.06-.52-1.71.4,1,2.78-4.41,2.75-6.33,2.92-2.9.27-5.82.43-8.74.46s-5.64-.06-8.45-.29c-1.35-.11-3.5.1-3.66-1.36-.1-.89.26-1.76.09-2.68s-1.89-.55-1.72.4Z"/><path d="M68.62,262l-7.83,17.8c-.4.9,1.31,1.29,1.71.4l7.84-17.79c.39-.9-1.33-1.29-1.72-.39Z"/><path d="M64.53,266.55c.68,0,.4.08.74-.46a7.27,7.27,0,0,1,.53-.71,12.93,12.93,0,0,1,1.44-1.53,14.35,14.35,0,0,1,3.16-2.16A13.84,13.84,0,0,1,78,260.32l-.89-.75c-.52,3.82-4,6.36-7.33,8.6L71,269.23a10.46,10.46,0,0,1,4-1.61c.92-.16,3-.47,3.56.44s-1,2.68-1.7,3.48a23.26,23.26,0,0,1-2.61,2.75,24.65,24.65,0,0,1-12.8,6.06c-1.12.17-.65,1.61.48,1.44a26.37,26.37,0,0,0,16-8.93c1.47-1.72,4.37-5.22.82-6.57-2.92-1.11-6.72.35-9,1.88-.9.6.37,1.65,1.26,1.06,3.82-2.55,7.25-5.38,7.84-9.66,0-.44-.46-.71-.89-.75a15.74,15.74,0,0,0-10.4,2.77,13.81,13.81,0,0,0-3.88,3.89c-.54.86-.75,2.55.9,2.57a.76.76,0,1,0,0-1.5Z"/><path d="M81.67,267.52a33.43,33.43,0,0,0-1,5.23c-.17,1.53-.58,3.58.57,4.91s3.16.85,4.29-.3A6.89,6.89,0,0,0,87.37,273a49.22,49.22,0,0,0,0-5.95.9.9,0,0,0-1.77,0c0,1.81.17,3.65.08,5.46-.08,1.44-.42,3.24-1.84,4.21C82,278,82.41,274,82.47,273.34a29.85,29.85,0,0,1,1-5.44c.25-.94-1.46-1.34-1.72-.4Z"/><path d="M88.19,268.05l.39,8.56a.9.9,0,0,0,1.78,0c.31-3,.59-6.59,3-9,.73-.73-.51-1.79-1.27-1.06-2.8,2.75-3.2,6.59-3.56,10.06h1.78L90,268.05C90,267.05,88.14,267.05,88.19,268.05Z"/><path d="M98.43,266.06c-2.25-1.49-3.76,2-4.25,3.35-.69,1.88-1.3,4.71,0,6.51a2.18,2.18,0,0,0,2.07.9,2.8,2.8,0,0,0,2-2c1.09-2.59,1-5.44.94-8.15H97.45a65.68,65.68,0,0,1-1.06,15c-.17,1.06-.48,6.78-2.65,6.11-1.19-.36-1.34-2-1.19-2.9a3.87,3.87,0,0,1,1.66-2.63c.89-.62-.38-1.67-1.25-1.06a5,5,0,0,0-1.7,6.43,3.2,3.2,0,0,0,3.12,1.75A3.46,3.46,0,0,0,97,287.19a19.49,19.49,0,0,0,1-4.69c.27-1.65.53-3.31.74-5a55,55,0,0,0,.45-10.88.9.9,0,0,0-1.77,0,35.09,35.09,0,0,1-.08,4.35,11.08,11.08,0,0,1-.47,2.48c-.12.41-.59,2.14-1.28,1.53-.43-.37-.34-1.32-.35-1.79a9,9,0,0,1,.27-2.19,11,11,0,0,1,.64-1.91c.14-.31,1.18-1.86,1-2,.88.6,2.15-.46,1.25-1.06Z"/><path d="M102.75,272c2.19-.18,4.74-1.6,5-3.58a2.25,2.25,0,0,0-1.35-2.28,3.17,3.17,0,0,0-3,.17,6.65,6.65,0,0,0-2.94,5.06c-.23,1.83.09,4.36,2,5.44s5.4.41,5.8-1.67a.77.77,0,0,0-.62-.92.94.94,0,0,0-1.09.52c-.2,1-1.91,1.29-2.87.93-1.34-.49-1.51-2.36-1.51-3.43a6.33,6.33,0,0,1,1.18-3.73,2.74,2.74,0,0,1,1.45-1.14.93.93,0,0,1,1.09.54c.24.63-.46,1.29-1,1.69a4.16,4.16,0,0,1-2.22.9.87.87,0,0,0-.89.75.85.85,0,0,0,.89.75Z"/><path d="M108.92,266.89a2.89,2.89,0,0,1,1.07,1.72,26,26,0,0,1,.68,2.55,27.78,27.78,0,0,1,.63,5.13h1.78a17,17,0,0,1,.27-5.73c.32-1.39.89-3.48,2.82-3.84,1.12-.21.66-1.66-.47-1.45-2.37.44-3.45,2.57-3.92,4.36a17.42,17.42,0,0,0-.48,6.66c.11.94,1.8,1,1.78,0a31.65,31.65,0,0,0-.73-5.72,25.23,25.23,0,0,0-.75-2.67,3.9,3.9,0,0,0-1.42-2.07,1,1,0,0,0-1.26,0,.68.68,0,0,0,0,1.06Z"/><path d="M126.22,259.59a3,3,0,0,0-3.29-4.26c-3.56.44-4.27,4.19-4.74,6.58a40.69,40.69,0,0,0-.83,10.14c.17,2.48,1.37,5.47,4.82,5.68,4.2.26,4.13-4.13,4.13-6.61a.9.9,0,0,0-1.78,0,14.67,14.67,0,0,1-.28,3.37c-.18.74-.34,1.51-1.32,1.72a3,3,0,0,1-1.86-.33c-2.64-1.38-2-5.28-1.92-7.49a40.6,40.6,0,0,1,1.18-8.11c.32-1.17.83-2.7,2.21-3.29a1.75,1.75,0,0,1,2.14.66,1.16,1.16,0,0,1,0,1.18c-.46.87,1.07,1.64,1.54.76Z"/><path d="M126.82,272.29a33.87,33.87,0,0,0,0-3.77,1,1,0,0,0-.29-.68,1.21,1.21,0,0,0-.68-.4,20.15,20.15,0,0,0-4-.17,1.28,1.28,0,0,0-1.34,1.13,1.26,1.26,0,0,0,1.34,1.12,18.24,18.24,0,0,1,3.22.07h-.36l.45.06-1-1.09v3.77a1.2,1.2,0,0,0,1.21,1.23,1.3,1.3,0,0,0,1.46-1,.74.74,0,0,0,0-.21Z"/><path d="M130.09,271.57c1.18-.2,2.48.22,3.68-.13a3.08,3.08,0,0,0,2.2-1.86,2.13,2.13,0,0,0-.94-2.42,4.05,4.05,0,0,0-2.82-.6,5.59,5.59,0,0,0-4.62,3.74c-.58,1.77-.39,4.5,1.79,5.46a7.14,7.14,0,0,0,6.92-.76c.82-.67-.44-1.73-1.26-1.06a5,5,0,0,1-4.13.71,1.93,1.93,0,0,1-1.57-1.13,4.24,4.24,0,0,1-.25-2.11,3.94,3.94,0,0,1,2.53-3.19c.83-.31,2.77-.36,2.63.82a1.49,1.49,0,0,1-1.34,1,9.27,9.27,0,0,1-1.49,0,8.7,8.7,0,0,0-1.84.07.75.75,0,0,0-.62.92,1,1,0,0,0,1.09.53Z"/><path d="M151.83,256.12c-.69,3.58-1.53,7.15-2.54,10.68-.93,3.29-1.87,6.67-4.08,9.54-.63.81.91,1.57,1.53.76,2.21-2.87,3.21-6.24,4.16-9.53,1.06-3.65,1.92-7.34,2.64-11.05.19-.95-1.53-1.35-1.71-.4Z"/><path d="M149.75,267.38c1.33.42,2.67-.43,3.64-1.12a12.59,12.59,0,0,0,2.57-2.53,28.74,28.74,0,0,0,3.56-6.92c.38-.91-1.33-1.3-1.71-.4a30.44,30.44,0,0,1-3,6,11.89,11.89,0,0,1-2,2.25c-.54.47-1.74,1.54-2.61,1.27a.76.76,0,1,0-.46,1.45Z"/><path d="M151.39,267.34c1.62-1.11,2.56,1.6,2.81,2.44a33.66,33.66,0,0,0,1.31,5.09,3.74,3.74,0,0,0,4.4,2.17c1.86-.43,4.16-1.55,4-3.42-.08-1-1.86-1-1.77,0s-.86,1.28-1.69,1.62-1.67.68-2.37.21a3.18,3.18,0,0,1-1.18-1.92c-.24-.81-.36-1.65-.54-2.47a8.91,8.91,0,0,0-1.74-4.3,3.35,3.35,0,0,0-4.16-.68,3.28,3.28,0,0,0-.31.2c-.88.61.38,1.67,1.26,1.06Z"/><path d="M139.59,271.76c1.19-.19,2.47.23,3.68-.12a3.14,3.14,0,0,0,2.2-1.86,2.14,2.14,0,0,0-.95-2.42,4,4,0,0,0-2.82-.6,5.6,5.6,0,0,0-4.62,3.74c-.57,1.77-.39,4.49,1.79,5.46a7.16,7.16,0,0,0,7-.75c.82-.67-.44-1.73-1.26-1.06a5,5,0,0,1-4.13.7,1.9,1.9,0,0,1-1.57-1.13,4.09,4.09,0,0,1-.25-2.1,3.94,3.94,0,0,1,2.53-3.19c.83-.31,2.77-.37,2.63.82a1.49,1.49,0,0,1-1.34,1,9.14,9.14,0,0,1-1.48,0,8.08,8.08,0,0,0-1.84.07.75.75,0,0,0-.63.92h0A1,1,0,0,0,139.59,271.76Z"/><text class="cls-60" transform="translate(388.96 426.64) scale(1.19 1)">$ 25</text><text class="cls-61" transform="translate(388.96 426.64) scale(1.19 1)">$ 25</text></g></svg>